<?xml version="1.0" encoding="UTF-8" standalone="no"?>
<!-- Generator: Adobe Illustrator 23.0.2, SVG Export Plug-In . SVG Version: 6.00 Build 0)  -->

<svg
   xmlns:dc="http://purl.org/dc/elements/1.1/"
   xmlns:cc="http://creativecommons.org/ns#"
   xmlns:rdf="http://www.w3.org/1999/02/22-rdf-syntax-ns#"
   xmlns:svg="http://www.w3.org/2000/svg"
   xmlns="http://www.w3.org/2000/svg"
   xmlns:xlink="http://www.w3.org/1999/xlink"
   xmlns:sodipodi="http://sodipodi.sourceforge.net/DTD/sodipodi-0.dtd"
   xmlns:inkscape="http://www.inkscape.org/namespaces/inkscape"
   version="1.1"
   id="Layer_1"
   x="0px"
   y="0px"
   viewBox="0 0 271.75739 132.98251"
   xml:space="preserve"
   sodipodi:docname="Iris-hep-3-regular-complete.svg"
   width="271.75739"
   height="132.98251"
   inkscape:version="0.92.3 (2405546, 2018-03-11)"><metadata
   id="metadata3647"><rdf:RDF><cc:Work
       rdf:about=""><dc:format>image/svg+xml</dc:format><dc:type
         rdf:resource="http://purl.org/dc/dcmitype/StillImage" /><dc:title></dc:title></cc:Work></rdf:RDF></metadata><defs
   id="defs3645" /><sodipodi:namedview
   pagecolor="#ffffff"
   bordercolor="#666666"
   borderopacity="1"
   objecttolerance="10"
   gridtolerance="10"
   guidetolerance="10"
   inkscape:pageopacity="0"
   inkscape:pageshadow="2"
   inkscape:window-width="819"
   inkscape:window-height="480"
   id="namedview3643"
   showgrid="false"
   fit-margin-top="0"
   fit-margin-left="0"
   fit-margin-right="0"
   fit-margin-bottom="0"
   inkscape:zoom="0.2979798"
   inkscape:cx="202.74738"
   inkscape:cy="-136.76"
   inkscape:window-x="0"
   inkscape:window-y="0"
   inkscape:window-maximized="0"
   inkscape:current-layer="Layer_1" />
<style
   type="text/css"
   id="style3411">
	.st0{fill:url(#SVGID_1_);stroke:#575195;stroke-width:1.7;stroke-miterlimit:10;}
	.st1{fill:#0082CA;}
	.st2{fill:#575195;}
	.st3{fill:#270089;}
	.st4{fill:#8A84D6;}
	.st5{fill:url(#SVGID_4_);}
	.st6{fill:url(#SVGID_5_);}
	.st7{clip-path:url(#SVGID_7_);}
	.st8{clip-path:url(#SVGID_9_);fill:#A7A9AC;}
	.st9{clip-path:url(#SVGID_11_);}
	.st10{clip-path:url(#SVGID_13_);fill:#FFFFFF;}
</style>
<linearGradient
   id="SVGID_1_"
   gradientUnits="userSpaceOnUse"
   x1="132.30479"
   y1="184.7366"
   x2="185.43469"
   y2="184.7366">
	<stop
   offset="0"
   style="stop-color:#7C76B7"
   id="stop3413" />
	<stop
   offset="0.5"
   style="stop-color:#6561AB"
   id="stop3415" />
	<stop
   offset="1"
   style="stop-color:#483F99"
   id="stop3417" />
</linearGradient>

<g
   id="g3428"
   transform="translate(-103.25262,-126.25749)">
	<defs
   id="defs3423">
		<rect
   id="SVGID_2_"
   x="122.68"
   y="151.11"
   width="74.339996"
   height="64.959999" />
	</defs>
	<clipPath
   id="SVGID_3_">
		<use
   xlink:href="#SVGID_2_"
   style="overflow:visible"
   id="use3425"
   x="0"
   y="0"
   width="100%"
   height="100%" />
	</clipPath>
</g>







<linearGradient
   id="SVGID_4_"
   gradientUnits="userSpaceOnUse"
   x1="136.2314"
   y1="184.49899"
   x2="181.4584"
   y2="184.49899">
	<stop
   offset="0"
   style="stop-color:#2BC4F3"
   id="stop3580" />
	<stop
   offset="0.5"
   style="stop-color:#00AEEE"
   id="stop3582" />
	<stop
   offset="1"
   style="stop-color:#0095DA"
   id="stop3584" />
</linearGradient>

<linearGradient
   id="SVGID_5_"
   gradientUnits="userSpaceOnUse"
   x1="140.3149"
   y1="184.7627"
   x2="177.4247"
   y2="184.7627"
   gradientTransform="matrix(-0.00673163,1,-1,-0.00673163,344.6977,27.1403)">
	<stop
   offset="0"
   style="stop-color:#2BC4F3"
   id="stop3589" />
	<stop
   offset="0.5"
   style="stop-color:#00AEEE"
   id="stop3591" />
	<stop
   offset="1"
   style="stop-color:#0095DA"
   id="stop3593" />
</linearGradient>


<g
   id="g4818"
   transform="translate(-103.25262,-126.25749)"><ellipse
     id="ellipse3420"
     ry="26.85"
     rx="26.559999"
     cy="184.74001"
     cx="158.87"
     class="st0"
     style="fill:url(#SVGID_1_);stroke:#575195;stroke-width:1.70000005;stroke-miterlimit:10" /><path
     id="path3430"
     d="m 117.18,157.05 c 0,0 0.15,-0.24 0.46,-0.68 2.78,-3.94 18.28,-23.54 50.6,-21.13 0,0 37.04,2.68 40.97,47.65 0,0 1.68,38.27 -38.16,50.71 0,0 -67.34,9.57 -56.12,-59.9 h 2.25 c 0,0 -3.93,43.06 27.5,52.24 0,0 53.31,10.96 58.36,-41.41 0,0 -1.68,-34.44 -24.69,-40.15 0,0 -33.67,-12.02 -57.8,17.26"
     class="st1"
     inkscape:connector-curvature="0"
     style="fill:#0082ca" /><path
     id="path3432"
     d="m 188.92,205.34 c 0,0 -0.11,0.18 -0.34,0.49 -2.04,2.81 -13.38,16.76 -36.21,14.41 0,0 -26.16,-2.63 -28.09,-35.36 0,0 -0.46,-27.82 27.97,-36.11 0,0 47.84,-5.7 38.58,44.53 l -1.59,-0.04 c 0,0 3.6,-31.19 -18.47,-38.44 0,0 -37.52,-8.95 -42.09,28.98 0,0 0.54,25.04 16.71,29.61 0,0 23.6,9.35 41.23,-11.46"
     class="st2"
     inkscape:connector-curvature="0"
     style="fill:#575195" /><path
     id="path3434"
     d="m 119.43,201.56 c 0,0 -0.09,-0.22 -0.24,-0.65 -1.31,-3.82 -6.98,-23.99 10.53,-45.51 0,0 20.01,-24.71 52.4,-6.13 0,0 26.76,16.98 15.62,50.82 0,0 -26.59,51.77 -68.14,10.94 l 1.1,-1.57 c 0,0 27.24,23.18 48.9,5.5 0,0 33.6,-32.19 0.6,-60.57 0,0 -24.16,-15.16 -39.33,-1.73 0,0 -24.68,17.91 -16.69,48.72"
     class="st3"
     inkscape:connector-curvature="0"
     style="fill:#270089" /><path
     id="path3436"
     d="m 183.58,239.33 c 0,0 -0.31,0.14 -0.9,0.35 -5.3,1.96 -33.29,10.58 -62.38,-13.26 0,0 -33.39,-27.23 -6.71,-73.28 0,0 24.28,-38.09 70.56,-23.59 0,0 70.46,35.57 12.82,95.19 l -2.13,-1.49 c 0,0 32.85,-38.97 9.2,-68.75 0,0 -43.25,-46.05 -83.46,1.16 0,0 -21.69,34.39 -3.69,55.21 0,0 23.87,34.01 66.6,21.79"
     class="st4"
     inkscape:connector-curvature="0"
     style="fill:#8a84d6" /><g
     id="g3446">
	<path
   id="path3438"
   d="m 227.05,132.96 v -5.95 h 5.53 v 5.95 z m 5.32,6.09 v 34.51 h -5.11 v -34.51 z"
   class="st4"
   inkscape:connector-curvature="0"
   style="fill:#8a84d6" />
	<path
   id="path3440"
   d="m 247.56,139.05 v 7.21 c 0.98,-2.45 3.36,-8.61 9.94,-8.12 v 5.74 c -5.67,-0.63 -9.38,3.29 -9.38,11.83 v 17.85 h -5.11 v -34.51 z"
   class="st4"
   inkscape:connector-curvature="0"
   style="fill:#8a84d6" />
	<path
   id="path3442"
   d="m 262.12,132.96 v -5.95 h 5.53 v 5.95 z m 5.32,6.09 v 34.51 h -5.11 v -34.51 z"
   class="st4"
   inkscape:connector-curvature="0"
   style="fill:#8a84d6" />
	<path
   id="path3444"
   d="m 293.62,147.94 c -0.56,-1.47 -1.96,-5.6 -6.72,-5.6 -4.06,0 -5.95,2.8 -5.95,5.32 0,3.5 2.38,4.27 8.05,5.95 4.41,1.4 10.57,3.43 10.57,10.36 0,4.97 -3.78,10.57 -12.53,10.57 -10.36,0 -11.83,-7.28 -12.39,-9.87 l 4.76,-1.05 c 0.35,1.82 1.33,6.65 7.98,6.65 4.97,0 6.86,-3.22 6.86,-5.67 0,-3.85 -3.64,-4.97 -6.72,-5.95 -5.88,-1.82 -8.26,-2.73 -9.94,-5.18 -1.05,-1.47 -1.68,-3.22 -1.68,-5.11 0,-4.13 3.36,-10.29 11.27,-10.29 8.4,0 10.22,6.23 10.92,8.75 z"
   class="st4"
   inkscape:connector-curvature="0"
   style="fill:#8a84d6" />
</g><g
     id="g3454">
	<path
   id="path3448"
   d="m 240.83,173.94 v 16.5 c 0.59,-1.72 2.18,-5.94 8.12,-5.94 3.37,0 6.2,1.52 7.59,4.09 1.12,2.18 1.12,5.61 1.12,9.17 v 20.19 h -4.82 v -20.19 c 0,-4.42 0,-9.24 -5.28,-9.24 -6.07,0 -6.73,8.38 -6.73,12.41 v 17.03 h -4.82 v -44.02 z"
   class="st1"
   inkscape:connector-curvature="0"
   style="fill:#0082ca" />
	<path
   id="path3450"
   d="m 269.8,202.32 c 0,2.84 -0.07,12.54 7.59,12.54 4.62,0 5.87,-4.03 6.6,-6.53 l 4.55,1.06 c -2.05,7.59 -6.73,9.5 -11.42,9.5 -9.31,0 -12.41,-8.18 -12.41,-16.7 0,-12.21 5.81,-17.69 12.67,-17.69 7.33,0 11.42,5.61 11.62,17.82 z m 13.73,-3.96 c 0,-4.88 -1.52,-9.83 -6.67,-9.83 -4.95,0 -6.4,5.21 -6.8,9.83 z"
   class="st1"
   inkscape:connector-curvature="0"
   style="fill:#0082ca" />
	<path
   id="path3452"
   d="m 299.96,185.42 v 5.68 c 0.86,-1.98 2.71,-6.34 8.65,-6.34 7,0 11.42,6.47 11.42,16.5 0,3.3 -0.73,17.36 -11.42,17.36 -4.82,0 -6.53,-2.24 -8.18,-4.88 v 15.24 h -4.82 v -43.56 z m 0.46,18.75 c 0,2.71 0,5.21 1.78,7.59 1.32,1.78 3.1,2.84 5.35,2.84 2.18,0 3.83,-0.79 5.21,-3.23 1.58,-2.77 1.91,-7.06 1.91,-9.83 0,-4.69 -0.99,-12.74 -7.13,-12.74 -1.91,0 -3.96,0.59 -5.61,3.56 -1.52,2.71 -1.52,4.75 -1.52,6.93 v 4.88 z"
   class="st1"
   inkscape:connector-curvature="0"
   style="fill:#0082ca" />
</g><g
     id="g3578">
	<path
   id="path3456"
   d="m 192.45,232.69 v 8.67 h -1.9 v -8.67 z"
   inkscape:connector-curvature="0" />
	<path
   id="path3458"
   d="m 195.9,234.95 v 0.87 c 0.26,-0.53 0.6,-1.01 1.6,-1.01 0.25,0 0.98,0 1.42,0.68 0.26,0.4 0.26,1.03 0.26,1.66 v 4.21 h -1.78 v -4.21 c 0,-0.57 -0.05,-0.95 -0.61,-0.95 -0.79,0 -0.79,0.62 -0.79,1.4 v 3.76 h -1.78 v -6.41 z"
   inkscape:connector-curvature="0" />
	<path
   id="path3460"
   d="m 203.63,236.86 c -0.1,-0.33 -0.29,-0.87 -0.94,-0.87 -0.42,0 -0.56,0.3 -0.56,0.56 0,0.51 0.35,0.62 1.07,0.88 0.9,0.31 1.9,0.66 1.9,1.96 0,0.95 -0.66,2.09 -2.43,2.09 -2.11,0 -2.33,-1.43 -2.4,-1.91 l 1.42,-0.23 c 0.05,0.25 0.21,0.96 1.01,0.96 0.18,0 0.71,-0.04 0.71,-0.6 0,-0.51 -0.39,-0.64 -1.03,-0.85 -0.68,-0.21 -1.92,-0.64 -1.92,-2.02 0,-1.38 1.13,-2.04 2.28,-2.04 1.08,0 1.94,0.62 2.17,1.68 z"
   inkscape:connector-curvature="0" />
	<path
   id="path3462"
   d="m 208.27,232.93 v 2.03 h 1.18 v 1.4 h -1.18 v 2.35 c 0,1.21 0,1.36 1.27,1.29 v 1.37 c -0.26,0.05 -0.62,0.13 -1.1,0.13 -0.58,0 -1.23,-0.14 -1.6,-0.66 -0.31,-0.45 -0.31,-1.1 -0.31,-1.92 v -2.55 h -0.7 v -1.4 h 0.79 l 0.14,-1.89 z"
   inkscape:connector-curvature="0" />
	<path
   id="path3464"
   d="m 210.52,234.41 v -1.77 h 1.81 v 1.77 z m 1.79,0.54 v 6.41 h -1.78 v -6.41 z"
   inkscape:connector-curvature="0" />
	<path
   id="path3466"
   d="m 215.9,232.93 v 2.03 h 1.18 v 1.4 h -1.18 v 2.35 c 0,1.21 0,1.36 1.27,1.29 v 1.37 c -0.26,0.05 -0.62,0.13 -1.1,0.13 -0.58,0 -1.23,-0.14 -1.6,-0.66 -0.31,-0.45 -0.31,-1.1 -0.31,-1.92 v -2.55 h -0.7 v -1.4 h 0.79 l 0.14,-1.89 z"
   inkscape:connector-curvature="0" />
	<path
   id="path3468"
   d="m 219.85,234.95 v 4.12 c 0,0.64 0,1.04 0.61,1.04 0.79,0 0.79,-0.51 0.79,-1.89 v -3.28 h 1.78 v 6.41 h -1.68 v -0.88 c -0.33,0.55 -0.61,1.01 -1.65,1.01 -1.64,0 -1.64,-1.2 -1.64,-2.37 v -4.17 h 1.79 z"
   inkscape:connector-curvature="0" />
	<path
   id="path3470"
   d="m 226.64,232.93 v 2.03 h 1.18 v 1.4 h -1.18 v 2.35 c 0,1.21 0,1.36 1.27,1.29 v 1.37 c -0.26,0.05 -0.62,0.13 -1.1,0.13 -0.58,0 -1.23,-0.14 -1.6,-0.66 -0.31,-0.45 -0.31,-1.1 -0.31,-1.92 v -2.55 h -0.7 v -1.4 h 0.79 l 0.14,-1.89 z"
   inkscape:connector-curvature="0" />
	<path
   id="path3472"
   d="m 230.47,238.45 c -0.01,0.87 -0.03,1.81 0.86,1.81 0.77,0 0.86,-0.69 0.91,-1.1 l 1.6,0.1 c -0.13,0.6 -0.48,2.24 -2.55,2.24 -1.96,0 -2.67,-1.55 -2.67,-3.25 0,-0.42 0.05,-1.43 0.48,-2.21 0.46,-0.82 1.3,-1.22 2.17,-1.22 1.12,0 1.81,0.62 2.09,1.17 0.46,0.87 0.47,1.69 0.47,2.47 h -3.36 z m 1.68,-1.03 c 0.01,-0.35 0.04,-1.43 -0.83,-1.43 -0.81,0 -0.82,0.98 -0.83,1.43 z"
   inkscape:connector-curvature="0" />
	<path
   id="path3474"
   d="m 241.89,234.95 v 1.4 h -1.13 v 5.01 h -1.72 v -5.01 h -0.73 v -1.4 h 0.73 c 0.03,-1.09 0.06,-1.7 0.69,-2.2 0.34,-0.27 0.72,-0.4 1.38,-0.4 0.38,0 0.61,0.04 0.84,0.06 v 1.39 c -0.12,-0.01 -0.22,-0.03 -0.39,-0.03 -0.78,0 -0.81,0.31 -0.81,1.17 h 1.14 z"
   inkscape:connector-curvature="0" />
	<path
   id="path3476"
   d="m 247.71,238.15 c 0,2.05 -0.74,3.34 -2.61,3.34 -1.85,0 -2.6,-1.27 -2.6,-3.34 0,-2 0.7,-3.34 2.61,-3.34 1.9,0 2.6,1.34 2.6,3.34 z m -2.61,-2.09 c -0.57,0 -0.75,0.52 -0.75,2.09 0,1.7 0.23,2.09 0.77,2.09 0.52,0 0.75,-0.38 0.75,-2.09 0,-1.65 -0.21,-2.09 -0.75,-2.09 z"
   inkscape:connector-curvature="0" />
	<path
   id="path3478"
   d="m 250.61,234.95 v 1.55 c 0.16,-0.55 0.47,-1.64 1.51,-1.64 0.13,0 0.22,0.01 0.31,0.04 v 1.74 c -0.16,-0.03 -0.23,-0.03 -0.3,-0.03 -1.31,0 -1.31,1.48 -1.31,1.98 v 2.77 h -1.78 v -6.41 z"
   inkscape:connector-curvature="0" />
	<path
   id="path3480"
   d="m 259.76,232.69 c 0.87,0 1.72,0 2.38,0.74 0.46,0.51 0.62,1.2 0.62,1.88 0,1.53 -0.79,2 -1.22,2.26 l 1.6,3.78 h -2.08 l -1.16,-3.42 h -0.96 v 3.42 h -1.9 v -8.67 h 2.72 z m -0.82,1.41 v 2.44 h 0.84 c 0.82,0 1.12,-0.53 1.12,-1.25 0,-1.2 -0.87,-1.2 -1.2,-1.2 h -0.76 z"
   inkscape:connector-curvature="0" />
	<path
   id="path3482"
   d="m 265.82,238.45 c -0.01,0.87 -0.03,1.81 0.86,1.81 0.77,0 0.86,-0.69 0.91,-1.1 l 1.6,0.1 c -0.13,0.6 -0.48,2.24 -2.55,2.24 -1.96,0 -2.67,-1.55 -2.67,-3.25 0,-0.42 0.05,-1.43 0.48,-2.21 0.46,-0.82 1.3,-1.22 2.17,-1.22 1.12,0 1.81,0.62 2.09,1.17 0.46,0.87 0.47,1.69 0.47,2.47 h -3.36 z m 1.68,-1.03 c 0.01,-0.35 0.04,-1.43 -0.83,-1.43 -0.81,0 -0.82,0.98 -0.83,1.43 z"
   inkscape:connector-curvature="0" />
	<path
   id="path3484"
   d="m 273.45,236.86 c -0.1,-0.33 -0.29,-0.87 -0.94,-0.87 -0.42,0 -0.56,0.3 -0.56,0.56 0,0.51 0.35,0.62 1.07,0.88 0.9,0.31 1.9,0.66 1.9,1.96 0,0.95 -0.66,2.09 -2.43,2.09 -2.11,0 -2.33,-1.43 -2.4,-1.91 l 1.42,-0.23 c 0.05,0.25 0.21,0.96 1.01,0.96 0.18,0 0.71,-0.04 0.71,-0.6 0,-0.51 -0.39,-0.64 -1.03,-0.85 -0.68,-0.21 -1.92,-0.64 -1.92,-2.02 0,-1.38 1.13,-2.04 2.28,-2.04 1.08,0 1.94,0.62 2.17,1.68 z"
   inkscape:connector-curvature="0" />
	<path
   id="path3486"
   d="m 277.66,238.45 c -0.01,0.87 -0.03,1.81 0.86,1.81 0.77,0 0.86,-0.69 0.91,-1.1 l 1.6,0.1 c -0.13,0.6 -0.48,2.24 -2.55,2.24 -1.96,0 -2.67,-1.55 -2.67,-3.25 0,-0.42 0.05,-1.43 0.48,-2.21 0.46,-0.82 1.3,-1.22 2.17,-1.22 1.12,0 1.81,0.62 2.09,1.17 0.46,0.87 0.47,1.69 0.47,2.47 h -3.36 z m 1.68,-1.03 c 0.01,-0.35 0.04,-1.43 -0.83,-1.43 -0.81,0 -0.82,0.98 -0.83,1.43 z"
   inkscape:connector-curvature="0" />
	<path
   id="path3488"
   d="m 282.36,236.81 c 0.05,-0.36 0.16,-1.13 1.07,-1.65 0.46,-0.26 0.99,-0.35 1.52,-0.35 0.68,0 1.38,0.17 1.86,0.68 0.39,0.39 0.42,1.12 0.42,1.9 v 2.55 c 0,1.09 0.04,1.21 0.1,1.43 h -1.65 c -0.08,-0.26 -0.09,-0.4 -0.09,-0.99 -0.23,0.42 -0.65,1.12 -1.77,1.12 -0.86,0 -1.68,-0.49 -1.68,-1.75 0,-1.78 1.39,-2.25 3.3,-2.35 v -0.25 c 0,-0.56 0,-1.14 -0.64,-1.14 -0.6,0 -0.71,0.48 -0.77,0.99 z m 3.08,1.48 c -1.03,0.13 -1.46,0.38 -1.46,1.21 0,0.46 0.17,0.81 0.6,0.81 0.22,0 0.42,-0.1 0.58,-0.35 0.25,-0.36 0.27,-0.77 0.27,-1.35 v -0.32 z"
   inkscape:connector-curvature="0" />
	<path
   id="path3490"
   d="m 290.39,234.95 v 1.55 c 0.16,-0.55 0.47,-1.64 1.51,-1.64 0.13,0 0.22,0.01 0.31,0.04 v 1.74 c -0.16,-0.03 -0.23,-0.03 -0.3,-0.03 -1.31,0 -1.31,1.48 -1.31,1.98 v 2.77 h -1.78 v -6.41 z"
   inkscape:connector-curvature="0" />
	<path
   id="path3492"
   d="m 296.01,237.37 c -0.06,-0.92 -0.29,-1.2 -0.7,-1.2 -0.53,0 -0.9,0.43 -0.9,1.9 0,0.96 0.1,1.98 0.86,1.98 0.57,0 0.7,-0.52 0.74,-1.18 l 1.66,0.1 c -0.08,0.66 -0.27,2.52 -2.51,2.52 -2.18,0 -2.55,-1.96 -2.55,-3.33 0,-1.73 0.62,-3.35 2.64,-3.35 0.58,0 1.22,0.12 1.73,0.66 0.6,0.65 0.65,1.29 0.69,1.83 z"
   inkscape:connector-curvature="0" />
	<path
   id="path3494"
   d="m 300.7,232.69 v 2.94 c 0.18,-0.29 0.53,-0.82 1.57,-0.82 1.61,0 1.61,1.33 1.61,2.43 v 4.12 h -1.78 v -4.12 c 0,-0.61 0,-1.04 -0.6,-1.04 -0.78,0 -0.81,0.57 -0.81,1.09 v 4.07 h -1.78 v -8.67 z"
   inkscape:connector-curvature="0" />
	<path
   id="path3496"
   d="m 316.17,236.66 c -0.3,1.29 -0.7,2.07 -1.17,2.78 0.49,0.51 0.71,0.48 1.17,0.46 v 1.47 c -0.18,0.04 -0.38,0.09 -0.65,0.09 -0.84,0 -1.3,-0.43 -1.69,-0.82 -0.49,0.39 -1.12,0.86 -2.34,0.86 -2.67,0 -2.77,-2.2 -2.77,-2.56 0,-1.22 0.77,-1.99 1.96,-2.5 -0.2,-0.29 -0.81,-1.12 -0.81,-1.95 0,-0.94 0.83,-1.92 2.29,-1.92 1.52,0 2.22,1.05 2.22,2.07 0,1.25 -1.03,1.83 -1.5,2.08 l 1.2,1.6 c 0.39,-0.66 0.57,-1.43 0.68,-1.91 z m -4.76,0.78 c -0.53,0.33 -0.88,0.77 -0.88,1.38 0,0.56 0.3,1.25 1.25,1.25 0.65,0 0.99,-0.31 1.21,-0.51 z m 0.74,-1.72 c 0.46,-0.26 0.78,-0.65 0.78,-1.2 0,-0.22 -0.08,-0.73 -0.68,-0.73 -0.48,0 -0.68,0.33 -0.68,0.68 0.01,0.46 0.41,1.02 0.58,1.25 z"
   inkscape:connector-curvature="0" />
	<path
   id="path3498"
   d="m 323.3,232.69 v 8.67 h -1.9 v -8.67 z"
   inkscape:connector-curvature="0" />
	<path
   id="path3500"
   d="m 326.75,234.95 v 0.87 c 0.26,-0.53 0.6,-1.01 1.6,-1.01 0.25,0 0.97,0 1.42,0.68 0.26,0.4 0.26,1.03 0.26,1.66 v 4.21 h -1.78 v -4.21 c 0,-0.57 -0.05,-0.95 -0.61,-0.95 -0.79,0 -0.79,0.62 -0.79,1.4 v 3.76 h -1.78 v -6.41 z"
   inkscape:connector-curvature="0" />
	<path
   id="path3502"
   d="m 333.22,234.95 v 0.87 c 0.26,-0.53 0.6,-1.01 1.6,-1.01 0.25,0 0.97,0 1.42,0.68 0.26,0.4 0.26,1.03 0.26,1.66 v 4.21 h -1.78 v -4.21 c 0,-0.57 -0.05,-0.95 -0.61,-0.95 -0.79,0 -0.79,0.62 -0.79,1.4 v 3.76 h -1.78 v -6.41 z"
   inkscape:connector-curvature="0" />
	<path
   id="path3504"
   d="m 342.93,238.15 c 0,2.05 -0.74,3.34 -2.61,3.34 -1.85,0 -2.6,-1.27 -2.6,-3.34 0,-2 0.7,-3.34 2.61,-3.34 1.9,0 2.6,1.34 2.6,3.34 z m -2.61,-2.09 c -0.57,0 -0.75,0.52 -0.75,2.09 0,1.7 0.23,2.09 0.77,2.09 0.52,0 0.75,-0.38 0.75,-2.09 0,-1.65 -0.21,-2.09 -0.75,-2.09 z"
   inkscape:connector-curvature="0" />
	<path
   id="path3506"
   d="m 345.18,234.95 0.88,3.78 0.88,-3.78 h 1.5 l -1.77,6.41 h -1.4 l -1.82,-6.41 z"
   inkscape:connector-curvature="0" />
	<path
   id="path3508"
   d="m 348.81,236.81 c 0.05,-0.36 0.16,-1.13 1.07,-1.65 0.46,-0.26 0.99,-0.35 1.52,-0.35 0.68,0 1.38,0.17 1.86,0.68 0.39,0.39 0.42,1.12 0.42,1.9 v 2.55 c 0,1.09 0.04,1.21 0.1,1.43 h -1.65 c -0.08,-0.26 -0.09,-0.4 -0.09,-0.99 -0.23,0.42 -0.65,1.12 -1.77,1.12 -0.86,0 -1.68,-0.49 -1.68,-1.75 0,-1.78 1.39,-2.25 3.3,-2.35 v -0.25 c 0,-0.56 0,-1.14 -0.64,-1.14 -0.6,0 -0.71,0.48 -0.77,0.99 z m 3.08,1.48 c -1.03,0.13 -1.46,0.38 -1.46,1.21 0,0.46 0.17,0.81 0.6,0.81 0.22,0 0.42,-0.1 0.58,-0.35 0.25,-0.36 0.27,-0.77 0.27,-1.35 v -0.32 z"
   inkscape:connector-curvature="0" />
	<path
   id="path3510"
   d="m 357.27,232.93 v 2.03 h 1.18 v 1.4 h -1.18 v 2.35 c 0,1.21 0,1.36 1.27,1.29 v 1.37 c -0.26,0.05 -0.62,0.13 -1.11,0.13 -0.58,0 -1.24,-0.14 -1.6,-0.66 -0.31,-0.45 -0.31,-1.1 -0.31,-1.92 v -2.55 h -0.7 v -1.4 h 0.79 l 0.14,-1.89 z"
   inkscape:connector-curvature="0" />
	<path
   id="path3512"
   d="m 359.52,234.41 v -1.77 h 1.81 v 1.77 z m 1.8,0.54 v 6.41 h -1.78 v -6.41 z"
   inkscape:connector-curvature="0" />
	<path
   id="path3514"
   d="m 367.83,238.15 c 0,2.05 -0.74,3.34 -2.61,3.34 -1.85,0 -2.6,-1.27 -2.6,-3.34 0,-2 0.7,-3.34 2.61,-3.34 1.9,0 2.6,1.34 2.6,3.34 z m -2.61,-2.09 c -0.57,0 -0.75,0.52 -0.75,2.09 0,1.7 0.23,2.09 0.77,2.09 0.52,0 0.75,-0.38 0.75,-2.09 0,-1.65 -0.21,-2.09 -0.75,-2.09 z"
   inkscape:connector-curvature="0" />
	<path
   id="path3516"
   d="m 370.85,234.95 v 0.87 c 0.26,-0.53 0.6,-1.01 1.6,-1.01 0.25,0 0.97,0 1.42,0.68 0.26,0.4 0.26,1.03 0.26,1.66 v 4.21 h -1.78 v -4.21 c 0,-0.57 -0.05,-0.95 -0.61,-0.95 -0.79,0 -0.79,0.62 -0.79,1.4 v 3.76 h -1.78 v -6.41 z"
   inkscape:connector-curvature="0" />
	<path
   id="path3518"
   d="m 190.38,250.01 v -1.77 h 1.81 v 1.77 z m 1.8,0.54 v 6.41 h -1.78 v -6.41 z"
   inkscape:connector-curvature="0" />
	<path
   id="path3520"
   d="m 195.45,250.55 v 0.87 c 0.26,-0.53 0.6,-1.01 1.6,-1.01 0.25,0 0.98,0 1.42,0.68 0.26,0.4 0.26,1.03 0.26,1.66 v 4.21 h -1.78 v -4.21 c 0,-0.57 -0.05,-0.95 -0.61,-0.95 -0.79,0 -0.79,0.62 -0.79,1.4 v 3.76 h -1.78 v -6.41 z"
   inkscape:connector-curvature="0" />
	<path
   id="path3522"
   d="m 207.7,250.79 c -0.1,-0.31 -0.35,-1.08 -1.22,-1.08 -0.64,0 -0.91,0.44 -0.91,0.79 0,0.6 0.57,0.81 1.5,1.16 0.97,0.38 2.39,0.91 2.39,2.67 0,1.48 -1.04,2.77 -3.08,2.77 -0.62,0 -1.56,-0.12 -2.26,-0.91 -0.48,-0.56 -0.64,-1.09 -0.74,-1.47 l 1.66,-0.47 c 0.1,0.39 0.35,1.3 1.39,1.3 0.65,0 1.1,-0.36 1.1,-0.94 0,-0.61 -0.55,-0.86 -1.2,-1.09 -1.18,-0.43 -2.61,-0.94 -2.61,-2.7 0,-1.35 0.87,-2.65 2.77,-2.65 2.16,0 2.61,1.44 2.79,2.02 z"
   inkscape:connector-curvature="0" />
	<path
   id="path3524"
   d="m 215.67,253.75 c 0,2.05 -0.74,3.34 -2.61,3.34 -1.85,0 -2.6,-1.27 -2.6,-3.34 0,-2 0.7,-3.34 2.61,-3.34 1.9,0 2.6,1.34 2.6,3.34 z m -2.61,-2.09 c -0.57,0 -0.75,0.52 -0.75,2.09 0,1.7 0.23,2.09 0.77,2.09 0.52,0 0.75,-0.38 0.75,-2.09 0,-1.65 -0.21,-2.09 -0.75,-2.09 z"
   inkscape:connector-curvature="0" />
	<path
   id="path3526"
   d="m 220.14,250.55 v 1.4 h -1.13 v 5.01 h -1.72 v -5.01 h -0.73 v -1.4 h 0.73 c 0.03,-1.09 0.06,-1.7 0.69,-2.2 0.34,-0.27 0.72,-0.4 1.38,-0.4 0.38,0 0.61,0.04 0.84,0.06 v 1.39 c -0.12,-0.01 -0.22,-0.03 -0.39,-0.03 -0.78,0 -0.81,0.31 -0.81,1.17 h 1.14 z"
   inkscape:connector-curvature="0" />
	<path
   id="path3528"
   d="m 223.04,248.53 v 2.03 h 1.18 v 1.4 h -1.18 v 2.35 c 0,1.21 0,1.37 1.27,1.29 v 1.37 c -0.26,0.05 -0.62,0.13 -1.1,0.13 -0.58,0 -1.23,-0.14 -1.6,-0.66 -0.31,-0.46 -0.31,-1.1 -0.31,-1.92 v -2.55 h -0.7 v -1.4 h 0.79 l 0.14,-1.89 z"
   inkscape:connector-curvature="0" />
	<path
   id="path3530"
   d="m 226.28,250.55 0.75,3.9 0.71,-3.9 h 1.74 l 0.57,3.9 0.87,-3.9 h 1.4 l -1.61,6.41 h -1.5 l -0.82,-4.35 -0.81,4.35 h -1.46 l -1.61,-6.41 z"
   inkscape:connector-curvature="0" />
	<path
   id="path3532"
   d="m 232.72,252.41 c 0.05,-0.36 0.16,-1.13 1.07,-1.65 0.46,-0.26 0.99,-0.35 1.52,-0.35 0.68,0 1.38,0.17 1.86,0.68 0.39,0.39 0.42,1.12 0.42,1.9 v 2.55 c 0,1.09 0.04,1.21 0.1,1.43 h -1.65 c -0.08,-0.26 -0.09,-0.4 -0.09,-0.99 -0.23,0.42 -0.65,1.12 -1.77,1.12 -0.86,0 -1.68,-0.49 -1.68,-1.75 0,-1.78 1.39,-2.25 3.3,-2.35 v -0.25 c 0,-0.56 0,-1.14 -0.64,-1.14 -0.6,0 -0.71,0.48 -0.77,0.99 z m 3.09,1.48 c -1.03,0.13 -1.46,0.38 -1.46,1.21 0,0.45 0.17,0.81 0.6,0.81 0.22,0 0.42,-0.1 0.59,-0.35 0.25,-0.36 0.27,-0.77 0.27,-1.35 z"
   inkscape:connector-curvature="0" />
	<path
   id="path3534"
   d="m 240.76,250.55 v 1.55 c 0.16,-0.55 0.47,-1.64 1.51,-1.64 0.13,0 0.22,0.01 0.31,0.04 v 1.74 c -0.16,-0.03 -0.23,-0.03 -0.3,-0.03 -1.31,0 -1.31,1.48 -1.31,1.98 v 2.77 h -1.78 v -6.41 z"
   inkscape:connector-curvature="0" />
	<path
   id="path3536"
   d="m 245.02,254.05 c -0.01,0.87 -0.03,1.81 0.86,1.81 0.77,0 0.86,-0.69 0.91,-1.1 l 1.6,0.1 c -0.13,0.6 -0.48,2.24 -2.55,2.24 -1.96,0 -2.67,-1.55 -2.67,-3.25 0,-0.42 0.05,-1.43 0.48,-2.21 0.46,-0.82 1.3,-1.22 2.17,-1.22 1.12,0 1.81,0.62 2.09,1.17 0.46,0.87 0.47,1.69 0.47,2.47 h -3.36 z m 1.68,-1.03 c 0.01,-0.35 0.04,-1.43 -0.83,-1.43 -0.81,0 -0.82,0.98 -0.83,1.43 z"
   inkscape:connector-curvature="0" />
	<path
   id="path3538"
   d="m 256.44,250.55 v 1.4 h -1.13 v 5.01 h -1.72 v -5.01 h -0.73 v -1.4 h 0.73 c 0.03,-1.09 0.06,-1.7 0.69,-2.2 0.34,-0.27 0.72,-0.4 1.38,-0.4 0.38,0 0.61,0.04 0.84,0.06 v 1.39 c -0.12,-0.01 -0.22,-0.03 -0.39,-0.03 -0.78,0 -0.81,0.31 -0.81,1.17 h 1.14 z"
   inkscape:connector-curvature="0" />
	<path
   id="path3540"
   d="m 262.26,253.75 c 0,2.05 -0.74,3.34 -2.61,3.34 -1.85,0 -2.6,-1.27 -2.6,-3.34 0,-2 0.7,-3.34 2.61,-3.34 1.9,0 2.6,1.34 2.6,3.34 z m -2.61,-2.09 c -0.57,0 -0.75,0.52 -0.75,2.09 0,1.7 0.23,2.09 0.77,2.09 0.52,0 0.75,-0.38 0.75,-2.09 0,-1.65 -0.21,-2.09 -0.75,-2.09 z"
   inkscape:connector-curvature="0" />
	<path
   id="path3542"
   d="m 265.16,250.55 v 1.55 c 0.16,-0.55 0.47,-1.64 1.51,-1.64 0.13,0 0.22,0.01 0.31,0.04 v 1.74 c -0.16,-0.03 -0.23,-0.03 -0.3,-0.03 -1.31,0 -1.31,1.48 -1.31,1.98 v 2.77 h -1.78 v -6.41 z"
   inkscape:connector-curvature="0" />
	<path
   id="path3544"
   d="m 277.48,256.96 h -1.9 v -3.55 h -2.09 v 3.55 h -1.9 v -8.67 h 1.9 v 3.5 h 2.09 v -3.5 h 1.9 z"
   inkscape:connector-curvature="0" />
	<path
   id="path3546"
   d="m 279.22,250.01 v -1.77 h 1.81 v 1.77 z m 1.8,0.54 v 6.41 h -1.78 v -6.41 z"
   inkscape:connector-curvature="0" />
	<path
   id="path3548"
   d="m 288.05,250.66 c -0.1,-0.03 -0.22,-0.05 -0.39,-0.05 -0.21,0 -0.56,0.03 -0.68,0.58 0.48,0.49 0.48,1.14 0.48,1.29 0,1.29 -1.09,1.92 -2.31,1.92 -0.39,0 -0.62,-0.06 -0.84,-0.12 -0.42,0.23 -0.42,0.48 -0.42,0.53 0,0.35 0.38,0.38 1.07,0.43 1.46,0.08 1.9,0.1 2.35,0.43 0.49,0.34 0.66,0.87 0.66,1.42 0,1.99 -2.09,2.13 -3.13,2.13 -0.55,0 -2.63,0 -2.63,-1.52 0,-0.79 0.64,-1.05 1.04,-1.2 -0.21,-0.1 -0.83,-0.39 -0.83,-1.1 0,-0.78 0.68,-1.17 1.1,-1.42 -0.39,-0.21 -0.95,-0.52 -0.95,-1.6 0,-1.52 1.29,-1.98 2.39,-1.98 0.7,0 1.07,0.16 1.38,0.3 0.09,-0.66 0.23,-1.27 1.21,-1.27 0.25,0 0.36,0.04 0.49,0.06 v 1.17 z m -4.35,6.8 c 0,0.46 0.46,0.65 1.42,0.65 0.92,0 1.31,-0.19 1.31,-0.68 0,-0.49 -0.43,-0.61 -0.7,-0.62 -0.21,-0.03 -1.24,-0.09 -1.47,-0.12 -0.21,0.1 -0.56,0.29 -0.56,0.77 z m 0.72,-5.01 c 0,0.39 0.04,0.99 0.61,0.99 0.47,0 0.58,-0.35 0.58,-1.03 0,-0.79 -0.19,-1.04 -0.56,-1.04 -0.46,0 -0.63,0.34 -0.63,1.08 z"
   inkscape:connector-curvature="0" />
	<path
   id="path3550"
   d="m 290.64,248.29 v 2.94 c 0.18,-0.29 0.53,-0.82 1.57,-0.82 1.61,0 1.61,1.33 1.61,2.43 v 4.12 h -1.78 v -4.12 c 0,-0.61 0,-1.04 -0.6,-1.04 -0.78,0 -0.81,0.57 -0.81,1.09 v 4.07 h -1.78 v -8.67 z"
   inkscape:connector-curvature="0" />
	<path
   id="path3552"
   d="m 304.34,248.29 v 1.5 h -3.37 v 2 h 2.61 v 1.5 h -2.61 v 2.13 h 3.37 v 1.55 h -5.27 v -8.67 h 5.27 z"
   inkscape:connector-curvature="0" />
	<path
   id="path3554"
   d="m 307.08,250.55 v 0.87 c 0.26,-0.53 0.6,-1.01 1.6,-1.01 0.25,0 0.97,0 1.42,0.68 0.26,0.4 0.26,1.03 0.26,1.66 v 4.21 h -1.78 v -4.21 c 0,-0.57 -0.05,-0.95 -0.61,-0.95 -0.79,0 -0.79,0.62 -0.79,1.4 v 3.76 h -1.78 v -6.41 z"
   inkscape:connector-curvature="0" />
	<path
   id="path3556"
   d="m 313.44,254.05 c -0.01,0.87 -0.03,1.81 0.86,1.81 0.77,0 0.86,-0.69 0.91,-1.1 l 1.6,0.1 c -0.13,0.6 -0.48,2.24 -2.55,2.24 -1.96,0 -2.67,-1.55 -2.67,-3.25 0,-0.42 0.05,-1.43 0.48,-2.21 0.46,-0.82 1.3,-1.22 2.17,-1.22 1.12,0 1.81,0.62 2.09,1.17 0.46,0.87 0.47,1.69 0.47,2.47 h -3.36 z m 1.68,-1.03 c 0.01,-0.35 0.04,-1.43 -0.83,-1.43 -0.81,0 -0.82,0.98 -0.83,1.43 z"
   inkscape:connector-curvature="0" />
	<path
   id="path3558"
   d="m 319.69,250.55 v 1.55 c 0.16,-0.55 0.47,-1.64 1.51,-1.64 0.13,0 0.22,0.01 0.31,0.04 v 1.74 c -0.16,-0.03 -0.23,-0.03 -0.3,-0.03 -1.31,0 -1.31,1.48 -1.31,1.98 v 2.77 h -1.78 v -6.41 z"
   inkscape:connector-curvature="0" />
	<path
   id="path3560"
   d="m 327.83,250.66 c -0.1,-0.03 -0.22,-0.05 -0.39,-0.05 -0.21,0 -0.56,0.03 -0.68,0.58 0.48,0.49 0.48,1.14 0.48,1.29 0,1.29 -1.09,1.92 -2.31,1.92 -0.39,0 -0.62,-0.06 -0.84,-0.12 -0.42,0.23 -0.42,0.48 -0.42,0.53 0,0.35 0.38,0.38 1.07,0.43 1.46,0.08 1.9,0.1 2.35,0.43 0.49,0.34 0.66,0.87 0.66,1.42 0,1.99 -2.09,2.13 -3.13,2.13 -0.55,0 -2.63,0 -2.63,-1.52 0,-0.79 0.64,-1.05 1.04,-1.2 -0.21,-0.1 -0.83,-0.39 -0.83,-1.1 0,-0.78 0.68,-1.17 1.1,-1.42 -0.39,-0.21 -0.95,-0.52 -0.95,-1.6 0,-1.52 1.29,-1.98 2.39,-1.98 0.7,0 1.07,0.16 1.38,0.3 0.09,-0.66 0.23,-1.27 1.21,-1.27 0.25,0 0.36,0.04 0.49,0.06 v 1.17 z m -4.35,6.8 c 0,0.46 0.46,0.65 1.42,0.65 0.92,0 1.31,-0.19 1.31,-0.68 0,-0.49 -0.43,-0.61 -0.7,-0.62 -0.21,-0.03 -1.24,-0.09 -1.47,-0.12 -0.21,0.1 -0.56,0.29 -0.56,0.77 z m 0.72,-5.01 c 0,0.39 0.04,0.99 0.61,0.99 0.47,0 0.58,-0.35 0.58,-1.03 0,-0.79 -0.19,-1.04 -0.56,-1.04 -0.46,0 -0.63,0.34 -0.63,1.08 z"
   inkscape:connector-curvature="0" />
	<path
   id="path3562"
   d="m 329.84,250.55 0.87,3.93 0.83,-3.93 h 1.53 l -1.92,6.53 c -0.36,1.21 -0.65,2.16 -2.07,2.16 -0.35,0 -0.55,-0.05 -0.77,-0.1 v -1.4 c 0.17,0.03 0.3,0.04 0.51,0.04 0.7,0 0.85,-0.16 1.07,-0.92 l -1.83,-6.29 h 1.78 z"
   inkscape:connector-curvature="0" />
	<path
   id="path3564"
   d="m 340.06,248.29 c 0.91,0 1.86,0 2.51,0.66 0.6,0.62 0.73,1.46 0.73,2.05 0,0.86 -0.23,1.73 -0.91,2.25 -0.65,0.51 -1.72,0.51 -2.25,0.51 h -0.68 v 3.2 h -1.9 v -8.67 z m -0.6,1.41 v 2.57 h 0.6 c 0.66,0 1.22,-0.14 1.22,-1.3 0,-1.27 -0.81,-1.27 -1.22,-1.27 z"
   inkscape:connector-curvature="0" />
	<path
   id="path3566"
   d="m 346.11,248.29 v 2.94 c 0.18,-0.29 0.53,-0.82 1.57,-0.82 1.61,0 1.61,1.33 1.61,2.43 v 4.12 h -1.78 v -4.12 c 0,-0.61 0,-1.04 -0.6,-1.04 -0.78,0 -0.81,0.57 -0.81,1.09 v 4.07 h -1.78 v -8.67 z"
   inkscape:connector-curvature="0" />
	<path
   id="path3568"
   d="m 351.62,250.55 0.87,3.93 0.83,-3.93 h 1.53 l -1.92,6.53 c -0.36,1.21 -0.65,2.16 -2.07,2.16 -0.35,0 -0.55,-0.05 -0.77,-0.1 v -1.4 c 0.17,0.03 0.3,0.04 0.51,0.04 0.7,0 0.85,-0.16 1.07,-0.92 l -1.83,-6.29 h 1.78 z"
   inkscape:connector-curvature="0" />
	<path
   id="path3570"
   d="m 358.55,252.46 c -0.1,-0.33 -0.29,-0.87 -0.94,-0.87 -0.42,0 -0.56,0.3 -0.56,0.56 0,0.51 0.35,0.62 1.07,0.88 0.9,0.31 1.9,0.66 1.9,1.96 0,0.95 -0.66,2.09 -2.43,2.09 -2.11,0 -2.33,-1.43 -2.41,-1.91 l 1.42,-0.23 c 0.05,0.25 0.21,0.96 1.01,0.96 0.18,0 0.72,-0.04 0.72,-0.6 0,-0.51 -0.39,-0.64 -1.03,-0.85 -0.68,-0.21 -1.92,-0.64 -1.92,-2.02 0,-1.38 1.13,-2.04 2.27,-2.04 1.08,0 1.94,0.62 2.17,1.68 z"
   inkscape:connector-curvature="0" />
	<path
   id="path3572"
   d="m 361.18,250.01 v -1.77 h 1.81 v 1.77 z m 1.79,0.54 v 6.41 h -1.78 v -6.41 z"
   inkscape:connector-curvature="0" />
	<path
   id="path3574"
   d="m 367.67,252.97 c -0.07,-0.92 -0.29,-1.2 -0.7,-1.2 -0.53,0 -0.9,0.43 -0.9,1.9 0,0.96 0.1,1.98 0.86,1.98 0.57,0 0.7,-0.52 0.74,-1.18 l 1.66,0.1 c -0.08,0.66 -0.27,2.52 -2.51,2.52 -2.18,0 -2.55,-1.96 -2.55,-3.33 0,-1.73 0.62,-3.35 2.64,-3.35 0.58,0 1.22,0.12 1.73,0.66 0.6,0.65 0.65,1.29 0.69,1.83 z"
   inkscape:connector-curvature="0" />
	<path
   id="path3576"
   d="m 373.54,252.46 c -0.1,-0.33 -0.29,-0.87 -0.94,-0.87 -0.42,0 -0.56,0.3 -0.56,0.56 0,0.51 0.35,0.62 1.07,0.88 0.9,0.31 1.9,0.66 1.9,1.96 0,0.95 -0.66,2.09 -2.43,2.09 -2.11,0 -2.33,-1.43 -2.41,-1.91 l 1.42,-0.23 c 0.05,0.25 0.21,0.96 1.01,0.96 0.18,0 0.72,-0.04 0.72,-0.6 0,-0.51 -0.39,-0.64 -1.03,-0.85 -0.68,-0.21 -1.92,-0.64 -1.92,-2.02 0,-1.38 1.13,-2.04 2.27,-2.04 1.08,0 1.94,0.62 2.17,1.68 z"
   inkscape:connector-curvature="0" />
</g><ellipse
     id="ellipse3587"
     ry="22.860001"
     rx="22.610001"
     cy="184.5"
     cx="158.84"
     class="st5"
     style="fill:url(#SVGID_4_)" /><path
     id="path3596"
     d="m 158.74,203.32 c -10.36,-0.07 -18.7,-8.43 -18.63,-18.68 0.07,-10.25 8.52,-18.5 18.88,-18.43 10.36,0.07 18.7,8.43 18.63,18.68 -0.06,10.25 -8.52,18.5 -18.88,18.43 z"
     class="st6"
     inkscape:connector-curvature="0"
     style="fill:url(#SVGID_5_)" /><g
     id="g3620">
	<g
   id="g3618">
		<defs
   id="defs3599">
			<rect
   height="147.67999"
   width="109.75"
   y="135.03"
   x="120.28"
   id="SVGID_6_" />
		</defs>
		<clipPath
   id="SVGID_7_">
			<use
   id="use3601"
   style="overflow:visible"
   xlink:href="#SVGID_6_"
   x="0"
   y="0"
   width="100%"
   height="100%" />
		</clipPath>
		<g
   id="g3616"
   clip-path="url(#SVGID_7_)"
   class="st7">
			<defs
   id="defs3605">
				<rect
   height="147.67999"
   width="109.75"
   y="135.03"
   x="120.28"
   id="SVGID_8_" />
			</defs>
			<clipPath
   id="SVGID_9_">
				<use
   id="use3607"
   style="overflow:visible"
   xlink:href="#SVGID_8_"
   x="0"
   y="0"
   width="100%"
   height="100%" />
			</clipPath>
			<path
   id="path3610"
   clip-path="url(#SVGID_9_)"
   d="m 144.43,161.29 3.71,6.23 10.6,16.85 -23.5,-13.2 c 0,0 2.72,-5.33 9.19,-9.88"
   class="st8"
   inkscape:connector-curvature="0"
   style="fill:#a7a9ac" />
			<path
   id="path3612"
   clip-path="url(#SVGID_9_)"
   d="m 185.48,180.33 -22.82,5.11 c 0,0 20.95,2.18 23.21,2.99 0,0 0.31,-7.54 -0.39,-8.1"
   class="st8"
   inkscape:connector-curvature="0"
   style="fill:#a7a9ac" />
			<path
   id="path3614"
   clip-path="url(#SVGID_9_)"
   d="m 160.16,191.58 c 0,0 3.64,15.79 4.11,15.79 l -3.96,0.22 z"
   class="st8"
   inkscape:connector-curvature="0"
   style="fill:#a7a9ac" />
		</g>
	</g>
</g><g
     id="g3640">
	<g
   id="g3638">
		<defs
   id="defs3623">
			<rect
   height="158.28"
   width="119.65"
   y="131.45"
   x="117.28"
   id="SVGID_10_" />
		</defs>
		<clipPath
   id="SVGID_11_">
			<use
   id="use3625"
   style="overflow:visible"
   xlink:href="#SVGID_10_"
   x="0"
   y="0"
   width="100%"
   height="100%" />
		</clipPath>
		<g
   id="g3636"
   clip-path="url(#SVGID_11_)"
   class="st9">
			<defs
   id="defs3629">
				<rect
   height="158.28"
   width="119.65"
   y="131.45"
   x="117.28"
   id="SVGID_12_" />
			</defs>
			<clipPath
   id="SVGID_13_">
				<use
   id="use3631"
   style="overflow:visible"
   xlink:href="#SVGID_12_"
   x="0"
   y="0"
   width="100%"
   height="100%" />
			</clipPath>
			<path
   id="path3634"
   clip-path="url(#SVGID_13_)"
   d="m 145.01,158.77 c 0,0 3.44,10.29 4.2,11.07 0,0 -6.11,-8.85 -6.37,-9.64 l -1.53,1.3 7.9,11.07 -9.17,-10.29 -1.27,1.3 9.51,9.9 -5.69,-5.03 -0.93,1.04 6.2,5.9 -6.79,-5.12 -0.93,1.39 13.59,9.72 c 0,0 -13.16,-5.82 -22.34,-6.34 l -0.76,2.69 c 0,0 13.42,1.04 25.9,7.38 0,0 -8.58,1.82 -9.09,2.34 l 0.51,2.78 c 0,0 5.77,-3.13 10.45,-3.99 0,0 2.46,3.99 -0.42,23.27 l 2.97,0.43 c 0,0 0.34,-12.76 0,-14.32 0,0 1.61,8.33 3.48,11.29 l 2.72,-0.61 c 0,0 -4.16,-7.47 -6.03,-18.06 0,0 4.59,4.69 6.03,6.94 l 1.27,-0.78 c 0,0 -4.76,-5.73 -7.73,-8.07 0,0 7.98,6.94 9.34,8.51 l 1.1,-1.48 c 0,0 -8.24,-6.16 -8.92,-6.68 0,0 12.65,1.3 25.73,5.9 l 0.85,-3.91 c 0,0 -16.22,-2.94 -21.57,-3.21 -5.35,-0.26 19.11,-0.26 21.57,0.34 v -2.08 c 0,0 -8.34,0.3 -11.69,0.63 0,0 10.24,-1.58 11.69,-1.41 v -1.74 c 0,0 -10.62,1.13 -13.93,2 0,0 11.72,-3.82 13.33,-4.86 L 187,174.87 c 0,0 -9.94,7.51 -26.07,9.48 0,0 7.05,-11.74 7.39,-27.8 l -3.4,-0.95 c 0,0 0.79,13.02 -5.72,27.17 0,0 -9.48,-11.2 -11.35,-25.09 z"
   class="st10"
   inkscape:connector-curvature="0"
   style="fill:#ffffff" />
		</g>
	</g>
</g></g>
</svg>