<?xml version="1.0" encoding="UTF-8" standalone="no"?>
<!-- Created with Inkscape (http://www.inkscape.org/) -->

<svg
   xmlns:dc="http://purl.org/dc/elements/1.1/"
   xmlns:cc="http://creativecommons.org/ns#"
   xmlns:rdf="http://www.w3.org/1999/02/22-rdf-syntax-ns#"
   xmlns:svg="http://www.w3.org/2000/svg"
   xmlns="http://www.w3.org/2000/svg"
   xmlns:xlink="http://www.w3.org/1999/xlink"
   xmlns:sodipodi="http://sodipodi.sourceforge.net/DTD/sodipodi-0.dtd"
   xmlns:inkscape="http://www.inkscape.org/namespaces/inkscape"
   width="297mm"
   height="420mm"
   viewBox="0 0 297 420"
   version="1.1"
   id="svg8"
   inkscape:version="0.92.3 (2405546, 2018-03-11)"
   sodipodi:docname="pyhep2020-poster.svg">
  <defs
     id="defs2">
    <clipPath
       id="SVGID_11_">
      <use
         height="100%"
         width="100%"
         y="0"
         x="0"
         xlink:href="#SVGID_10_"
         style="overflow:visible"
         id="use3625" />
    </clipPath>
    <clipPath
       id="SVGID_13_">
      <use
         height="100%"
         width="100%"
         y="0"
         x="0"
         xlink:href="#SVGID_12_"
         style="overflow:visible"
         id="use3631" />
    </clipPath>
    <clipPath
       id="SVGID_7_">
      <use
         height="100%"
         width="100%"
         y="0"
         x="0"
         xlink:href="#SVGID_6_"
         style="overflow:visible"
         id="use3601" />
    </clipPath>
    <clipPath
       id="SVGID_9_">
      <use
         height="100%"
         width="100%"
         y="0"
         x="0"
         xlink:href="#SVGID_8_"
         style="overflow:visible"
         id="use3607" />
    </clipPath>
    <clipPath
       id="clipPath4210">
      <use
         height="100%"
         width="100%"
         y="0"
         x="0"
         xlink:href="#SVGID_8_"
         style="overflow:visible"
         id="use4208" />
    </clipPath>
    <clipPath
       id="clipPath4214">
      <use
         height="100%"
         width="100%"
         y="0"
         x="0"
         xlink:href="#SVGID_8_"
         style="overflow:visible"
         id="use4212" />
    </clipPath>
    <linearGradient
       id="SVGID_5_"
       gradientUnits="userSpaceOnUse"
       x1="140.3149"
       y1="184.7627"
       x2="177.4247"
       y2="184.7627"
       gradientTransform="matrix(-0.00673163,1,-1,-0.00673163,344.6977,27.1403)">
      <stop
         offset="0"
         style="stop-color:#2BC4F3"
         id="stop3589" />
      <stop
         offset="0.5"
         style="stop-color:#00AEEE"
         id="stop3591" />
      <stop
         offset="1"
         style="stop-color:#0095DA"
         id="stop3593" />
    </linearGradient>
    <linearGradient
       id="SVGID_4_"
       gradientUnits="userSpaceOnUse"
       x1="136.2314"
       y1="184.49899"
       x2="181.4584"
       y2="184.49899">
      <stop
         offset="0"
         style="stop-color:#2BC4F3"
         id="stop3580" />
      <stop
         offset="0.5"
         style="stop-color:#00AEEE"
         id="stop3582" />
      <stop
         offset="1"
         style="stop-color:#0095DA"
         id="stop3584" />
    </linearGradient>
    <linearGradient
       id="SVGID_1_"
       gradientUnits="userSpaceOnUse"
       x1="132.30479"
       y1="184.7366"
       x2="185.43469"
       y2="184.7366">
      <stop
         offset="0"
         style="stop-color:#7C76B7"
         id="stop3413" />
      <stop
         offset="0.5"
         style="stop-color:#6561AB"
         id="stop3415" />
      <stop
         offset="1"
         style="stop-color:#483F99"
         id="stop3417" />
    </linearGradient>
    <rect
       id="SVGID_6_"
       x="120.28"
       y="135.03"
       width="109.75"
       height="147.67999" />
    <rect
       id="SVGID_8_"
       x="120.28"
       y="135.03"
       width="109.75"
       height="147.67999" />
    <rect
       id="SVGID_10_"
       x="117.28"
       y="131.45"
       width="119.65"
       height="158.28" />
    <rect
       id="SVGID_12_"
       x="117.28"
       y="131.45"
       width="119.65"
       height="158.28" />
    <clipPath
       id="SVGID_7_-1">
      <use
         height="100%"
         width="100%"
         y="0"
         x="0"
         id="use3601-3"
         style="overflow:visible"
         xlink:href="#SVGID_6_-4" />
    </clipPath>
    <clipPath
       id="SVGID_9_-1">
      <use
         height="100%"
         width="100%"
         y="0"
         x="0"
         id="use3607-2"
         style="overflow:visible"
         xlink:href="#SVGID_8_-9" />
    </clipPath>
    <clipPath
       id="clipPath4846">
      <use
         height="100%"
         width="100%"
         y="0"
         x="0"
         id="use4844"
         style="overflow:visible"
         xlink:href="#SVGID_8_-9" />
    </clipPath>
    <clipPath
       id="clipPath4850">
      <use
         height="100%"
         width="100%"
         y="0"
         x="0"
         id="use4848"
         style="overflow:visible"
         xlink:href="#SVGID_8_-9" />
    </clipPath>
    <clipPath
       id="SVGID_11_-0">
      <use
         height="100%"
         width="100%"
         y="0"
         x="0"
         id="use3625-6"
         style="overflow:visible"
         xlink:href="#SVGID_10_-2" />
    </clipPath>
    <clipPath
       id="SVGID_13_-8">
      <use
         height="100%"
         width="100%"
         y="0"
         x="0"
         id="use3631-7"
         style="overflow:visible"
         xlink:href="#SVGID_12_-4" />
    </clipPath>
    <rect
       height="147.67999"
       width="109.75"
       y="135.03"
       x="120.28"
       id="SVGID_6_-4" />
    <rect
       height="147.67999"
       width="109.75"
       y="135.03"
       x="120.28"
       id="SVGID_8_-9" />
    <rect
       height="158.28"
       width="119.65"
       y="131.45"
       x="117.28"
       id="SVGID_10_-2" />
    <rect
       height="158.28"
       width="119.65"
       y="131.45"
       x="117.28"
       id="SVGID_12_-4" />
    <rect
       height="64.959999"
       width="74.339996"
       y="151.11"
       x="122.68"
       id="SVGID_2_" />
    <rect
       id="SVGID_6_-6"
       x="120.28"
       y="135.03"
       width="109.75"
       height="147.67999" />
    <rect
       id="SVGID_8_-94"
       x="120.28"
       y="135.03"
       width="109.75"
       height="147.67999" />
    <rect
       id="SVGID_10_-6"
       x="117.28"
       y="131.45"
       width="119.65"
       height="158.28" />
    <rect
       id="SVGID_12_-9"
       x="117.28"
       y="131.45"
       width="119.65"
       height="158.28" />
  </defs>
  <sodipodi:namedview
     id="base"
     pagecolor="#ffffff"
     bordercolor="#666666"
     borderopacity="1.0"
     inkscape:pageopacity="0.0"
     inkscape:pageshadow="2"
     inkscape:zoom="0.35355339"
     inkscape:cx="574.57863"
     inkscape:cy="744.07372"
     inkscape:document-units="mm"
     inkscape:current-layer="layer1"
     showgrid="false"
     inkscape:window-width="1469"
     inkscape:window-height="1012"
     inkscape:window-x="2371"
     inkscape:window-y="32"
     inkscape:window-maximized="0"
     units="mm"
     inkscape:snap-nodes="false" />
  <metadata
     id="metadata5">
    <rdf:RDF>
      <cc:Work
         rdf:about="">
        <dc:format>image/svg+xml</dc:format>
        <dc:type
           rdf:resource="http://purl.org/dc/dcmitype/StillImage" />
        <dc:title></dc:title>
      </cc:Work>
    </rdf:RDF>
  </metadata>
  <g
     inkscape:label="Layer 1"
     inkscape:groupmode="layer"
     id="layer1"
     transform="translate(0,123)">
    <image
       sodipodi:absref="/home/pivarski/talks/pyhep2020-poster/pyhep2020-qr.png"
       xlink:href="pyhep2020-qr.png"
       width="52.916668"
       height="52.916668"
       preserveAspectRatio="none"
       style="image-rendering:optimizeSpeed"
       id="image951"
       x="230.23318"
       y="233.25841" />
    <text
       xml:space="preserve"
       style="font-style:normal;font-variant:normal;font-weight:normal;font-stretch:normal;font-size:26.83938217px;line-height:1.25;font-family:'DejaVu Sans';-inkscape-font-specification:'DejaVu Sans';text-align:start;letter-spacing:0px;word-spacing:0px;text-anchor:start;fill:#000000;fill-opacity:1;stroke:none;stroke-width:0.83873069"
       x="15.58372"
       y="-83.215202"
       id="text1811"><tspan
         sodipodi:role="line"
         id="tspan1809"
         x="15.58372"
         y="-83.215202"
         style="stroke-width:0.83873069">PyHEP 2020</tspan></text>
    <text
       xml:space="preserve"
       style="font-style:normal;font-variant:normal;font-weight:normal;font-stretch:normal;font-size:8.11219311px;line-height:1.25;font-family:'DejaVu Sans';-inkscape-font-specification:'DejaVu Sans';text-align:start;letter-spacing:0px;word-spacing:0px;text-anchor:start;fill:#000000;fill-opacity:1;stroke:none;stroke-width:0.25350603"
       x="45.866501"
       y="-67.638359"
       id="text1815"><tspan
         sodipodi:role="line"
         id="tspan1813"
         x="45.866501"
         y="-67.638359"
         style="stroke-width:0.25350603">Workshop on Python in High Energy Physics</tspan></text>
    <text
       xml:space="preserve"
       style="font-style:normal;font-variant:normal;font-weight:normal;font-stretch:normal;font-size:12.44494438px;line-height:1.25;font-family:'DejaVu Sans';-inkscape-font-specification:'DejaVu Sans';text-align:start;letter-spacing:0px;word-spacing:0px;text-anchor:start;fill:#000000;fill-opacity:1;stroke:none;stroke-width:0.38890451"
       x="50.106354"
       y="-45.333714"
       id="text1819"><tspan
         sodipodi:role="line"
         id="tspan1817"
         x="50.106354"
         y="-45.333714"
         style="stroke-width:0.38890451">July 11‒13 in Austin, Texas (USA)</tspan></text>
    <text
       xml:space="preserve"
       style="font-style:normal;font-variant:normal;font-weight:normal;font-stretch:normal;font-size:11.70322323px;line-height:1.25;font-family:'DejaVu Sans';-inkscape-font-specification:'DejaVu Sans';text-align:start;letter-spacing:0px;word-spacing:0px;text-anchor:start;fill:#000000;fill-opacity:1;stroke:none;stroke-width:0.36572573"
       x="67.846382"
       y="-26.227285"
       id="text1823"><tspan
         sodipodi:role="line"
         id="tspan1821"
         x="67.846382"
         y="-26.227285"
         style="stroke-width:0.36572573">Co-located with SciPy 2020</tspan></text>
    <text
       xml:space="preserve"
       style="font-style:normal;font-variant:normal;font-weight:normal;font-stretch:normal;font-size:5.94805145px;line-height:1.25;font-family:'DejaVu Sans';-inkscape-font-specification:'DejaVu Sans';text-align:start;letter-spacing:0px;word-spacing:0px;text-anchor:start;fill:#000000;fill-opacity:1;stroke:none;stroke-width:0.18587661"
       x="16.623569"
       y="-7.8377123"
       id="text1827"><tspan
         sodipodi:role="line"
         x="16.623569"
         y="-7.8377123"
         style="stroke-width:0.18587661"
         id="tspan1837">PyHEP is a series of workshops initiated and supported by the</tspan><tspan
         sodipodi:role="line"
         x="16.623569"
         y="-0.40264776"
         style="stroke-width:0.18587661"
         id="tspan1841">HEP Software Foundation (HSF) to discuss and promote the</tspan><tspan
         sodipodi:role="line"
         x="16.623569"
         y="7.0324163"
         style="stroke-width:0.18587661"
         id="tspan1869">use of Python in the HEP community.</tspan><tspan
         sodipodi:role="line"
         x="16.623569"
         y="14.467481"
         style="stroke-width:0.18587661"
         id="tspan1845" /><tspan
         sodipodi:role="line"
         x="16.623569"
         y="21.902546"
         style="stroke-width:0.18587661"
         id="tspan1847">PyHEP 2020 will be held on the University of Texas at Austin</tspan><tspan
         sodipodi:role="line"
         x="16.623569"
         y="29.337608"
         style="stroke-width:0.18587661"
         id="tspan1851">campus, right next door to SciPy 2020, the primary conference</tspan><tspan
         sodipodi:role="line"
         x="16.623569"
         y="36.772675"
         style="stroke-width:0.18587661"
         id="tspan1857">for the scientific Python community at large. SciPy 2020 will be</tspan><tspan
         sodipodi:role="line"
         x="16.623569"
         y="44.207737"
         style="stroke-width:0.18587661"
         id="tspan1861">held on July 6‒12, making it easy to attend both.</tspan><tspan
         sodipodi:role="line"
         x="16.623569"
         y="51.642803"
         style="stroke-width:0.18587661"
         id="tspan1871" /><tspan
         sodipodi:role="line"
         x="16.623569"
         y="59.077866"
         style="stroke-width:0.18587661"
         id="tspan1873">The PyHEP workshop will include</tspan><tspan
         sodipodi:role="line"
         x="16.623569"
         y="66.512932"
         style="stroke-width:0.18587661"
         id="tspan1875">    • a keynote presentation from the Data Science domain</tspan><tspan
         sodipodi:role="line"
         x="16.623569"
         y="73.947998"
         style="stroke-width:0.18587661"
         id="tspan5654">    • topical sessions</tspan><tspan
         sodipodi:role="line"
         x="16.623569"
         y="81.383057"
         style="stroke-width:0.18587661"
         id="tspan1877">    • hands-on tutorials</tspan><tspan
         sodipodi:role="line"
         x="16.623569"
         y="88.818123"
         style="stroke-width:0.18587661"
         id="tspan5660">    • lightning talks from participants</tspan><tspan
         sodipodi:role="line"
         x="16.623569"
         y="96.253189"
         style="stroke-width:0.18587661"
         id="tspan1879">    • follow-ups on the topics from PyHEP 2019.</tspan></text>
    <text
       xml:space="preserve"
       style="font-style:normal;font-variant:normal;font-weight:normal;font-stretch:normal;font-size:13.05736256px;line-height:1.25;font-family:'DejaVu Sans';-inkscape-font-specification:'DejaVu Sans';text-align:center;letter-spacing:0px;word-spacing:0px;text-anchor:middle;fill:#000000;fill-opacity:1;stroke:none;stroke-width:0.40804258"
       x="146.11296"
       y="124.50212"
       id="text1883"><tspan
         sodipodi:role="line"
         x="146.11296"
         y="124.50212"
         style="text-align:center;text-anchor:middle;stroke-width:0.40804258"
         id="tspan1885">All Python skill levels are welcome!</tspan></text>
    <text
       xml:space="preserve"
       style="font-style:normal;font-variant:normal;font-weight:normal;font-stretch:normal;font-size:10.04972458px;line-height:1.25;font-family:'DejaVu Sans';-inkscape-font-specification:'DejaVu Sans';text-align:start;letter-spacing:0px;word-spacing:0px;text-anchor:start;fill:#000000;fill-opacity:1;stroke:none;stroke-width:0.31405389"
       x="68.557358"
       y="145.08479"
       id="text1891"><tspan
         sodipodi:role="line"
         id="tspan1889"
         x="68.557358"
         y="145.08479"
         style="font-style:normal;font-variant:normal;font-weight:normal;font-stretch:normal;font-family:'DejaVu Sans Mono';-inkscape-font-specification:'DejaVu Sans Mono';fill:#0000ff;stroke-width:0.31405389">https://cern.ch/pyhep2020</tspan></text>
    <image
       sodipodi:absref="/home/pivarski/talks/pyhep2020-poster/hsf_logo_angled.png"
       xlink:href="hsf_logo_angled.png"
       y="234.20555"
       x="10.625931"
       id="image1936"
       style="image-rendering:optimizeQuality"
       preserveAspectRatio="none"
       height="53.773422"
       width="70.29126" />
    <rect
       style="opacity:1;vector-effect:none;fill:none;fill-opacity:1;fill-rule:evenodd;stroke:#000000;stroke-width:0.5291667;stroke-linecap:butt;stroke-linejoin:miter;stroke-miterlimit:4;stroke-dasharray:none;stroke-dashoffset:0;stroke-opacity:1"
       id="rect2496"
       width="297"
       height="420"
       x="0.0010191678"
       y="-122.993" />
    <g
       transform="matrix(0.26458252,0,0,0.26458252,95.45362,256.26116)"
       id="g2547">
      <path
         style="fill:#bf5700"
         inkscape:connector-curvature="0"
         d="m 60.666,3.3304 v 24.766 0.44407 c 0,9.3255 -0.91908,21.35 -8.1015,31.905 -1.4978,2.152 -3.1657,4.1674 -5.1741,6.1145 0,0 -0.03407,0.03415 -0.03407,0.03415 -3.9146,3.7575 -9.0546,7.3101 -16.407,11.409 -7.3526,-4.0991 -12.527,-7.6517 -16.407,-11.409 0,0 -0.03404,-0.03415 -0.03404,-0.03415 -2.008,-1.948 -3.71,-3.929 -5.1741,-6.115 -7.1824,-10.521 -8.1015,-22.579 -8.1015,-31.905 v -3.0743 -22.135 l 1.1914,-0.13664 c 0.1702,-0.0344 16.101,-2.0156 28.525,-2.0156 12.425,0 28.355,1.9812 28.525,2.0154 l 1.1914,0.13664 z"
         id="path2537" />
      <path
         style="fill:#ffffff"
         inkscape:connector-curvature="0"
         d="m 30.949,3.9453 c -9.259,0 -20.525,1.1273 -25.529,1.6738 l -1.4298,19.846 h 26.959 26.959 L 56.5142,5.6191 C 51.4762,5.0727 40.2082,3.9454 30.9492,3.9454 Z m 0,23.194 -26.994,1.504 c 10e-5,8.915 0.8852,20.393 7.625,30.265 1.396,2.016 2.996,3.927 4.902,5.772 5.923,5.465 12.595,8.472 14.467,9.258 1.872,-0.786 8.544,-3.793 14.467,-9.258 1.906,-1.845 3.507,-3.722 4.902,-5.772 6.706,-9.872 7.59,-21.35 7.59,-30.265 z"
         id="path2539" />
      <path
         style="fill:#bf5700"
         inkscape:connector-curvature="0"
         d="m 27.715,7.4631 c -1.3956,0 -2.8943,0.24074 -4.4601,0.4457 -1.736,0.27327 -3.5381,0.5107 -5.3422,0.5107 h -0.85116 v 3.5192 h -1.2597 v 2.049 h 1.2597 v 2.8011 h -1.2597 v 2.049 h 1.2597 v 3.8256 h 0.85116 c 1.9403,0 3.8445,-0.30552 5.6486,-0.57879 1.5658,-0.23912 3.0304,-0.47975 4.2558,-0.47975 1.0212,0 1.7705,0.13827 2.3492,0.4457 h 1.6342 c 0.57868,-0.30744 1.328,-0.4457 2.3492,-0.4457 1.2595,0 2.7209,0.24063 4.2527,0.47975 1.8382,0.27328 3.7455,0.57879 5.6517,0.57879 h 0.85116 v -3.8256 h 1.2597 v -2.049 h -1.2597 v -2.8011 h 1.2597 v -2.0149 h -1.2597 V 8.4196 H 44.0541 c -1.8041,0 -3.6093,-0.27158 -5.3453,-0.5107 -1.6,-0.2396 -3.096,-0.4462 -4.458,-0.4462 -1.2935,0 -2.3834,0.20602 -3.2685,0.61593 -0.885,-0.4099 -1.975,-0.6159 -3.269,-0.6159 z m 3.2344,21.078 c -0.03404,0 -0.06809,0.03395 -0.06809,0.0681 l -2.962,9.1183 h -9.5299 c -0.03404,0 -0.0681,0.003 -0.10214,0.03715 0,0.06833 1.4e-5,0.10214 0.06809,0.10214 l 7.7255,5.6362 -2.962,9.1864 c 0,0 8e-6,0.03404 0.03405,0.03404 h 0.03404 l 7.7967,-5.6703 7.7936,5.6703 h 0.03404 c 0.03404,-0.03417 0.03404,-0.06809 0,-0.06809 l -2.962,-9.1523 7.7286,-5.6362 c 0.03404,0 0.06808,-0.03382 0.03404,-0.10214 0,-0.03417 -0.03406,-0.03714 -0.06809,-0.03714 h -9.564 l -2.962,-9.1183 c 0,-0.03415 -0.03406,-0.06809 -0.0681,-0.06809 z m -17.599,1.8447 -0.54474,0.47665 c -1.3276,0.99062 -2.2471,2.4274 -2.5535,4.067 -0.1702,0.81982 -0.1702,1.6378 0,2.4235 -0.6461,-0.514 -1.3954,-0.889 -2.1783,-1.162 l -0.715,-0.204 -0.1702,0.715 c -0.37444,1.6396 -0.10198,3.3133 0.71498,4.7479 0.81696,1.4347 2.1793,2.4962 3.7451,2.9744 l 0.61284,0.17023 c 0.06808,0.51239 0.20431,1.0228 0.37451,1.5352 -0.88504,-0.58071 -1.9068,-0.92213 -2.962,-0.99044 L 8.95911,45.07115 v 0.75212 c -0.03404,1.6738 0.579,3.2458 1.6683,4.4756 1.1233,1.2297 2.6219,1.9804 4.2899,2.1171 l 0.64688,0.06809 c 0.1702,0.51239 0.40861,0.99219 0.68093,1.4021 -0.71484,-0.27328 -1.4982,-0.41165 -2.2811,-0.41165 -0.27232,0 -0.5448,-1.03e-4 -0.81712,0.03404 l -0.71498,0.10213 0.13618,0.71807 c 0.30636,1.6396 1.2259,3.0764 2.5875,4.067 1.1233,0.81982 2.4176,1.2288 3.8132,1.2288 0.27232,2e-6 0.5448,1.05e-4 0.81712,-0.03404 l 0.64379,-0.0681 c 0.27232,0.44407 0.57886,0.85302 0.9533,1.2288 -1.0212,-0.1708 -2.108,-0.06922 -3.0951,0.27237 l -0.68093,0.24142 0.27237,0.68093 c 0.64676,1.5372 1.8357,2.768 3.3335,3.417 0.851,0.37575 1.7365,0.58189 2.6216,0.58189 0.71484,0 1.4641,-0.13849 2.1449,-0.37761 l 0.5107,-0.17023 c 0.851,0.71735 1.8047,1.4362 3.1323,2.3585 -0.61272,0.40991 -1.2599,0.81852 -2.0087,1.3309 l 1.2938,0.78616 c 0.71484,-0.47824 1.362,-0.89004 1.9407,-1.3 0.57868,0.37576 1.2258,0.82172 1.9407,1.3 l 1.2938,-0.78616 c -0.74888,-0.47823 -1.396,-0.921 -2.0087,-1.3309 1.3276,-0.9223 2.2813,-1.6412 3.1323,-2.3585 l 0.5076,0.17023 c 0.6808,0.23912 1.4301,0.37761 2.1449,0.37761 0.91908,0 1.8046,-0.20613 2.6216,-0.58189 1.4978,-0.68319 2.6898,-1.8799 3.3366,-3.417 L 44.08932,61.265 43.40839,61.02358 c -0.98716,-0.34159 -2.077,-0.44317 -3.0982,-0.27237 0.37444,-0.37575 0.68098,-0.7847 0.9533,-1.2288 l 0.64688,0.0681 c 0.27232,0.03415 0.5448,0.03404 0.81712,0.03404 1.3956,0 2.6899,-0.40895 3.8132,-1.2288 1.3276,-0.99062 2.2471,-2.4274 2.5875,-4.067 l 0.13619,-0.71807 -0.71498,-0.10213 c -0.27232,-0.03415 -0.54479,-0.03404 -0.81712,-0.03404 -0.78292,0 -1.5322,0.13838 -2.2811,0.41165 0.27232,-0.44407 0.51073,-0.92387 0.68093,-1.4021 l 0.64688,-0.06809 c 1.668,-0.13663 3.1665,-0.88734 4.2899,-2.1171 1.1233,-1.2297 1.6993,-2.8359 1.6652,-4.4756 v -0.75212 l -0.74902,0.06809 c -1.0552,0.06832 -2.0739,0.4439 -2.959,0.99044 0.20424,-0.47823 0.30645,-1.0228 0.37451,-1.5352 l 0.74902,-0.17023 c 1.5999,-0.47823 2.9251,-1.5397 3.742,-2.9744 0.81696,-1.4347 1.0894,-3.1083 0.71498,-4.7479 l -0.17023,-0.71498 -0.71498,0.20428 c -0.81696,0.23912 -1.5291,0.64829 -2.1759,1.1607 0.13616,-0.78566 0.13616,-1.6037 0,-2.4235 -0.30637,-1.6396 -1.2259,-3.0764 -2.5535,-4.067 l -0.57879,-0.4426 -0.37451,0.61284 c -0.88505,1.4005 -1.1916,3.0742 -0.88521,4.7139 0.30636,1.6396 1.2259,3.0423 2.5535,4.033 -0.23828,0.54655 -0.40858,1.1619 -0.5107,1.7426 -0.40848,-1.0931 -1.0556,-2.0496 -1.9747,-2.8011 l -0.582,-0.481 -0.442,0.616 c -0.95312,1.3664 -1.3959,3.0062 -1.1576,4.6458 0.20424,1.6396 1.0557,3.1412 2.3152,4.2001 l 0.03404,0.03404 c -0.37444,0.5124 -0.68096,1.0596 -0.8852,1.6745 -0.1702,-1.1273 -0.61298,-2.2192 -1.3619,-3.1756 l -0.4426,-0.58189 -0.54474,0.5107 c -1.2254,1.1273 -1.9747,2.6657 -2.1109,4.3053 -0.13616,1.6396 0.37471,3.2797 1.3959,4.5777 l 0.03404,0.03404 c -0.47656,0.40991 -0.88528,0.92375 -1.2257,1.4361 0.06808,-1.1614 -0.13628,-2.324 -0.68093,-3.383 L 41.2267,52.4829 40.57982,52.86051 c -1.4297,0.85398 -2.4855,2.1861 -2.962,3.7915 -0.47656,1.6055 -0.30627,3.279 0.44261,4.782 v 0.03404 c -0.54464,0.30743 -1.0555,0.7166 -1.464,1.1607 0.30636,-1.1273 0.34041,-2.2897 0.03404,-3.4511 l -0.17023,-0.71498 -0.68093,0.23832 c -1.5658,0.54655 -2.857,1.6387 -3.6739,3.1075 -0.74888,1.4005 -0.95323,3.0404 -0.57879,4.6118 -0.20424,0.13663 -0.44264,0.30907 -0.64688,0.4457 -0.23828,-0.1708 -0.44264,-0.30907 -0.64688,-0.4457 0.37444,-1.5713 0.17009,-3.2112 -0.57879,-4.6118 -0.7829,-1.4688 -2.0771,-2.561 -3.677,-3.1075 l -0.68093,-0.23832 -0.17023,0.71498 c -0.30636,1.1273 -0.27231,2.3238 0.03404,3.4511 -0.44252,-0.44407 -0.91937,-0.85324 -1.498,-1.1607 L 23.696,61.43401 c 0.74888,-1.503 0.88512,-3.1765 0.44261,-4.782 -0.47656,-1.6055 -1.5324,-2.9376 -2.962,-3.7915 l -0.64688,-0.37761 -0.34047,0.64998 c -0.54464,1.0589 -0.74591,2.2216 -0.67784,3.383 -0.3404,-0.54655 -0.74912,-1.0262 -1.2257,-1.4361 l 0.03405,-0.03404 c 1.0212,-1.2981 1.5321,-2.938 1.3959,-4.6118 -0.13616,-1.6738 -0.88545,-3.1781 -2.1109,-4.3053 l -0.54476,-0.51071 -0.4426,0.58189 c -0.74888,0.9223 -1.1917,2.0142 -1.3619,3.1756 -0.207,-0.58 -0.513,-1.162 -0.888,-1.674 l 0.03405,-0.03404 c 1.2935,-1.0589 2.1109,-2.5605 2.3152,-4.2001 0.20424,-1.6396 -0.20446,-3.3136 -1.1576,-4.6458 l -0.4426,-0.61593 -0.57879,0.47975 c -0.91908,0.75151 -1.6003,1.708 -1.9747,2.8011 -0.06808,-0.61487 -0.23838,-1.196 -0.5107,-1.7426 1.3276,-0.99062 2.2471,-2.4275 2.5535,-4.033 0.30636,-1.6396 -1.72e-4,-3.3134 -0.88521,-4.7139 l -0.37451,-0.61284 z"
         id="path2541" />
      <path
         style="fill:#ffffff"
         inkscape:connector-curvature="0"
         d="m 27.681,9.1376 c -1.2595,0 -2.69,0.20349 -4.2218,0.44261 -1.3616,0.20496 -2.7209,0.37727 -4.1506,0.47975 l -0.37451,10.83 c 1.4297,-0.06832 2.8911,-0.27468 4.3208,-0.51379 1.5999,-0.23912 3.1326,-0.47975 4.5282,-0.47975 0.74888,0 1.396,0.07073 1.9747,0.20737 l 0.30642,-9.0533 v -1.5042 c -0.612,-0.2732 -1.395,-0.4084 -2.383,-0.4084 z m 6.5369,0 c -0.98716,0 -1.7365,0.13528 -2.3833,0.40856 v 1.5042 l 0.30642,9.0533 c 0.57868,-0.13663 1.2258,-0.20737 1.9747,-0.20737 1.3956,0 2.9252,0.24063 4.5251,0.47975 1.4297,0.23912 2.8942,0.44548 4.3239,0.51379 l -0.374,-10.83 c -1.43,-0.1026 -2.826,-0.2749 -4.154,-0.4798 -1.532,-0.2391 -2.959,-0.4426 -4.219,-0.4426 z m -21.208,23.331 c -0.74888,0.7515 -1.2257,1.6742 -1.43,2.699 -0.1702,1.0248 -0.06801,2.0831 0.34047,3.0054 0.74888,-0.7515 1.2257,-1.6742 1.43,-2.699 0.1702,-1.0248 0.06801,-2.0489 -0.34046,-3.0054 z m 35.777,0 c -0.40848,0.95646 -0.5447,2.0146 -0.34046,3.0394 0.20424,1.0248 0.71512,1.9475 1.43,2.699 0.40848,-0.95646 0.5447,-2.0146 0.34047,-3.0394 -0.20424,-1.0248 -0.71512,-1.9816 -1.43,-2.699 z m -17.837,2.5287 -1.7704,4.4384 -4.8006,0.34356 3.7111,3.0735 -1.1916,4.6458 4.0515,-2.5628 4.0515,2.5628 -1.1916,-4.6458 3.6739,-3.0735 -4.7634,-0.30952 -1.7704,-4.4725 z m -22.536,2.801 c -0.068079,1.0248 0.17033,2.0832 0.68093,2.9713 0.5106,0.88814 1.2939,1.6049 2.213,2.049 0.10212,-1.0248 -0.13629,-2.049 -0.68093,-2.9713 -0.5106,-0.88814 -1.2939,-1.6049 -2.213,-2.049 z m 45,0 c -0.95312,0.44407 -1.6993,1.1608 -2.2099,2.049 -0.51059,0.9223 -0.74901,1.9466 -0.68093,2.9713 0.91908,-0.44407 1.6993,-1.1608 2.2099,-2.049 0.5106,-0.9223 0.74901,-1.9466 0.68093,-2.9713 z m -38.497,2.5597 c -0.6808,0.78566 -1.1236,1.7423 -1.2597,2.7671 -0.13616,1.0248 0.03414,2.0831 0.5107,3.0054 0.6808,-0.78567 1.1236,-1.7392 1.2597,-2.764 0.13616,-1.0589 -0.03414,-2.0862 -0.5107,-3.0085 z m 31.998,0 c -0.47656,0.9223 -0.64686,1.9837 -0.5107,3.0085 0.13616,1.0248 0.57892,1.9783 1.2597,2.764 0.47656,-0.9223 0.64686,-1.9806 0.5107,-3.0054 -0.13616,-1.0248 -0.57892,-1.9814 -1.2597,-2.7671 z m -36.526,6.2522 c 0.1702,1.0248 0.61297,1.9814 1.2938,2.7671 0.6808,0.78566 1.6004,1.3333 2.5875,1.5383 C 14.1,49.8908 13.65723,48.9 12.9764,48.1485 12.2956,47.39699 11.376,46.8493 10.3889,46.6102 Z m 41.02,0 c -0.98716,0.23912 -1.8727,0.75262 -2.5875,1.5383 -0.71483,0.78566 -1.1576,1.7423 -1.2938,2.7671 0.98716,-0.23912 1.9067,-0.75262 2.5875,-1.5383 0.71484,-0.75151 1.1576,-1.7081 1.2938,-2.7671 z m -6.8774,1.1607 c -0.64676,0.81982 -1.0555,1.7762 -1.1235,2.8351 -0.06808,1.0589 0.17032,2.0832 0.64688,2.9713 0.64676,-0.81982 1.0555,-1.8104 1.1235,-2.8351 C 45.2805,49.6833 45.0421,48.659 44.5315,47.7709 Z m -27.265,0.03404 c -0.5106,0.88814 -0.71497,1.9124 -0.68093,2.9713 0.10212,1.0589 0.47678,2.0153 1.1235,2.8351 0.5106,-0.88814 0.74901,-1.9124 0.68093,-2.9713 -0.10212,-1.0589 -0.47678,-2.0153 -1.1235,-2.8351 z m 3.8442,6.7629 c -0.30636,0.99062 -0.34041,2.0519 -0.03404,3.0425 0.30636,0.99062 0.88536,1.8766 1.6683,2.5256 0.30636,-0.99062 0.34041,-2.0488 0.03406,-3.0394 -0.30636,-0.99062 -0.88536,-1.8797 -1.6683,-2.5287 z m 19.574,0 c -0.78292,0.64903 -1.3619,1.5381 -1.6683,2.5287 -0.30636,0.99062 -0.27231,2.0488 0.03404,3.0394 0.78292,-0.64903 1.3619,-1.535 1.6683,-2.5256 0.30636,-0.99062 0.27231,-2.0519 -0.03404,-3.0425 z m -26.55,0.30952 c 0.37444,0.95646 0.98751,1.8086 1.8385,2.4235 0.851,0.61487 1.8387,0.92213 2.8259,0.99044 -0.3404,-0.99062 -0.95347,-1.8086 -1.8045,-2.4235 -0.851,-0.61487 -1.8387,-0.95628 -2.8599,-0.99044 z m 33.496,0 c -1.0212,0.03415 -2.0089,0.37558 -2.8599,0.99044 -0.81696,0.61487 -1.4641,1.4329 -1.8045,2.4235 1.0212,-0.03415 2.0089,-0.37558 2.8599,-0.99044 0.851,-0.61487 1.4641,-1.467 1.8045,-2.4235 z m -12.117,5.5001 c -0.88504,0.47823 -1.6343,1.2288 -2.1449,2.1511 -0.5106,0.9223 -0.71495,1.9466 -0.57879,2.9713 0.91908,-0.47823 1.6684,-1.2288 2.1449,-2.1511 0.47656,-0.9223 0.68091,-1.9466 0.57879,-2.9713 z m -9.2266,0.03404 c -0.10212,1.0248 0.10223,2.0491 0.57879,2.9373 0.47656,0.9223 1.2259,1.6729 2.1449,2.1511 0.10212,-1.0248 -0.10223,-2.049 -0.57879,-2.9713 -0.47656,-0.88814 -1.2259,-1.6388 -2.1449,-2.1171 z m -5.9736,1.6311 c -0.25424,0.0074 -0.5092,0.03467 -0.7645,0.07738 0.54464,0.88814 1.3249,1.605 2.278,2.0149 0.91908,0.40991 1.9749,0.54531 2.9961,0.37451 -0.54464,-0.88814 -1.328,-1.605 -2.2811,-2.0149 -0.71484,-0.33305 -1.4658,-0.47431 -2.2285,-0.45189 z m 21.202,0.0062 c -0.77068,-0.01442 -1.5361,0.13827 -2.2254,0.4457 -0.95312,0.44407 -1.7365,1.1268 -2.2811,2.0149 0.30636,0.03415 0.6129,0.06809 0.91926,0.06809 0.71484,0 1.4301,-0.13516 2.0768,-0.4426 0.95312,-0.44407 1.7365,-1.1268 2.2811,-2.0149 -0.2553,-0.04269 -0.51379,-0.06638 -0.77069,-0.07118 z"
         id="path2543" />
      <path
         style="fill:#bf5700"
         inkscape:connector-curvature="0"
         d="m 329.27,4.2534 c -12.22,2.562 -21.038,8.1982 -21.038,17.831 0,7.8566 5.2103,11.92 11.542,14.652 l 10.653,4.6799 c 5.2762,2.2887 9.1554,5.7402 9.1554,11.752 0,6.4561 -4.3904,11.204 -11.947,11.204 -4.9358,0 -9.7688,-2.2889 -12.39,-5.5682 l -3.0642,-7.515 h -6.1593 l 1.9376,11.922 c 4.6635,3.6892 10.11,6.0108 18.212,6.0108 16.543,-3.4501 22.161,-11.477 22.161,-19.778 0,-9.0181 -6.0585,-13.426 -13.003,-16.432 l -10.112,-4.4044 c -4.8337,-2.1179 -8.2702,-5.125 -8.2702,-9.9756 0,-5.9096 4.1179,-9.7002 11.096,-9.7002 5.2762,2e-7 8.1004,1.9451 10.381,4.3363 l 2.5535,8.0288 h 4.392 V 9.3748 c -4.39,-3.2782 -10.55,-5.1214 -16.1,-5.1214 z m -53.58,0.71807 -5.2741,1.5011 -21.821,57.217 -4.2218,0.58189 -4.2187,-0.64998 -19.54,-28.865 18.042,-24.9 6.8743,-0.9564 -0.44259,-3.0766 -10.279,0.27547 -10.279,-0.27547 -0.44259,3.0766 7.6574,1.1607 -13.956,20.598 -12.424,-20.666 7.4871,-1.1607 -0.44261,-3.0766 -12.492,0.34356 -12.594,-0.34356 -0.44261,3.0766 6.8774,0.9564 18.209,27.633 -18.992,26.234 -6.8774,0.9564 0.44261,3.1787 9.8364,-0.27547 10.282,0.27547 0.44259,-3.1787 -7.2178,-1.0585 15.011,-21.997 13.684,21.929 -7.4872,1.1607 0.44261,3.1787 12.594,-0.27547 10.279,0.20738 7.2179,-0.20738 10.551,0.27547 0.44261,-3.0766 -7.6574,-1.1607 5.7167,-16.5 h 21.719 l 5.9922,16.5 -7.4902,1.1607 0.44261,3.0766 11.607,-0.27547 12.155,0.27547 0.44261,-3.0766 -6.8774,-0.9564 -22.978,-58.82 z M 76.8,5.75454 v 15.612 h 3.4387 l 4.0484,-11.204 13.176,-0.17023 v 53.493 l -10.554,1.1607 0.4426,3.0735 14.773,-0.27237 14.262,0.27237 0.4426,-3.0735 -10.109,-1.1607 v -53.493 l 13.173,0.17023 4.0515,11.204 h 3.4387 v -15.612 l -25.328,0.27547 -25.256,-0.27547 z m 55.858,0 -0.44261,3.0766 7.9328,1.1607 v 53.493 l -7.9328,1.1607 0.44261,3.0735 12.155,-0.27237 34.922,0.27237 3.0642,-16.327 h -3.3366 l -5.887,11.922 -24.204,0.27237 v -26.507 l 12.325,0.37451 3.5037,9.2576 h 3.0982 l -0.8852,-11.922 0.8852,-11.031 h -3.0982 l -3.5037,9.2545 -12.325,0.37761 v -23.501 l 23.319,0.27237 4.9367,11.477 h 2.993 L 179.7351,5.755 144.8131,6.03047 132.6581,5.755 Z m -105.11,5.0014 c -0.96535,-0.0096 -1.9927,0.10627 -3.0394,0.25999 v 1.399 c 1.4637,-0.20496 2.792,-0.3408 3.9494,-0.23833 l 0.03404,-1.365 c -0.30636,-0.03416 -0.62223,-0.05251 -0.94402,-0.05571 z m 7.481,0.03405 c -0.56166,-0.02989 -1.1066,-0.02957 -1.6342,0.02167 l 0.03404,1.365 c 0.98716,-0.06832 2.108,-5.63e-4 3.3335,0.17023 v -1.399 c -0.5957,-0.06832 -1.1716,-0.12796 -1.7333,-0.15785 z m 2.7547,0.25999 v 1.4021 c 0.23828,0.03416 0.44265,0.06798 0.68093,0.10214 0.88504,0.13664 1.7706,0.27203 2.6897,0.37451 l -0.03405,-1.399 c -0.81696,-0.10248 -1.6344,-0.20692 -2.4514,-0.34356 -0.30636,-0.03416 -0.57885,-0.06787 -0.88521,-0.13619 z m -14.296,0.10214 c -0.10212,0.03416 -0.17025,0.03405 -0.27237,0.03405 -0.81696,0.13664 -1.6344,0.24108 -2.4514,0.34356 l -0.03406,1.399 c 0.91908,-0.10248 1.8046,-0.23788 2.6897,-0.37451 h 0.0681 v -1.4021 z m 3.6987,2.7485 c -1.2334,0.03683 -2.5499,0.22527 -3.903,0.43022 v 1.399 c 0.06808,0 0.10215,1.19e-4 0.17023,-0.03406 1.8382,-0.27328 3.5071,-0.51104 4.9027,-0.40856 l 0.03404,-1.3681 c -0.39145,-0.02561 -0.79286,-0.03084 -1.204,-0.01856 z m 6.345,0.01857 0.03404,1.3681 c 0.88504,-0.06832 1.8697,-4.49e-4 2.9249,0.13619 v -1.3681 c -1.0552,-0.10248 -2.0399,-0.17035 -2.9589,-0.13619 z m 3.9804,0.23833 v 1.4021 c 0.30636,0.03415 0.64694,0.10204 0.9533,0.13619 0.91908,0.13663 1.8387,0.27203 2.7918,0.37451 l -0.03405,-1.399 c -0.851,-0.10248 -1.7025,-0.23799 -2.5535,-0.34047 -0.37444,-0.06832 -0.78314,-0.10501 -1.1576,-0.17333 z m -15.284,0.30951 c -0.5106,0.06832 -1.0555,0.13596 -1.5661,0.20428 l -0.03405,1.399 1.6342,-0.20428 v -1.399 h -0.03404 z m 248.94,1.8788 9.598,26.473 h -18.723 l 9.1245,-26.473 z m -237.53,0.68093 0.03404,1.3681 c 1.1233,-0.06832 2.4485,0.06741 3.8442,0.27237 v -1.365 c -1.362,-0.204 -2.687,-0.343 -3.878,-0.275 z m -5.3794,0.03406 c -1.1574,-0.06832 -2.4176,0.07061 -3.7451,0.24142 v 1.399 c 1.3616,-0.20496 2.6218,-0.34069 3.7111,-0.27237 l 0.03404,-1.3681 z m 10.313,0.34356 v 1.433 h -0.03404 c 0.91908,0.13663 1.8728,0.27512 2.8599,0.37761 l -0.03404,-1.4021 c -0.91908,-0.10248 -1.8046,-0.23788 -2.6556,-0.37451 -0.03404,0 -0.06811,1.19e-4 -0.13619,-0.03406 z m -15.08,0.03405 c -0.10212,0 -0.17025,0.03404 -0.23833,0.03404 -0.88504,0.13663 -1.7706,0.27203 -2.6556,0.37451 l -0.03406,1.4021 c 0.98716,-0.10248 1.9749,-0.24097 2.928,-0.37761 h 0.06809 v -1.433 h -0.06809 z m 75.515,63.967 -2.0118,0.23214 -4.5994,0.03404 -5.3855,-0.03404 v 3.2189 h 0.71498 l 0.85116,-2.2904 2.829,-0.065 v 11.056 l -2.2502,0.23213 0.10214,0.63141 3.1385,-0.06809 3.0301,0.06809 0.10524,-0.63141 -2.148,-0.23213 v -11.056 l 3.8163,0.065 0.68093,-0.09904 v 11.189 l -1.1235,0.16714 0.10214,0.62831 1.9778,-0.065 1.7704,0.065 0.10213,-0.62831 -1.0214,-0.16714 v -5.4134 l 0.54474,-0.33118 c 0.68163,-0.4316 1.3984,-0.8295 1.9778,-0.8295 0.74979,0 1.1916,0.39907 1.1916,1.3619 v 5.2122 l -0.91926,0.16714 0.10213,0.62831 1.7704,-0.065 2.114,0.03404 0.10214,-0.63141 -1.3959,-0.16714 v -4.847 c 0,-2.324 -0.40922,-3.188 -2.7949,-3.188 l -2.7268,1.7271 v -5.9086 h -0.64689 z m 203.57,0.065 -1.1266,0.30023 -4.6334,11.817 -1.4671,0.20118 0.10205,0.63141 2.0118,-0.0681 2.2502,0.0681 0.10222,-0.63141 -1.6373,-0.23214 1.2288,-3.4201 v 0.03404 h 4.5994 l 1.2597,3.417 -1.6002,0.23523 0.10205,0.62831 2.4885,-0.065 2.5906,0.065 0.10206,-0.62831 -1.4671,-0.20118 -4.9058,-12.152 z m -82.718,0.06807 -1.5661,1.7271 c -0.68163,0.73039 -1.0214,1.4579 -1.0214,2.5535 v 0.16714 h -1.0926 l -0.57878,0.63141 v 0.29713 h 1.6373 v 6.7412 l -1.3309,0.16714 0.10205,0.62831 2.148,-0.065 2.8971,0.065 0.10221,-0.69641 -2.148,-0.13308 v -6.7381 h 2.3523 V 86.0203 h -2.3523 v -0.46427 c 0,-1.1952 0.13597,-1.7263 0.40856,-2.0583 l 0.37451,-0.49832 h 2.4204 v -1.4609 h -2.3523 z m -100.34,0.09904 -0.10213,0.63141 1.7054,0.23214 v 7.4036 c 0,2.9216 1.3303,4.847 5.011,4.847 3.7489,-0.86318 4.7356,-2.4226 4.7356,-4.8129 v -7.4376 l 1.6033,-0.23214 -0.10213,-0.63141 -2.1821,0.065 -2.3864,-0.065 -0.10214,0.63141 1.6373,0.19809 v 7.6357 c 0,2.3572 -1.0906,3.6182 -3.0332,3.6182 -2.1471,-10e-7 -3.1354,-1.2926 -3.1354,-3.5501 v -7.6698 l 1.6002,-0.23214 -0.10214,-0.63141 -2.5566,0.065 -2.5906,-0.065 z m 107.73,0.03404 v 3.2189 h 0.74901 l 0.85116,-2.3245 2.829,-0.03095 v 11.053 l -2.2471,0.23523 0.10222,0.62831 3.1354,-0.065 3.0332,0.065 0.0681,-0.62831 -2.148,-0.23523 v -11.053 l 2.829,0.03095 0.85116,2.3245 h 0.71498 v -3.2189 l -5.3824,0.065 -5.3855,-0.065 z m -81.08,0.03095 -1.3619,0.10214 -0.17023,0.86045 0.10213,1.0307 0.5107,0.09904 1.3278,-0.09904 0.20428,-0.86354 -0.10214,-1.0276 -0.5107,-0.10214 z m 38.819,0 -1.365,0.10214 -0.17023,0.86045 0.10206,1.0307 0.51379,0.09904 1.3278,-0.09904 0.20428,-0.86354 -0.10205,-1.0276 -0.51071,-0.10213 z m 151.53,0 -1.365,0.10214 -0.17023,0.86045 0.10206,1.0307 0.5107,0.09904 1.3309,-0.09904 0.20428,-0.86354 -0.10221,-1.0276 -0.51069,-0.10214 z m -34.765,1.7611 0.13612,0.99664 1.7735,4.8129 h -3.9865 l 2.0768,-5.8096 z m -111.65,0.09904 -1.2288,1.1947 v 1.1947 h -1.2257 l -0.64688,0.63141 v 0.30023 h 1.8045 v 5.4444 c 0,1.66 0.27332,2.3894 2.3864,2.3894 l 2.3523,-1.2597 -0.30642,-0.63141 c -0.51121,0.2324 -1.092,0.49832 -1.6373,0.49832 -0.78388,0 -0.98736,-0.56449 -0.98736,-1.0957 v -5.5774 h 2.829 l 3.1354,7.7007 0.74903,-0.23214 -1.8757,2.7547 h -1.6002 v 1.8261 0.06809 h 2.2502 l 2.1109,-4.6149 3.0332,-7.4717 1.1947,-0.19809 -0.10205,-0.63141 -1.5692,0.06809 -1.6342,-0.06809 -0.10222,0.63141 0.85117,0.19809 -2.3183,6.6081 -0.13613,-1.2628 -2.0799,-5.3453 1.2288,-0.19809 -0.10206,-0.63141 h -5.8962 v -2.2904 h -0.47665 z m 98.085,0 -1.2288,1.1947 v 1.1947 h -1.2257 l -0.64689,0.63141 v 0.30023 h 1.8045 v 5.4444 c 0,1.66 0.27332,2.3894 2.3864,2.3894 l 2.1821,-1.1947 -0.30642,-0.63141 c -0.5453,0.2324 -0.95585,0.43332 -1.5012,0.43332 -0.78386,-10e-7 -0.98734,-0.56448 -0.98734,-1.0957 v -5.3453 h 2.829 v -0.8295 h -2.829 v -2.4916 h -0.47667 z m 41.271,0 -1.2257,1.1947 v 1.1947 h -1.2257 l -0.64998,0.63141 v 0.30023 h 1.8076 v 5.4444 c 0,1.66 0.27331,2.3894 2.3864,2.3894 l 2.179,-1.1947 -0.30642,-0.63141 c -0.51121,0.2324 -0.91871,0.43332 -1.464,0.43332 -0.78387,0 -0.98735,-0.56448 -0.98735,-1.0957 v -5.3453 h 2.7918 v -0.8295 h -2.8259 v -2.4916 h -0.47976 z m -151.28,1.9252 c -2.1812,0.46479 -3.4077,1.196 -3.4077,2.4575 0,1.0292 0.7482,1.7249 1.5661,2.1233 l 1.4671,0.7645 c 0.98835,0.498 1.3619,0.83181 1.3619,1.529 0,0.76359 -0.50971,1.3928 -1.4981,1.3928 -0.57939,0 -1.1262,-0.19867 -1.5352,-0.46427 l -0.64688,-1.529 h -1.1947 l 0.34357,2.0614 c 0.51122,0.2656 1.7011,0.8295 2.8599,0.8295 2.1471,-0.46479 3.513,-1.0637 3.513,-2.7237 0,-1.0292 -0.51253,-1.7246 -1.7735,-2.3554 l -1.43,-0.6995 c -0.81795,-0.3984 -1.2969,-0.76117 -1.2969,-1.3588 0,-0.66399 0.71735,-1.0647 1.433,-1.0647 0.68162,0 1.2255,0.29967 1.43,0.39927 l 0.47665,1.2938 h 0.99044 v -1.8261 c -0.5453,-0.3984 -1.6363,-0.8295 -2.6587,-0.8295 z m 90.381,0 c -2.1812,0.46479 -3.4077,1.196 -3.4077,2.4575 0,1.0292 0.75129,1.7249 1.5692,2.1233 l 1.464,0.7645 c 0.98835,0.498 1.365,0.83181 1.365,1.529 0,0.76359 -0.51278,1.3928 -1.5011,1.3928 -0.57939,0 -1.1231,-0.19867 -1.5321,-0.46427 l -0.64999,-1.529 h -1.1916 l 0.34046,2.0614 c 0.51121,0.2656 1.7383,0.8295 2.863,0.8295 2.1471,-0.46479 3.5099,-1.0637 3.5099,-2.7237 0,-1.0292 -0.50942,-1.7246 -1.7704,-2.3554 l -1.433,-0.6995 c -0.81795,-0.3984 -1.2938,-0.76117 -1.2938,-1.3588 0,-0.66399 0.71425,-1.0647 1.43,-1.0647 0.68163,0 1.2286,0.29967 1.433,0.39927 l 0.47665,1.2938 h 0.98736 v -1.8261 c -0.5453,-0.3984 -1.6363,-0.8295 -2.6587,-0.8295 z m 54.326,0 c -2.1812,0.4648 -3.4078,1.196 -3.4078,2.4575 0,1.0292 0.7513,1.7249 1.5692,2.1233 l 1.464,0.7645 c 0.95426,0.498 1.365,0.83181 1.365,1.529 0,0.76359 -0.51278,1.3928 -1.5011,1.3928 -0.57937,0 -1.1231,-0.19867 -1.5321,-0.46427 l -0.64998,-1.529 h -1.1916 l 0.34046,2.0614 c 0.51122,0.26559 1.7042,0.8295 2.863,0.8295 2.1471,-0.4648 3.5099,-1.0637 3.5099,-2.7237 0,-1.0292 -0.50943,-1.7246 -1.7704,-2.3554 l -1.433,-0.6995 c -0.81795,-0.39839 -1.2938,-0.76117 -1.2938,-1.3588 0,-0.66399 0.71424,-1.0647 1.43,-1.0647 0.68163,0 1.2626,0.29967 1.433,0.39927 l 0.47665,1.2938 h 0.98736 v -1.8261 c -0.55,-0.398 -1.64,-0.83 -2.66,-0.83 z m -211.27,0.06809 c -2.5561,0.5312 -4.228,1.9907 -4.228,4.6799 0,2.8884 2.0466,4.4477 4.3301,4.4477 1.1928,-0.2988 2.3854,-0.82926 3.2716,-1.4269 l -0.30642,-0.69641 c -0.7157,0.4316 -1.6025,0.7645 -2.3523,0.7645 -1.9426,0 -3.1013,-1.4616 -3.1013,-3.5532 v -0.03404 h 5.692 v -0.7645 c 0,-1.8924 -0.81769,-3.417 -3.3056,-3.417 z m 50.677,0 c -2.5561,0.53119 -4.2248,1.9907 -4.2248,4.6799 0,2.8884 2.0435,4.4477 4.327,4.4477 1.1928,-0.2988 2.3886,-0.82926 3.2747,-1.4269 l -0.30951,-0.69641 c -0.71572,0.4316 -1.5994,0.7645 -2.3492,0.7645 -1.9426,0 -3.1013,-1.4616 -3.1013,-3.5532 v -0.03404 h 5.692 v -0.7645 c 0,-1.8924 -0.82077,-3.417 -3.3087,-3.417 z m 48.293,0 c -2.8969,0.49799 -4.5994,2.0233 -4.5994,4.7789 0,2.4568 1.7029,4.3487 4.1908,4.3487 2.8969,-0.4648 4.6025,-2.0225 4.6025,-4.7448 0,-2.49 -1.6719,-4.3827 -4.1939,-4.3827 z m 30.877,0 c -2.5561,0.53119 -4.2249,1.9907 -4.2249,4.6799 0,2.8884 2.0095,4.4477 4.293,4.4477 1.1928,-0.2988 2.3886,-0.82926 3.2747,-1.4269 l -0.30951,-0.69641 c -0.7157,0.4316 -1.5994,0.7645 -2.3492,0.7645 -1.9426,0 -3.1013,-1.4616 -3.1013,-3.5532 v -0.03404 h 5.726 v -0.7645 c 0,-1.8924 -0.82077,-3.417 -3.3087,-3.417 z m 18.199,0 -3.4077,1.4919 v 1.3959 h 1.6033 l 0.30642,-1.4609 c 0.40897,-0.166 1.0209,-0.33118 1.5321,-0.33118 0.98839,0 1.0926,0.66246 1.0926,1.758 v 0.89759 l -4.228,1.3619 c -0.40897,0.56439 -0.64688,1.029 -0.64688,1.693 0,1.4608 1.159,2.3214 2.7608,2.3214 l 2.2502,-1.5909 0.57878,1.3928 2.4204,-0.46427 -0.0682,-0.63141 h -0.91924 c -0.17044,-0.2988 -0.30953,-0.56508 -0.30953,-1.3619 v -3.5842 c 0,-2.2908 -0.61352,-2.8878 -2.9651,-2.8878 z m 21.233,0 -3.3396,1.4919 v 1.3959 h 1.6033 l 0.3064,-1.4609 c 0.40899,-0.166 1.0209,-0.33118 1.5321,-0.33118 0.98839,0 1.0926,0.66246 1.0926,1.758 v 0.89759 l -4.2279,1.3619 c -0.40899,0.56439 -0.6469,1.029 -0.6469,1.693 0,1.4608 1.1591,2.3214 2.7609,2.3214 l 2.2161,-1.5909 0.57879,1.3928 2.4204,-0.46427 -0.0682,-0.63141 h -0.95331 c -0.17044,-0.2988 -0.30951,-0.56507 -0.30951,-1.3619 v -3.5842 c 0,-2.2908 -0.61354,-2.8878 -2.9651,-2.8878 z m -142.29,0.03095 -2.7609,1.7611 -0.10214,-1.529 -0.82021,0.0681 -2.2471,0.56332 0.10213,0.63141 1.2938,-0.09904 v 6.6731 l -1.2938,0.16714 0.10214,0.62831 2.148,-0.065 1.8045,0.09905 0.10214,-0.63141 -1.0214,-0.16404 v -5.4134 l 0.54474,-0.36523 c 0.64755,-0.43159 1.2962,-0.8295 1.9438,-0.8295 0.78387,0 1.2257,0.39908 1.2257,1.3619 v 5.2122 l -0.9533,0.16714 0.10213,0.62831 1.8045,-0.065 2.148,0.065 0.10214,-0.62831 -1.43,-0.16714 v -5.0791 c 0,-2.1912 -0.40923,-2.9899 -2.7949,-2.9899 z m 206.4,0 -2.7609,1.7611 -0.10206,-1.529 -0.82021,0.0681 -2.2471,0.56332 0.10206,0.63141 1.2938,-0.09904 v 6.6731 l -1.2938,0.16714 0.10221,0.62831 2.1449,-0.065 1.7735,0.09905 0.10206,-0.63141 -1.0214,-0.16404 v -5.4134 l 0.5788,-0.36523 c 0.64753,-0.4316 1.2931,-0.8295 1.9407,-0.8295 0.78386,0 1.2288,0.39907 1.2288,1.3619 v 5.2122 l -0.95332,0.16714 0.10221,0.62831 1.8045,-0.065 2.148,0.065 0.10205,-0.62831 -1.433,-0.16714 v -5.0791 c -10e-6,-2.1912 -0.40613,-2.9899 -2.7918,-2.9899 z m -173.03,0.06809 -2.148,2.5566 -0.0681,-2.4235 -0.74903,0.065 -2.2502,0.56641 0.10206,0.62831 1.2938,-0.09904 v 6.6731 l -1.2938,0.16714 0.10221,0.63141 2.114,-0.06809 2.7268,0.06809 0.10221,-0.6995 -1.9778,-0.16404 v -4.3487 l 0.37452,-0.43332 c 0.51121,-0.5976 1.3305,-1.1942 1.7735,-1.2938 h 1.3959 v -1.8261 h -1.498 z m 139.42,0.13308 -0.91924,0.065 -2.2502,0.46427 0.10221,0.6995 1.3309,-0.10214 v 4.782 c 0,2.1248 0.40914,2.9868 2.8971,2.9868 l 2.7268,-1.659 0.5107,1.495 2.4204,-0.46427 -0.0681,-0.63141 h -0.95639 c -0.13629,-0.2988 -0.23834,-0.56508 -0.23834,-1.3619 v -6.2738 l -0.9533,0.065 -2.0799,0.46427 0.10222,0.6995 1.1266,-0.10214 v 5.1472 l -0.37452,0.23214 c -0.7157,0.46479 -1.4665,0.92854 -2.0459,0.92854 -0.92018,0 -1.3309,-0.39598 -1.3309,-1.3588 v -6.0758 z m -164.78,0.03095 -0.9533,0.06809 -2.2502,0.56332 0.10214,0.63141 1.2969,-0.09905 v 6.6731 l -1.2969,0.16714 0.10213,0.62831 2.148,-0.065 2.148,0.065 0.10214,-0.62831 -1.399,-0.16714 V 85.819 Z m 1.5692,0 -0.10214,0.63141 1.1576,0.20118 3.2716,8.0659 1.365,-0.56332 3.0673,-7.5026 1.1916,-0.20118 -0.10212,-0.63141 -1.5662,0.06811 -1.6373,-0.06809 -0.10214,0.63141 0.85117,0.20118 -2.2811,6.605 -0.0712,-1.2597 -2.0428,-5.3453 1.2257,-0.20118 -0.10214,-0.63141 -1.9747,0.06809 -2.148,-0.06809 z m 37.182,0 -0.91926,0.06809 -2.2502,0.56332 0.10222,0.63141 1.2938,-0.09905 v 6.6731 l -1.2938,0.16714 0.10205,0.62831 2.148,-0.065 2.114,0.065 0.10221,-0.62831 -1.399,-0.16714 V 85.819 Z m 60.358,0 -0.10205,0.66546 1.1576,0.19809 2.7268,3.6213 -2.7609,3.318 -1.3278,0.16714 0.10206,0.63141 1.9406,-0.06809 1.4671,0.06809 0.10222,-0.63141 -0.91926,-0.13308 1.9747,-2.7887 0.13613,0.43022 1.6714,2.3585 -0.78307,0.16714 0.10221,0.62831 1.7704,-0.065 2.148,0.065 0.10205,-0.62831 -1.1576,-0.16714 -2.9311,-4.0515 2.4854,-2.9218 1.365,-0.19809 -0.10222,-0.66546 -1.9438,0.0681 -1.464,-0.0681 -0.10206,0.66546 0.91926,0.19809 -1.7735,2.4916 -0.13613,-0.46427 -1.3959,-2.0273 0.74903,-0.19809 -0.10221,-0.66546 -1.7704,0.0681 -2.148,-0.0681 z m 91.167,0 -0.91926,0.06809 -2.2502,0.56332 0.10206,0.63141 1.2938,-0.09905 v 6.6731 l -1.2938,0.16714 0.10205,0.62831 2.148,-0.065 2.1109,0.065 0.10221,-0.62831 -1.3959,-0.16714 V 85.819 Z m -225.65,0.63142 c 1.4655,0 1.7364,0.99816 1.7364,2.3925 l -3.7482,0.16404 c 0.13634,-1.5272 0.85309,-2.5566 2.0118,-2.5566 z m 50.711,0 c 1.4655,0 1.7395,0.99816 1.7395,2.3925 l -3.7482,0.16404 c 0.13629,-1.5272 0.85,-2.5566 2.0088,-2.5566 z m 48.225,0 c 1.6018,0 2.7609,1.5604 2.7609,3.8844 0,1.9588 -0.78464,3.4542 -2.2842,3.4542 -1.67,0 -2.7949,-1.7588 -2.7609,-3.8504 0,-1.992 0.75057,-3.4882 2.2842,-3.4882 z m 30.877,0 c 1.4655,0 1.7395,0.99816 1.7395,2.3925 l -3.7482,0.16404 c 0.13629,-1.5272 0.88405,-2.5566 2.0087,-2.5566 z m 19.769,3.5873 v 2.3894 l -0.78307,0.53236 c -0.23856,0.166 -0.71756,0.46427 -1.2288,0.46427 -0.5453,-2e-6 -1.0895,-0.33323 -1.0895,-1.2628 0,-0.3984 0.1019,-0.76199 0.37451,-1.0276 l 2.7268,-1.0957 z m 21.233,0 v 2.3894 l -0.78307,0.53236 c -0.23856,0.166 -0.71755,0.46427 -1.2288,0.46427 -0.5453,0 -1.0895,-0.33323 -1.0895,-1.2628 0,-0.3984 0.1019,-0.762 0.37452,-1.0276 l 2.7268,-1.0957 z"
         id="path2545" />
    </g>
    <text
       xml:space="preserve"
       style="font-style:normal;font-variant:normal;font-weight:normal;font-stretch:normal;font-size:4.38036823px;line-height:1.25;font-family:'DejaVu Sans';-inkscape-font-specification:'DejaVu Sans';text-align:start;letter-spacing:0px;word-spacing:0px;text-anchor:start;fill:#000000;fill-opacity:1;stroke:none;stroke-width:0.13688651"
       x="28.363501"
       y="167.95374"
       id="text3132"><tspan
         sodipodi:role="line"
         id="tspan3130"
         x="28.363501"
         y="167.95374"
         style="stroke-width:0.13688651">Organizing Committee</tspan><tspan
         sodipodi:role="line"
         x="28.363501"
         y="173.4292"
         style="stroke-width:0.13688651"
         id="tspan3134" /><tspan
         sodipodi:role="line"
         x="28.363501"
         y="178.90466"
         style="stroke-width:0.13688651"
         id="tspan3136">Eduardo Rodrigues — University of Liverpool (Chair)</tspan><tspan
         sodipodi:role="line"
         x="28.363501"
         y="184.38011"
         style="stroke-width:0.13688651"
         id="tspan3138">Ben Krikler — University of Bristol (Co-chair)</tspan><tspan
         sodipodi:role="line"
         x="28.363501"
         y="189.85558"
         style="stroke-width:0.13688651"
         id="tspan3140">Jim Pivarski — Princeton University (Co-chair)</tspan><tspan
         sodipodi:role="line"
         x="28.363501"
         y="195.33104"
         style="stroke-width:0.13688651"
         id="tspan3142" /><tspan
         sodipodi:role="line"
         x="28.363501"
         y="200.8065"
         style="stroke-width:0.13688651"
         id="tspan3144">Local Organization</tspan><tspan
         sodipodi:role="line"
         x="28.363501"
         y="206.28195"
         style="stroke-width:0.13688651"
         id="tspan3146" /><tspan
         sodipodi:role="line"
         x="28.363501"
         y="211.75742"
         style="stroke-width:0.13688651"
         id="tspan3148">Chris Tunnell — Rice University</tspan><tspan
         sodipodi:role="line"
         x="28.363501"
         y="217.23288"
         style="stroke-width:0.13688651"
         id="tspan3150">Matthew Feickert — University of Illinois at Urbana-Champaign</tspan><tspan
         sodipodi:role="line"
         x="28.363501"
         y="222.70834"
         style="stroke-width:0.13688651"
         id="tspan3152">Peter Onyisi — The University of Texas at Austin</tspan></text>
    <g
       id="g5640"
       transform="matrix(0.26458333,0,0,0.26458333,184.81339,175.38622)">
      <g
         transform="translate(-103.25262,-126.25749)"
         id="g3428">
	<defs
   id="defs3423">
		<rect
   height="64.959999"
   width="74.339996"
   y="151.11"
   x="122.68"
   id="rect5525" />

	</defs>

	<clipPath
   id="SVGID_3_">
		<use
   height="100%"
   width="100%"
   y="0"
   x="0"
   id="use3425"
   style="overflow:visible"
   xlink:href="#SVGID_2_" />

	</clipPath>

</g>
      <g
         transform="translate(-103.25262,-126.25749)"
         id="g4818">
        <ellipse
           style="fill:url(#SVGID_1_);stroke:#575195;stroke-width:1.70000005;stroke-miterlimit:10"
           class="st0"
           cx="158.87"
           cy="184.74001"
           rx="26.559999"
           ry="26.85"
           id="ellipse3420" />
        <path
           style="fill:#0082ca"
           inkscape:connector-curvature="0"
           class="st1"
           d="m 117.18,157.05 c 0,0 0.15,-0.24 0.46,-0.68 2.78,-3.94 18.28,-23.54 50.6,-21.13 0,0 37.04,2.68 40.97,47.65 0,0 1.68,38.27 -38.16,50.71 0,0 -67.34,9.57 -56.12,-59.9 h 2.25 c 0,0 -3.93,43.06 27.5,52.24 0,0 53.31,10.96 58.36,-41.41 0,0 -1.68,-34.44 -24.69,-40.15 0,0 -33.67,-12.02 -57.8,17.26"
           id="path3430" />
        <path
           style="fill:#575195"
           inkscape:connector-curvature="0"
           class="st2"
           d="m 188.92,205.34 c 0,0 -0.11,0.18 -0.34,0.49 -2.04,2.81 -13.38,16.76 -36.21,14.41 0,0 -26.16,-2.63 -28.09,-35.36 0,0 -0.46,-27.82 27.97,-36.11 0,0 47.84,-5.7 38.58,44.53 l -1.59,-0.04 c 0,0 3.6,-31.19 -18.47,-38.44 0,0 -37.52,-8.95 -42.09,28.98 0,0 0.54,25.04 16.71,29.61 0,0 23.6,9.35 41.23,-11.46"
           id="path3432" />
        <path
           style="fill:#270089"
           inkscape:connector-curvature="0"
           class="st3"
           d="m 119.43,201.56 c 0,0 -0.09,-0.22 -0.24,-0.65 -1.31,-3.82 -6.98,-23.99 10.53,-45.51 0,0 20.01,-24.71 52.4,-6.13 0,0 26.76,16.98 15.62,50.82 0,0 -26.59,51.77 -68.14,10.94 l 1.1,-1.57 c 0,0 27.24,23.18 48.9,5.5 0,0 33.6,-32.19 0.6,-60.57 0,0 -24.16,-15.16 -39.33,-1.73 0,0 -24.68,17.91 -16.69,48.72"
           id="path3434" />
        <path
           style="fill:#8a84d6"
           inkscape:connector-curvature="0"
           class="st4"
           d="m 183.58,239.33 c 0,0 -0.31,0.14 -0.9,0.35 -5.3,1.96 -33.29,10.58 -62.38,-13.26 0,0 -33.39,-27.23 -6.71,-73.28 0,0 24.28,-38.09 70.56,-23.59 0,0 70.46,35.57 12.82,95.19 l -2.13,-1.49 c 0,0 32.85,-38.97 9.2,-68.75 0,0 -43.25,-46.05 -83.46,1.16 0,0 -21.69,34.39 -3.69,55.21 0,0 23.87,34.01 66.6,21.79"
           id="path3436" />
        <g
           id="g3446">
	<path
   style="fill:#8a84d6"
   inkscape:connector-curvature="0"
   class="st4"
   d="m 227.05,132.96 v -5.95 h 5.53 v 5.95 z m 5.32,6.09 v 34.51 h -5.11 v -34.51 z"
   id="path3438" />

	<path
   style="fill:#8a84d6"
   inkscape:connector-curvature="0"
   class="st4"
   d="m 247.56,139.05 v 7.21 c 0.98,-2.45 3.36,-8.61 9.94,-8.12 v 5.74 c -5.67,-0.63 -9.38,3.29 -9.38,11.83 v 17.85 h -5.11 v -34.51 z"
   id="path3440" />

	<path
   style="fill:#8a84d6"
   inkscape:connector-curvature="0"
   class="st4"
   d="m 262.12,132.96 v -5.95 h 5.53 v 5.95 z m 5.32,6.09 v 34.51 h -5.11 v -34.51 z"
   id="path3442" />

	<path
   style="fill:#8a84d6"
   inkscape:connector-curvature="0"
   class="st4"
   d="m 293.62,147.94 c -0.56,-1.47 -1.96,-5.6 -6.72,-5.6 -4.06,0 -5.95,2.8 -5.95,5.32 0,3.5 2.38,4.27 8.05,5.95 4.41,1.4 10.57,3.43 10.57,10.36 0,4.97 -3.78,10.57 -12.53,10.57 -10.36,0 -11.83,-7.28 -12.39,-9.87 l 4.76,-1.05 c 0.35,1.82 1.33,6.65 7.98,6.65 4.97,0 6.86,-3.22 6.86,-5.67 0,-3.85 -3.64,-4.97 -6.72,-5.95 -5.88,-1.82 -8.26,-2.73 -9.94,-5.18 -1.05,-1.47 -1.68,-3.22 -1.68,-5.11 0,-4.13 3.36,-10.29 11.27,-10.29 8.4,0 10.22,6.23 10.92,8.75 z"
   id="path3444" />

</g>
        <g
           id="g3454">
	<path
   style="fill:#0082ca"
   inkscape:connector-curvature="0"
   class="st1"
   d="m 240.83,173.94 v 16.5 c 0.59,-1.72 2.18,-5.94 8.12,-5.94 3.37,0 6.2,1.52 7.59,4.09 1.12,2.18 1.12,5.61 1.12,9.17 v 20.19 h -4.82 v -20.19 c 0,-4.42 0,-9.24 -5.28,-9.24 -6.07,0 -6.73,8.38 -6.73,12.41 v 17.03 h -4.82 v -44.02 z"
   id="path3448" />

	<path
   style="fill:#0082ca"
   inkscape:connector-curvature="0"
   class="st1"
   d="m 269.8,202.32 c 0,2.84 -0.07,12.54 7.59,12.54 4.62,0 5.87,-4.03 6.6,-6.53 l 4.55,1.06 c -2.05,7.59 -6.73,9.5 -11.42,9.5 -9.31,0 -12.41,-8.18 -12.41,-16.7 0,-12.21 5.81,-17.69 12.67,-17.69 7.33,0 11.42,5.61 11.62,17.82 z m 13.73,-3.96 c 0,-4.88 -1.52,-9.83 -6.67,-9.83 -4.95,0 -6.4,5.21 -6.8,9.83 z"
   id="path3450" />

	<path
   style="fill:#0082ca"
   inkscape:connector-curvature="0"
   class="st1"
   d="m 299.96,185.42 v 5.68 c 0.86,-1.98 2.71,-6.34 8.65,-6.34 7,0 11.42,6.47 11.42,16.5 0,3.3 -0.73,17.36 -11.42,17.36 -4.82,0 -6.53,-2.24 -8.18,-4.88 v 15.24 h -4.82 v -43.56 z m 0.46,18.75 c 0,2.71 0,5.21 1.78,7.59 1.32,1.78 3.1,2.84 5.35,2.84 2.18,0 3.83,-0.79 5.21,-3.23 1.58,-2.77 1.91,-7.06 1.91,-9.83 0,-4.69 -0.99,-12.74 -7.13,-12.74 -1.91,0 -3.96,0.59 -5.61,3.56 -1.52,2.71 -1.52,4.75 -1.52,6.93 v 4.88 z"
   id="path3452" />

</g>
        <g
           id="g3578">
	<path
   inkscape:connector-curvature="0"
   d="m 192.45,232.69 v 8.67 h -1.9 v -8.67 z"
   id="path3456" />

	<path
   inkscape:connector-curvature="0"
   d="m 195.9,234.95 v 0.87 c 0.26,-0.53 0.6,-1.01 1.6,-1.01 0.25,0 0.98,0 1.42,0.68 0.26,0.4 0.26,1.03 0.26,1.66 v 4.21 h -1.78 v -4.21 c 0,-0.57 -0.05,-0.95 -0.61,-0.95 -0.79,0 -0.79,0.62 -0.79,1.4 v 3.76 h -1.78 v -6.41 z"
   id="path3458" />

	<path
   inkscape:connector-curvature="0"
   d="m 203.63,236.86 c -0.1,-0.33 -0.29,-0.87 -0.94,-0.87 -0.42,0 -0.56,0.3 -0.56,0.56 0,0.51 0.35,0.62 1.07,0.88 0.9,0.31 1.9,0.66 1.9,1.96 0,0.95 -0.66,2.09 -2.43,2.09 -2.11,0 -2.33,-1.43 -2.4,-1.91 l 1.42,-0.23 c 0.05,0.25 0.21,0.96 1.01,0.96 0.18,0 0.71,-0.04 0.71,-0.6 0,-0.51 -0.39,-0.64 -1.03,-0.85 -0.68,-0.21 -1.92,-0.64 -1.92,-2.02 0,-1.38 1.13,-2.04 2.28,-2.04 1.08,0 1.94,0.62 2.17,1.68 z"
   id="path3460" />

	<path
   inkscape:connector-curvature="0"
   d="m 208.27,232.93 v 2.03 h 1.18 v 1.4 h -1.18 v 2.35 c 0,1.21 0,1.36 1.27,1.29 v 1.37 c -0.26,0.05 -0.62,0.13 -1.1,0.13 -0.58,0 -1.23,-0.14 -1.6,-0.66 -0.31,-0.45 -0.31,-1.1 -0.31,-1.92 v -2.55 h -0.7 v -1.4 h 0.79 l 0.14,-1.89 z"
   id="path3462" />

	<path
   inkscape:connector-curvature="0"
   d="m 210.52,234.41 v -1.77 h 1.81 v 1.77 z m 1.79,0.54 v 6.41 h -1.78 v -6.41 z"
   id="path3464" />

	<path
   inkscape:connector-curvature="0"
   d="m 215.9,232.93 v 2.03 h 1.18 v 1.4 h -1.18 v 2.35 c 0,1.21 0,1.36 1.27,1.29 v 1.37 c -0.26,0.05 -0.62,0.13 -1.1,0.13 -0.58,0 -1.23,-0.14 -1.6,-0.66 -0.31,-0.45 -0.31,-1.1 -0.31,-1.92 v -2.55 h -0.7 v -1.4 h 0.79 l 0.14,-1.89 z"
   id="path3466" />

	<path
   inkscape:connector-curvature="0"
   d="m 219.85,234.95 v 4.12 c 0,0.64 0,1.04 0.61,1.04 0.79,0 0.79,-0.51 0.79,-1.89 v -3.28 h 1.78 v 6.41 h -1.68 v -0.88 c -0.33,0.55 -0.61,1.01 -1.65,1.01 -1.64,0 -1.64,-1.2 -1.64,-2.37 v -4.17 h 1.79 z"
   id="path3468" />

	<path
   inkscape:connector-curvature="0"
   d="m 226.64,232.93 v 2.03 h 1.18 v 1.4 h -1.18 v 2.35 c 0,1.21 0,1.36 1.27,1.29 v 1.37 c -0.26,0.05 -0.62,0.13 -1.1,0.13 -0.58,0 -1.23,-0.14 -1.6,-0.66 -0.31,-0.45 -0.31,-1.1 -0.31,-1.92 v -2.55 h -0.7 v -1.4 h 0.79 l 0.14,-1.89 z"
   id="path3470" />

	<path
   inkscape:connector-curvature="0"
   d="m 230.47,238.45 c -0.01,0.87 -0.03,1.81 0.86,1.81 0.77,0 0.86,-0.69 0.91,-1.1 l 1.6,0.1 c -0.13,0.6 -0.48,2.24 -2.55,2.24 -1.96,0 -2.67,-1.55 -2.67,-3.25 0,-0.42 0.05,-1.43 0.48,-2.21 0.46,-0.82 1.3,-1.22 2.17,-1.22 1.12,0 1.81,0.62 2.09,1.17 0.46,0.87 0.47,1.69 0.47,2.47 h -3.36 z m 1.68,-1.03 c 0.01,-0.35 0.04,-1.43 -0.83,-1.43 -0.81,0 -0.82,0.98 -0.83,1.43 z"
   id="path3472" />

	<path
   inkscape:connector-curvature="0"
   d="m 241.89,234.95 v 1.4 h -1.13 v 5.01 h -1.72 v -5.01 h -0.73 v -1.4 h 0.73 c 0.03,-1.09 0.06,-1.7 0.69,-2.2 0.34,-0.27 0.72,-0.4 1.38,-0.4 0.38,0 0.61,0.04 0.84,0.06 v 1.39 c -0.12,-0.01 -0.22,-0.03 -0.39,-0.03 -0.78,0 -0.81,0.31 -0.81,1.17 h 1.14 z"
   id="path3474" />

	<path
   inkscape:connector-curvature="0"
   d="m 247.71,238.15 c 0,2.05 -0.74,3.34 -2.61,3.34 -1.85,0 -2.6,-1.27 -2.6,-3.34 0,-2 0.7,-3.34 2.61,-3.34 1.9,0 2.6,1.34 2.6,3.34 z m -2.61,-2.09 c -0.57,0 -0.75,0.52 -0.75,2.09 0,1.7 0.23,2.09 0.77,2.09 0.52,0 0.75,-0.38 0.75,-2.09 0,-1.65 -0.21,-2.09 -0.75,-2.09 z"
   id="path3476" />

	<path
   inkscape:connector-curvature="0"
   d="m 250.61,234.95 v 1.55 c 0.16,-0.55 0.47,-1.64 1.51,-1.64 0.13,0 0.22,0.01 0.31,0.04 v 1.74 c -0.16,-0.03 -0.23,-0.03 -0.3,-0.03 -1.31,0 -1.31,1.48 -1.31,1.98 v 2.77 h -1.78 v -6.41 z"
   id="path3478" />

	<path
   inkscape:connector-curvature="0"
   d="m 259.76,232.69 c 0.87,0 1.72,0 2.38,0.74 0.46,0.51 0.62,1.2 0.62,1.88 0,1.53 -0.79,2 -1.22,2.26 l 1.6,3.78 h -2.08 l -1.16,-3.42 h -0.96 v 3.42 h -1.9 v -8.67 h 2.72 z m -0.82,1.41 v 2.44 h 0.84 c 0.82,0 1.12,-0.53 1.12,-1.25 0,-1.2 -0.87,-1.2 -1.2,-1.2 h -0.76 z"
   id="path3480" />

	<path
   inkscape:connector-curvature="0"
   d="m 265.82,238.45 c -0.01,0.87 -0.03,1.81 0.86,1.81 0.77,0 0.86,-0.69 0.91,-1.1 l 1.6,0.1 c -0.13,0.6 -0.48,2.24 -2.55,2.24 -1.96,0 -2.67,-1.55 -2.67,-3.25 0,-0.42 0.05,-1.43 0.48,-2.21 0.46,-0.82 1.3,-1.22 2.17,-1.22 1.12,0 1.81,0.62 2.09,1.17 0.46,0.87 0.47,1.69 0.47,2.47 h -3.36 z m 1.68,-1.03 c 0.01,-0.35 0.04,-1.43 -0.83,-1.43 -0.81,0 -0.82,0.98 -0.83,1.43 z"
   id="path3482" />

	<path
   inkscape:connector-curvature="0"
   d="m 273.45,236.86 c -0.1,-0.33 -0.29,-0.87 -0.94,-0.87 -0.42,0 -0.56,0.3 -0.56,0.56 0,0.51 0.35,0.62 1.07,0.88 0.9,0.31 1.9,0.66 1.9,1.96 0,0.95 -0.66,2.09 -2.43,2.09 -2.11,0 -2.33,-1.43 -2.4,-1.91 l 1.42,-0.23 c 0.05,0.25 0.21,0.96 1.01,0.96 0.18,0 0.71,-0.04 0.71,-0.6 0,-0.51 -0.39,-0.64 -1.03,-0.85 -0.68,-0.21 -1.92,-0.64 -1.92,-2.02 0,-1.38 1.13,-2.04 2.28,-2.04 1.08,0 1.94,0.62 2.17,1.68 z"
   id="path3484" />

	<path
   inkscape:connector-curvature="0"
   d="m 277.66,238.45 c -0.01,0.87 -0.03,1.81 0.86,1.81 0.77,0 0.86,-0.69 0.91,-1.1 l 1.6,0.1 c -0.13,0.6 -0.48,2.24 -2.55,2.24 -1.96,0 -2.67,-1.55 -2.67,-3.25 0,-0.42 0.05,-1.43 0.48,-2.21 0.46,-0.82 1.3,-1.22 2.17,-1.22 1.12,0 1.81,0.62 2.09,1.17 0.46,0.87 0.47,1.69 0.47,2.47 h -3.36 z m 1.68,-1.03 c 0.01,-0.35 0.04,-1.43 -0.83,-1.43 -0.81,0 -0.82,0.98 -0.83,1.43 z"
   id="path3486" />

	<path
   inkscape:connector-curvature="0"
   d="m 282.36,236.81 c 0.05,-0.36 0.16,-1.13 1.07,-1.65 0.46,-0.26 0.99,-0.35 1.52,-0.35 0.68,0 1.38,0.17 1.86,0.68 0.39,0.39 0.42,1.12 0.42,1.9 v 2.55 c 0,1.09 0.04,1.21 0.1,1.43 h -1.65 c -0.08,-0.26 -0.09,-0.4 -0.09,-0.99 -0.23,0.42 -0.65,1.12 -1.77,1.12 -0.86,0 -1.68,-0.49 -1.68,-1.75 0,-1.78 1.39,-2.25 3.3,-2.35 v -0.25 c 0,-0.56 0,-1.14 -0.64,-1.14 -0.6,0 -0.71,0.48 -0.77,0.99 z m 3.08,1.48 c -1.03,0.13 -1.46,0.38 -1.46,1.21 0,0.46 0.17,0.81 0.6,0.81 0.22,0 0.42,-0.1 0.58,-0.35 0.25,-0.36 0.27,-0.77 0.27,-1.35 v -0.32 z"
   id="path3488" />

	<path
   inkscape:connector-curvature="0"
   d="m 290.39,234.95 v 1.55 c 0.16,-0.55 0.47,-1.64 1.51,-1.64 0.13,0 0.22,0.01 0.31,0.04 v 1.74 c -0.16,-0.03 -0.23,-0.03 -0.3,-0.03 -1.31,0 -1.31,1.48 -1.31,1.98 v 2.77 h -1.78 v -6.41 z"
   id="path3490" />

	<path
   inkscape:connector-curvature="0"
   d="m 296.01,237.37 c -0.06,-0.92 -0.29,-1.2 -0.7,-1.2 -0.53,0 -0.9,0.43 -0.9,1.9 0,0.96 0.1,1.98 0.86,1.98 0.57,0 0.7,-0.52 0.74,-1.18 l 1.66,0.1 c -0.08,0.66 -0.27,2.52 -2.51,2.52 -2.18,0 -2.55,-1.96 -2.55,-3.33 0,-1.73 0.62,-3.35 2.64,-3.35 0.58,0 1.22,0.12 1.73,0.66 0.6,0.65 0.65,1.29 0.69,1.83 z"
   id="path3492" />

	<path
   inkscape:connector-curvature="0"
   d="m 300.7,232.69 v 2.94 c 0.18,-0.29 0.53,-0.82 1.57,-0.82 1.61,0 1.61,1.33 1.61,2.43 v 4.12 h -1.78 v -4.12 c 0,-0.61 0,-1.04 -0.6,-1.04 -0.78,0 -0.81,0.57 -0.81,1.09 v 4.07 h -1.78 v -8.67 z"
   id="path3494" />

	<path
   inkscape:connector-curvature="0"
   d="m 316.17,236.66 c -0.3,1.29 -0.7,2.07 -1.17,2.78 0.49,0.51 0.71,0.48 1.17,0.46 v 1.47 c -0.18,0.04 -0.38,0.09 -0.65,0.09 -0.84,0 -1.3,-0.43 -1.69,-0.82 -0.49,0.39 -1.12,0.86 -2.34,0.86 -2.67,0 -2.77,-2.2 -2.77,-2.56 0,-1.22 0.77,-1.99 1.96,-2.5 -0.2,-0.29 -0.81,-1.12 -0.81,-1.95 0,-0.94 0.83,-1.92 2.29,-1.92 1.52,0 2.22,1.05 2.22,2.07 0,1.25 -1.03,1.83 -1.5,2.08 l 1.2,1.6 c 0.39,-0.66 0.57,-1.43 0.68,-1.91 z m -4.76,0.78 c -0.53,0.33 -0.88,0.77 -0.88,1.38 0,0.56 0.3,1.25 1.25,1.25 0.65,0 0.99,-0.31 1.21,-0.51 z m 0.74,-1.72 c 0.46,-0.26 0.78,-0.65 0.78,-1.2 0,-0.22 -0.08,-0.73 -0.68,-0.73 -0.48,0 -0.68,0.33 -0.68,0.68 0.01,0.46 0.41,1.02 0.58,1.25 z"
   id="path3496" />

	<path
   inkscape:connector-curvature="0"
   d="m 323.3,232.69 v 8.67 h -1.9 v -8.67 z"
   id="path3498" />

	<path
   inkscape:connector-curvature="0"
   d="m 326.75,234.95 v 0.87 c 0.26,-0.53 0.6,-1.01 1.6,-1.01 0.25,0 0.97,0 1.42,0.68 0.26,0.4 0.26,1.03 0.26,1.66 v 4.21 h -1.78 v -4.21 c 0,-0.57 -0.05,-0.95 -0.61,-0.95 -0.79,0 -0.79,0.62 -0.79,1.4 v 3.76 h -1.78 v -6.41 z"
   id="path3500" />

	<path
   inkscape:connector-curvature="0"
   d="m 333.22,234.95 v 0.87 c 0.26,-0.53 0.6,-1.01 1.6,-1.01 0.25,0 0.97,0 1.42,0.68 0.26,0.4 0.26,1.03 0.26,1.66 v 4.21 h -1.78 v -4.21 c 0,-0.57 -0.05,-0.95 -0.61,-0.95 -0.79,0 -0.79,0.62 -0.79,1.4 v 3.76 h -1.78 v -6.41 z"
   id="path3502" />

	<path
   inkscape:connector-curvature="0"
   d="m 342.93,238.15 c 0,2.05 -0.74,3.34 -2.61,3.34 -1.85,0 -2.6,-1.27 -2.6,-3.34 0,-2 0.7,-3.34 2.61,-3.34 1.9,0 2.6,1.34 2.6,3.34 z m -2.61,-2.09 c -0.57,0 -0.75,0.52 -0.75,2.09 0,1.7 0.23,2.09 0.77,2.09 0.52,0 0.75,-0.38 0.75,-2.09 0,-1.65 -0.21,-2.09 -0.75,-2.09 z"
   id="path3504" />

	<path
   inkscape:connector-curvature="0"
   d="m 345.18,234.95 0.88,3.78 0.88,-3.78 h 1.5 l -1.77,6.41 h -1.4 l -1.82,-6.41 z"
   id="path3506" />

	<path
   inkscape:connector-curvature="0"
   d="m 348.81,236.81 c 0.05,-0.36 0.16,-1.13 1.07,-1.65 0.46,-0.26 0.99,-0.35 1.52,-0.35 0.68,0 1.38,0.17 1.86,0.68 0.39,0.39 0.42,1.12 0.42,1.9 v 2.55 c 0,1.09 0.04,1.21 0.1,1.43 h -1.65 c -0.08,-0.26 -0.09,-0.4 -0.09,-0.99 -0.23,0.42 -0.65,1.12 -1.77,1.12 -0.86,0 -1.68,-0.49 -1.68,-1.75 0,-1.78 1.39,-2.25 3.3,-2.35 v -0.25 c 0,-0.56 0,-1.14 -0.64,-1.14 -0.6,0 -0.71,0.48 -0.77,0.99 z m 3.08,1.48 c -1.03,0.13 -1.46,0.38 -1.46,1.21 0,0.46 0.17,0.81 0.6,0.81 0.22,0 0.42,-0.1 0.58,-0.35 0.25,-0.36 0.27,-0.77 0.27,-1.35 v -0.32 z"
   id="path3508" />

	<path
   inkscape:connector-curvature="0"
   d="m 357.27,232.93 v 2.03 h 1.18 v 1.4 h -1.18 v 2.35 c 0,1.21 0,1.36 1.27,1.29 v 1.37 c -0.26,0.05 -0.62,0.13 -1.11,0.13 -0.58,0 -1.24,-0.14 -1.6,-0.66 -0.31,-0.45 -0.31,-1.1 -0.31,-1.92 v -2.55 h -0.7 v -1.4 h 0.79 l 0.14,-1.89 z"
   id="path3510" />

	<path
   inkscape:connector-curvature="0"
   d="m 359.52,234.41 v -1.77 h 1.81 v 1.77 z m 1.8,0.54 v 6.41 h -1.78 v -6.41 z"
   id="path3512" />

	<path
   inkscape:connector-curvature="0"
   d="m 367.83,238.15 c 0,2.05 -0.74,3.34 -2.61,3.34 -1.85,0 -2.6,-1.27 -2.6,-3.34 0,-2 0.7,-3.34 2.61,-3.34 1.9,0 2.6,1.34 2.6,3.34 z m -2.61,-2.09 c -0.57,0 -0.75,0.52 -0.75,2.09 0,1.7 0.23,2.09 0.77,2.09 0.52,0 0.75,-0.38 0.75,-2.09 0,-1.65 -0.21,-2.09 -0.75,-2.09 z"
   id="path3514" />

	<path
   inkscape:connector-curvature="0"
   d="m 370.85,234.95 v 0.87 c 0.26,-0.53 0.6,-1.01 1.6,-1.01 0.25,0 0.97,0 1.42,0.68 0.26,0.4 0.26,1.03 0.26,1.66 v 4.21 h -1.78 v -4.21 c 0,-0.57 -0.05,-0.95 -0.61,-0.95 -0.79,0 -0.79,0.62 -0.79,1.4 v 3.76 h -1.78 v -6.41 z"
   id="path3516" />

	<path
   inkscape:connector-curvature="0"
   d="m 190.38,250.01 v -1.77 h 1.81 v 1.77 z m 1.8,0.54 v 6.41 h -1.78 v -6.41 z"
   id="path3518" />

	<path
   inkscape:connector-curvature="0"
   d="m 195.45,250.55 v 0.87 c 0.26,-0.53 0.6,-1.01 1.6,-1.01 0.25,0 0.98,0 1.42,0.68 0.26,0.4 0.26,1.03 0.26,1.66 v 4.21 h -1.78 v -4.21 c 0,-0.57 -0.05,-0.95 -0.61,-0.95 -0.79,0 -0.79,0.62 -0.79,1.4 v 3.76 h -1.78 v -6.41 z"
   id="path3520" />

	<path
   inkscape:connector-curvature="0"
   d="m 207.7,250.79 c -0.1,-0.31 -0.35,-1.08 -1.22,-1.08 -0.64,0 -0.91,0.44 -0.91,0.79 0,0.6 0.57,0.81 1.5,1.16 0.97,0.38 2.39,0.91 2.39,2.67 0,1.48 -1.04,2.77 -3.08,2.77 -0.62,0 -1.56,-0.12 -2.26,-0.91 -0.48,-0.56 -0.64,-1.09 -0.74,-1.47 l 1.66,-0.47 c 0.1,0.39 0.35,1.3 1.39,1.3 0.65,0 1.1,-0.36 1.1,-0.94 0,-0.61 -0.55,-0.86 -1.2,-1.09 -1.18,-0.43 -2.61,-0.94 -2.61,-2.7 0,-1.35 0.87,-2.65 2.77,-2.65 2.16,0 2.61,1.44 2.79,2.02 z"
   id="path3522" />

	<path
   inkscape:connector-curvature="0"
   d="m 215.67,253.75 c 0,2.05 -0.74,3.34 -2.61,3.34 -1.85,0 -2.6,-1.27 -2.6,-3.34 0,-2 0.7,-3.34 2.61,-3.34 1.9,0 2.6,1.34 2.6,3.34 z m -2.61,-2.09 c -0.57,0 -0.75,0.52 -0.75,2.09 0,1.7 0.23,2.09 0.77,2.09 0.52,0 0.75,-0.38 0.75,-2.09 0,-1.65 -0.21,-2.09 -0.75,-2.09 z"
   id="path3524" />

	<path
   inkscape:connector-curvature="0"
   d="m 220.14,250.55 v 1.4 h -1.13 v 5.01 h -1.72 v -5.01 h -0.73 v -1.4 h 0.73 c 0.03,-1.09 0.06,-1.7 0.69,-2.2 0.34,-0.27 0.72,-0.4 1.38,-0.4 0.38,0 0.61,0.04 0.84,0.06 v 1.39 c -0.12,-0.01 -0.22,-0.03 -0.39,-0.03 -0.78,0 -0.81,0.31 -0.81,1.17 h 1.14 z"
   id="path3526" />

	<path
   inkscape:connector-curvature="0"
   d="m 223.04,248.53 v 2.03 h 1.18 v 1.4 h -1.18 v 2.35 c 0,1.21 0,1.37 1.27,1.29 v 1.37 c -0.26,0.05 -0.62,0.13 -1.1,0.13 -0.58,0 -1.23,-0.14 -1.6,-0.66 -0.31,-0.46 -0.31,-1.1 -0.31,-1.92 v -2.55 h -0.7 v -1.4 h 0.79 l 0.14,-1.89 z"
   id="path3528" />

	<path
   inkscape:connector-curvature="0"
   d="m 226.28,250.55 0.75,3.9 0.71,-3.9 h 1.74 l 0.57,3.9 0.87,-3.9 h 1.4 l -1.61,6.41 h -1.5 l -0.82,-4.35 -0.81,4.35 h -1.46 l -1.61,-6.41 z"
   id="path3530" />

	<path
   inkscape:connector-curvature="0"
   d="m 232.72,252.41 c 0.05,-0.36 0.16,-1.13 1.07,-1.65 0.46,-0.26 0.99,-0.35 1.52,-0.35 0.68,0 1.38,0.17 1.86,0.68 0.39,0.39 0.42,1.12 0.42,1.9 v 2.55 c 0,1.09 0.04,1.21 0.1,1.43 h -1.65 c -0.08,-0.26 -0.09,-0.4 -0.09,-0.99 -0.23,0.42 -0.65,1.12 -1.77,1.12 -0.86,0 -1.68,-0.49 -1.68,-1.75 0,-1.78 1.39,-2.25 3.3,-2.35 v -0.25 c 0,-0.56 0,-1.14 -0.64,-1.14 -0.6,0 -0.71,0.48 -0.77,0.99 z m 3.09,1.48 c -1.03,0.13 -1.46,0.38 -1.46,1.21 0,0.45 0.17,0.81 0.6,0.81 0.22,0 0.42,-0.1 0.59,-0.35 0.25,-0.36 0.27,-0.77 0.27,-1.35 z"
   id="path3532" />

	<path
   inkscape:connector-curvature="0"
   d="m 240.76,250.55 v 1.55 c 0.16,-0.55 0.47,-1.64 1.51,-1.64 0.13,0 0.22,0.01 0.31,0.04 v 1.74 c -0.16,-0.03 -0.23,-0.03 -0.3,-0.03 -1.31,0 -1.31,1.48 -1.31,1.98 v 2.77 h -1.78 v -6.41 z"
   id="path3534" />

	<path
   inkscape:connector-curvature="0"
   d="m 245.02,254.05 c -0.01,0.87 -0.03,1.81 0.86,1.81 0.77,0 0.86,-0.69 0.91,-1.1 l 1.6,0.1 c -0.13,0.6 -0.48,2.24 -2.55,2.24 -1.96,0 -2.67,-1.55 -2.67,-3.25 0,-0.42 0.05,-1.43 0.48,-2.21 0.46,-0.82 1.3,-1.22 2.17,-1.22 1.12,0 1.81,0.62 2.09,1.17 0.46,0.87 0.47,1.69 0.47,2.47 h -3.36 z m 1.68,-1.03 c 0.01,-0.35 0.04,-1.43 -0.83,-1.43 -0.81,0 -0.82,0.98 -0.83,1.43 z"
   id="path3536" />

	<path
   inkscape:connector-curvature="0"
   d="m 256.44,250.55 v 1.4 h -1.13 v 5.01 h -1.72 v -5.01 h -0.73 v -1.4 h 0.73 c 0.03,-1.09 0.06,-1.7 0.69,-2.2 0.34,-0.27 0.72,-0.4 1.38,-0.4 0.38,0 0.61,0.04 0.84,0.06 v 1.39 c -0.12,-0.01 -0.22,-0.03 -0.39,-0.03 -0.78,0 -0.81,0.31 -0.81,1.17 h 1.14 z"
   id="path3538" />

	<path
   inkscape:connector-curvature="0"
   d="m 262.26,253.75 c 0,2.05 -0.74,3.34 -2.61,3.34 -1.85,0 -2.6,-1.27 -2.6,-3.34 0,-2 0.7,-3.34 2.61,-3.34 1.9,0 2.6,1.34 2.6,3.34 z m -2.61,-2.09 c -0.57,0 -0.75,0.52 -0.75,2.09 0,1.7 0.23,2.09 0.77,2.09 0.52,0 0.75,-0.38 0.75,-2.09 0,-1.65 -0.21,-2.09 -0.75,-2.09 z"
   id="path3540" />

	<path
   inkscape:connector-curvature="0"
   d="m 265.16,250.55 v 1.55 c 0.16,-0.55 0.47,-1.64 1.51,-1.64 0.13,0 0.22,0.01 0.31,0.04 v 1.74 c -0.16,-0.03 -0.23,-0.03 -0.3,-0.03 -1.31,0 -1.31,1.48 -1.31,1.98 v 2.77 h -1.78 v -6.41 z"
   id="path3542" />

	<path
   inkscape:connector-curvature="0"
   d="m 277.48,256.96 h -1.9 v -3.55 h -2.09 v 3.55 h -1.9 v -8.67 h 1.9 v 3.5 h 2.09 v -3.5 h 1.9 z"
   id="path3544" />

	<path
   inkscape:connector-curvature="0"
   d="m 279.22,250.01 v -1.77 h 1.81 v 1.77 z m 1.8,0.54 v 6.41 h -1.78 v -6.41 z"
   id="path3546" />

	<path
   inkscape:connector-curvature="0"
   d="m 288.05,250.66 c -0.1,-0.03 -0.22,-0.05 -0.39,-0.05 -0.21,0 -0.56,0.03 -0.68,0.58 0.48,0.49 0.48,1.14 0.48,1.29 0,1.29 -1.09,1.92 -2.31,1.92 -0.39,0 -0.62,-0.06 -0.84,-0.12 -0.42,0.23 -0.42,0.48 -0.42,0.53 0,0.35 0.38,0.38 1.07,0.43 1.46,0.08 1.9,0.1 2.35,0.43 0.49,0.34 0.66,0.87 0.66,1.42 0,1.99 -2.09,2.13 -3.13,2.13 -0.55,0 -2.63,0 -2.63,-1.52 0,-0.79 0.64,-1.05 1.04,-1.2 -0.21,-0.1 -0.83,-0.39 -0.83,-1.1 0,-0.78 0.68,-1.17 1.1,-1.42 -0.39,-0.21 -0.95,-0.52 -0.95,-1.6 0,-1.52 1.29,-1.98 2.39,-1.98 0.7,0 1.07,0.16 1.38,0.3 0.09,-0.66 0.23,-1.27 1.21,-1.27 0.25,0 0.36,0.04 0.49,0.06 v 1.17 z m -4.35,6.8 c 0,0.46 0.46,0.65 1.42,0.65 0.92,0 1.31,-0.19 1.31,-0.68 0,-0.49 -0.43,-0.61 -0.7,-0.62 -0.21,-0.03 -1.24,-0.09 -1.47,-0.12 -0.21,0.1 -0.56,0.29 -0.56,0.77 z m 0.72,-5.01 c 0,0.39 0.04,0.99 0.61,0.99 0.47,0 0.58,-0.35 0.58,-1.03 0,-0.79 -0.19,-1.04 -0.56,-1.04 -0.46,0 -0.63,0.34 -0.63,1.08 z"
   id="path3548" />

	<path
   inkscape:connector-curvature="0"
   d="m 290.64,248.29 v 2.94 c 0.18,-0.29 0.53,-0.82 1.57,-0.82 1.61,0 1.61,1.33 1.61,2.43 v 4.12 h -1.78 v -4.12 c 0,-0.61 0,-1.04 -0.6,-1.04 -0.78,0 -0.81,0.57 -0.81,1.09 v 4.07 h -1.78 v -8.67 z"
   id="path3550" />

	<path
   inkscape:connector-curvature="0"
   d="m 304.34,248.29 v 1.5 h -3.37 v 2 h 2.61 v 1.5 h -2.61 v 2.13 h 3.37 v 1.55 h -5.27 v -8.67 h 5.27 z"
   id="path3552" />

	<path
   inkscape:connector-curvature="0"
   d="m 307.08,250.55 v 0.87 c 0.26,-0.53 0.6,-1.01 1.6,-1.01 0.25,0 0.97,0 1.42,0.68 0.26,0.4 0.26,1.03 0.26,1.66 v 4.21 h -1.78 v -4.21 c 0,-0.57 -0.05,-0.95 -0.61,-0.95 -0.79,0 -0.79,0.62 -0.79,1.4 v 3.76 h -1.78 v -6.41 z"
   id="path3554" />

	<path
   inkscape:connector-curvature="0"
   d="m 313.44,254.05 c -0.01,0.87 -0.03,1.81 0.86,1.81 0.77,0 0.86,-0.69 0.91,-1.1 l 1.6,0.1 c -0.13,0.6 -0.48,2.24 -2.55,2.24 -1.96,0 -2.67,-1.55 -2.67,-3.25 0,-0.42 0.05,-1.43 0.48,-2.21 0.46,-0.82 1.3,-1.22 2.17,-1.22 1.12,0 1.81,0.62 2.09,1.17 0.46,0.87 0.47,1.69 0.47,2.47 h -3.36 z m 1.68,-1.03 c 0.01,-0.35 0.04,-1.43 -0.83,-1.43 -0.81,0 -0.82,0.98 -0.83,1.43 z"
   id="path3556" />

	<path
   inkscape:connector-curvature="0"
   d="m 319.69,250.55 v 1.55 c 0.16,-0.55 0.47,-1.64 1.51,-1.64 0.13,0 0.22,0.01 0.31,0.04 v 1.74 c -0.16,-0.03 -0.23,-0.03 -0.3,-0.03 -1.31,0 -1.31,1.48 -1.31,1.98 v 2.77 h -1.78 v -6.41 z"
   id="path3558" />

	<path
   inkscape:connector-curvature="0"
   d="m 327.83,250.66 c -0.1,-0.03 -0.22,-0.05 -0.39,-0.05 -0.21,0 -0.56,0.03 -0.68,0.58 0.48,0.49 0.48,1.14 0.48,1.29 0,1.29 -1.09,1.92 -2.31,1.92 -0.39,0 -0.62,-0.06 -0.84,-0.12 -0.42,0.23 -0.42,0.48 -0.42,0.53 0,0.35 0.38,0.38 1.07,0.43 1.46,0.08 1.9,0.1 2.35,0.43 0.49,0.34 0.66,0.87 0.66,1.42 0,1.99 -2.09,2.13 -3.13,2.13 -0.55,0 -2.63,0 -2.63,-1.52 0,-0.79 0.64,-1.05 1.04,-1.2 -0.21,-0.1 -0.83,-0.39 -0.83,-1.1 0,-0.78 0.68,-1.17 1.1,-1.42 -0.39,-0.21 -0.95,-0.52 -0.95,-1.6 0,-1.52 1.29,-1.98 2.39,-1.98 0.7,0 1.07,0.16 1.38,0.3 0.09,-0.66 0.23,-1.27 1.21,-1.27 0.25,0 0.36,0.04 0.49,0.06 v 1.17 z m -4.35,6.8 c 0,0.46 0.46,0.65 1.42,0.65 0.92,0 1.31,-0.19 1.31,-0.68 0,-0.49 -0.43,-0.61 -0.7,-0.62 -0.21,-0.03 -1.24,-0.09 -1.47,-0.12 -0.21,0.1 -0.56,0.29 -0.56,0.77 z m 0.72,-5.01 c 0,0.39 0.04,0.99 0.61,0.99 0.47,0 0.58,-0.35 0.58,-1.03 0,-0.79 -0.19,-1.04 -0.56,-1.04 -0.46,0 -0.63,0.34 -0.63,1.08 z"
   id="path3560" />

	<path
   inkscape:connector-curvature="0"
   d="m 329.84,250.55 0.87,3.93 0.83,-3.93 h 1.53 l -1.92,6.53 c -0.36,1.21 -0.65,2.16 -2.07,2.16 -0.35,0 -0.55,-0.05 -0.77,-0.1 v -1.4 c 0.17,0.03 0.3,0.04 0.51,0.04 0.7,0 0.85,-0.16 1.07,-0.92 l -1.83,-6.29 h 1.78 z"
   id="path3562" />

	<path
   inkscape:connector-curvature="0"
   d="m 340.06,248.29 c 0.91,0 1.86,0 2.51,0.66 0.6,0.62 0.73,1.46 0.73,2.05 0,0.86 -0.23,1.73 -0.91,2.25 -0.65,0.51 -1.72,0.51 -2.25,0.51 h -0.68 v 3.2 h -1.9 v -8.67 z m -0.6,1.41 v 2.57 h 0.6 c 0.66,0 1.22,-0.14 1.22,-1.3 0,-1.27 -0.81,-1.27 -1.22,-1.27 z"
   id="path3564" />

	<path
   inkscape:connector-curvature="0"
   d="m 346.11,248.29 v 2.94 c 0.18,-0.29 0.53,-0.82 1.57,-0.82 1.61,0 1.61,1.33 1.61,2.43 v 4.12 h -1.78 v -4.12 c 0,-0.61 0,-1.04 -0.6,-1.04 -0.78,0 -0.81,0.57 -0.81,1.09 v 4.07 h -1.78 v -8.67 z"
   id="path3566" />

	<path
   inkscape:connector-curvature="0"
   d="m 351.62,250.55 0.87,3.93 0.83,-3.93 h 1.53 l -1.92,6.53 c -0.36,1.21 -0.65,2.16 -2.07,2.16 -0.35,0 -0.55,-0.05 -0.77,-0.1 v -1.4 c 0.17,0.03 0.3,0.04 0.51,0.04 0.7,0 0.85,-0.16 1.07,-0.92 l -1.83,-6.29 h 1.78 z"
   id="path3568" />

	<path
   inkscape:connector-curvature="0"
   d="m 358.55,252.46 c -0.1,-0.33 -0.29,-0.87 -0.94,-0.87 -0.42,0 -0.56,0.3 -0.56,0.56 0,0.51 0.35,0.62 1.07,0.88 0.9,0.31 1.9,0.66 1.9,1.96 0,0.95 -0.66,2.09 -2.43,2.09 -2.11,0 -2.33,-1.43 -2.41,-1.91 l 1.42,-0.23 c 0.05,0.25 0.21,0.96 1.01,0.96 0.18,0 0.72,-0.04 0.72,-0.6 0,-0.51 -0.39,-0.64 -1.03,-0.85 -0.68,-0.21 -1.92,-0.64 -1.92,-2.02 0,-1.38 1.13,-2.04 2.27,-2.04 1.08,0 1.94,0.62 2.17,1.68 z"
   id="path3570" />

	<path
   inkscape:connector-curvature="0"
   d="m 361.18,250.01 v -1.77 h 1.81 v 1.77 z m 1.79,0.54 v 6.41 h -1.78 v -6.41 z"
   id="path3572" />

	<path
   inkscape:connector-curvature="0"
   d="m 367.67,252.97 c -0.07,-0.92 -0.29,-1.2 -0.7,-1.2 -0.53,0 -0.9,0.43 -0.9,1.9 0,0.96 0.1,1.98 0.86,1.98 0.57,0 0.7,-0.52 0.74,-1.18 l 1.66,0.1 c -0.08,0.66 -0.27,2.52 -2.51,2.52 -2.18,0 -2.55,-1.96 -2.55,-3.33 0,-1.73 0.62,-3.35 2.64,-3.35 0.58,0 1.22,0.12 1.73,0.66 0.6,0.65 0.65,1.29 0.69,1.83 z"
   id="path3574" />

	<path
   inkscape:connector-curvature="0"
   d="m 373.54,252.46 c -0.1,-0.33 -0.29,-0.87 -0.94,-0.87 -0.42,0 -0.56,0.3 -0.56,0.56 0,0.51 0.35,0.62 1.07,0.88 0.9,0.31 1.9,0.66 1.9,1.96 0,0.95 -0.66,2.09 -2.43,2.09 -2.11,0 -2.33,-1.43 -2.41,-1.91 l 1.42,-0.23 c 0.05,0.25 0.21,0.96 1.01,0.96 0.18,0 0.72,-0.04 0.72,-0.6 0,-0.51 -0.39,-0.64 -1.03,-0.85 -0.68,-0.21 -1.92,-0.64 -1.92,-2.02 0,-1.38 1.13,-2.04 2.27,-2.04 1.08,0 1.94,0.62 2.17,1.68 z"
   id="path3576" />

</g>
        <ellipse
           style="fill:url(#SVGID_4_)"
           class="st5"
           cx="158.84"
           cy="184.5"
           rx="22.610001"
           ry="22.860001"
           id="ellipse3587" />
        <path
           style="fill:url(#SVGID_5_)"
           inkscape:connector-curvature="0"
           class="st6"
           d="m 158.74,203.32 c -10.36,-0.07 -18.7,-8.43 -18.63,-18.68 0.07,-10.25 8.52,-18.5 18.88,-18.43 10.36,0.07 18.7,8.43 18.63,18.68 -0.06,10.25 -8.52,18.5 -18.88,18.43 z"
           id="path3596" />
        <g
           id="g3620">
	<g
   id="g3618">
		<defs
   id="defs3599">
			<rect
   id="rect5609"
   x="120.28"
   y="135.03"
   width="109.75"
   height="147.67999" />

		</defs>

		<clipPath
   id="SVGID_7_-4">
			<use
   height="100%"
   width="100%"
   y="0"
   x="0"
   xlink:href="#SVGID_6_-6"
   style="overflow:visible"
   id="use3601-0" />

		</clipPath>

		<g
   class="st7"
   clip-path="url(#SVGID_7_)"
   id="g3616">
			<defs
   id="defs3605">
				<rect
   id="rect5614"
   x="120.28"
   y="135.03"
   width="109.75"
   height="147.67999" />

			</defs>

			<clipPath
   id="SVGID_9_-5">
				<use
   height="100%"
   width="100%"
   y="0"
   x="0"
   xlink:href="#SVGID_8_-94"
   style="overflow:visible"
   id="use3607-4" />

			</clipPath>

			<path
   style="fill:#a7a9ac"
   inkscape:connector-curvature="0"
   class="st8"
   d="m 144.43,161.29 3.71,6.23 10.6,16.85 -23.5,-13.2 c 0,0 2.72,-5.33 9.19,-9.88"
   clip-path="url(#SVGID_9_)"
   id="path3610" />

			<path
   style="fill:#a7a9ac"
   inkscape:connector-curvature="0"
   class="st8"
   d="m 185.48,180.33 -22.82,5.11 c 0,0 20.95,2.18 23.21,2.99 0,0 0.31,-7.54 -0.39,-8.1"
   clip-path="url(#SVGID_9_)"
   id="path3612" />

			<path
   style="fill:#a7a9ac"
   inkscape:connector-curvature="0"
   class="st8"
   d="m 160.16,191.58 c 0,0 3.64,15.79 4.11,15.79 l -3.96,0.22 z"
   clip-path="url(#SVGID_9_)"
   id="path3614" />

		</g>

	</g>

</g>
        <g
           id="g3640">
	<g
   id="g3638">
		<defs
   id="defs3623">
			<rect
   id="rect5625"
   x="117.28"
   y="131.45"
   width="119.65"
   height="158.28" />

		</defs>

		<clipPath
   id="SVGID_11_-6">
			<use
   height="100%"
   width="100%"
   y="0"
   x="0"
   xlink:href="#SVGID_10_-6"
   style="overflow:visible"
   id="use3625-3" />

		</clipPath>

		<g
   class="st9"
   clip-path="url(#SVGID_11_)"
   id="g3636">
			<defs
   id="defs3629">
				<rect
   id="rect5630"
   x="117.28"
   y="131.45"
   width="119.65"
   height="158.28" />

			</defs>

			<clipPath
   id="SVGID_13_-9">
				<use
   height="100%"
   width="100%"
   y="0"
   x="0"
   xlink:href="#SVGID_12_-9"
   style="overflow:visible"
   id="use3631-5" />

			</clipPath>

			<path
   style="fill:#ffffff"
   inkscape:connector-curvature="0"
   class="st10"
   d="m 145.01,158.77 c 0,0 3.44,10.29 4.2,11.07 0,0 -6.11,-8.85 -6.37,-9.64 l -1.53,1.3 7.9,11.07 -9.17,-10.29 -1.27,1.3 9.51,9.9 -5.69,-5.03 -0.93,1.04 6.2,5.9 -6.79,-5.12 -0.93,1.39 13.59,9.72 c 0,0 -13.16,-5.82 -22.34,-6.34 l -0.76,2.69 c 0,0 13.42,1.04 25.9,7.38 0,0 -8.58,1.82 -9.09,2.34 l 0.51,2.78 c 0,0 5.77,-3.13 10.45,-3.99 0,0 2.46,3.99 -0.42,23.27 l 2.97,0.43 c 0,0 0.34,-12.76 0,-14.32 0,0 1.61,8.33 3.48,11.29 l 2.72,-0.61 c 0,0 -4.16,-7.47 -6.03,-18.06 0,0 4.59,4.69 6.03,6.94 l 1.27,-0.78 c 0,0 -4.76,-5.73 -7.73,-8.07 0,0 7.98,6.94 9.34,8.51 l 1.1,-1.48 c 0,0 -8.24,-6.16 -8.92,-6.68 0,0 12.65,1.3 25.73,5.9 l 0.85,-3.91 c 0,0 -16.22,-2.94 -21.57,-3.21 -5.35,-0.26 19.11,-0.26 21.57,0.34 v -2.08 c 0,0 -8.34,0.3 -11.69,0.63 0,0 10.24,-1.58 11.69,-1.41 v -1.74 c 0,0 -10.62,1.13 -13.93,2 0,0 11.72,-3.82 13.33,-4.86 L 187,174.87 c 0,0 -9.94,7.51 -26.07,9.48 0,0 7.05,-11.74 7.39,-27.8 l -3.4,-0.95 c 0,0 0.79,13.02 -5.72,27.17 0,0 -9.48,-11.2 -11.35,-25.09 z"
   clip-path="url(#SVGID_13_)"
   id="path3634" />

		</g>

	</g>

</g>
      </g>
    </g>
    <text
       xml:space="preserve"
       style="font-style:normal;font-variant:normal;font-weight:normal;font-stretch:normal;font-size:5.37356758px;line-height:1.25;font-family:'DejaVu Sans';-inkscape-font-specification:'DejaVu Sans';text-align:start;letter-spacing:0px;word-spacing:0px;text-anchor:start;fill:#000000;fill-opacity:1;stroke:none;stroke-width:0.16792399"
       x="186.5442"
       y="170.42313"
       id="text5644"><tspan
         sodipodi:role="line"
         id="tspan5642"
         x="186.5442"
         y="170.42313"
         style="stroke-width:0.16792399">Sponsored by IRIS-HEP</tspan></text>
    <image
       sodipodi:absref="/home/pivarski/talks/pyhep2020-poster/scipy2020-logo.png"
       xlink:href="scipy2020-logo.png"
       y="13.270998"
       x="213.87856"
       id="image6297"
       style="image-rendering:optimizeQuality"
       preserveAspectRatio="none"
       height="22.039679"
       width="75.623657" />
  </g>
  <style
     id="style3411"
     type="text/css">
	.st0{fill:url(#SVGID_1_);stroke:#575195;stroke-width:1.7;stroke-miterlimit:10;}
	.st1{fill:#0082CA;}
	.st2{fill:#575195;}
	.st3{fill:#270089;}
	.st4{fill:#8A84D6;}
	.st5{fill:url(#SVGID_4_);}
	.st6{fill:url(#SVGID_5_);}
	.st7{clip-path:url(#SVGID_7_);}
	.st8{clip-path:url(#SVGID_9_);fill:#A7A9AC;}
	.st9{clip-path:url(#SVGID_11_);}
	.st10{clip-path:url(#SVGID_13_);fill:#FFFFFF;}
</style>
</svg>
