<?xml version="1.0" encoding="UTF-8" standalone="no"?>
<svg
   xmlns:dc="http://purl.org/dc/elements/1.1/"
   xmlns:cc="http://creativecommons.org/ns#"
   xmlns:rdf="http://www.w3.org/1999/02/22-rdf-syntax-ns#"
   xmlns:svg="http://www.w3.org/2000/svg"
   xmlns="http://www.w3.org/2000/svg"
   xmlns:sodipodi="http://sodipodi.sourceforge.net/DTD/sodipodi-0.dtd"
   xmlns:inkscape="http://www.inkscape.org/namespaces/inkscape"
   width="37mm"
   height="37mm"
   version="1.1"
   id="svg1673"
   sodipodi:docname="PyHEP2020-qr.svg"
   inkscape:version="0.92.4 (unknown)">
  <metadata
     id="metadata1679">
    <rdf:RDF>
      <cc:Work
         rdf:about="">
        <dc:format>image/svg+xml</dc:format>
        <dc:type
           rdf:resource="http://purl.org/dc/dcmitype/StillImage" />
      </cc:Work>
    </rdf:RDF>
  </metadata>
  <defs
     id="defs1677" />
  <sodipodi:namedview
     pagecolor="#ffffff"
     bordercolor="#666666"
     borderopacity="1"
     objecttolerance="10"
     gridtolerance="10"
     guidetolerance="10"
     inkscape:pageopacity="0"
     inkscape:pageshadow="2"
     inkscape:window-width="1890"
     inkscape:window-height="1051"
     id="namedview1675"
     showgrid="false"
     inkscape:zoom="6.2284347"
     inkscape:cx="69.92126"
     inkscape:cy="69.92126"
     inkscape:window-x="30"
     inkscape:window-y="0"
     inkscape:window-maximized="1"
     inkscape:current-layer="svg1673" />
  <path
     d="M 15.117188 15.117188 L 15.117188 18.898438 L 15.117188 22.677734 L 15.117188 26.457031 L 15.117188 30.236328 L 15.117188 34.015625 L 15.117188 37.794922 L 15.117188 41.574219 L 18.898438 41.574219 L 22.677734 41.574219 L 26.457031 41.574219 L 30.236328 41.574219 L 34.015625 41.574219 L 37.794922 41.574219 L 41.574219 41.574219 L 41.574219 37.794922 L 41.574219 34.015625 L 41.574219 30.236328 L 41.574219 26.457031 L 41.574219 22.677734 L 41.574219 18.898438 L 41.574219 15.117188 L 37.794922 15.117188 L 34.015625 15.117188 L 30.236328 15.117188 L 26.457031 15.117188 L 22.677734 15.117188 L 18.898438 15.117188 L 15.117188 15.117188 z M 49.134766 15.117188 L 49.134766 18.898438 L 45.353516 18.898438 L 45.353516 22.677734 L 45.353516 26.457031 L 45.353516 30.236328 L 49.134766 30.236328 L 49.134766 34.015625 L 52.914062 34.015625 L 56.693359 34.015625 L 56.693359 37.794922 L 60.472656 37.794922 L 60.472656 41.574219 L 56.693359 41.574219 L 56.693359 45.353516 L 52.914062 45.353516 L 52.914062 49.134766 L 52.914062 52.914062 L 49.134766 52.914062 L 45.353516 52.914062 L 45.353516 56.693359 L 49.134766 56.693359 L 52.914062 56.693359 L 52.914062 60.472656 L 56.693359 60.472656 L 56.693359 56.693359 L 56.693359 52.914062 L 56.693359 49.134766 L 60.472656 49.134766 L 60.472656 45.353516 L 64.251953 45.353516 L 64.251953 41.574219 L 64.251953 37.794922 L 64.251953 34.015625 L 60.472656 34.015625 L 60.472656 30.236328 L 56.693359 30.236328 L 56.693359 26.457031 L 52.914062 26.457031 L 52.914062 22.677734 L 52.914062 18.898438 L 56.693359 18.898438 L 56.693359 15.117188 L 52.914062 15.117188 L 49.134766 15.117188 z M 56.693359 26.457031 L 60.472656 26.457031 L 64.251953 26.457031 L 68.03125 26.457031 L 68.03125 22.677734 L 71.810547 22.677734 L 71.810547 18.898438 L 68.03125 18.898438 L 64.251953 18.898438 L 60.472656 18.898438 L 60.472656 22.677734 L 56.693359 22.677734 L 56.693359 26.457031 z M 71.810547 18.898438 L 75.589844 18.898438 L 75.589844 22.677734 L 79.369141 22.677734 L 83.150391 22.677734 L 83.150391 18.898438 L 79.369141 18.898438 L 79.369141 15.117188 L 75.589844 15.117188 L 71.810547 15.117188 L 71.810547 18.898438 z M 83.150391 18.898438 L 86.929688 18.898438 L 86.929688 15.117188 L 83.150391 15.117188 L 83.150391 18.898438 z M 75.589844 22.677734 L 71.810547 22.677734 L 71.810547 26.457031 L 75.589844 26.457031 L 75.589844 22.677734 z M 75.589844 26.457031 L 75.589844 30.236328 L 71.810547 30.236328 L 71.810547 34.015625 L 71.810547 37.794922 L 75.589844 37.794922 L 75.589844 34.015625 L 79.369141 34.015625 L 79.369141 30.236328 L 83.150391 30.236328 L 83.150391 26.457031 L 79.369141 26.457031 L 75.589844 26.457031 z M 83.150391 30.236328 L 83.150391 34.015625 L 86.929688 34.015625 L 90.708984 34.015625 L 90.708984 37.794922 L 90.708984 41.574219 L 94.488281 41.574219 L 94.488281 37.794922 L 94.488281 34.015625 L 94.488281 30.236328 L 94.488281 26.457031 L 90.708984 26.457031 L 86.929688 26.457031 L 86.929688 30.236328 L 83.150391 30.236328 z M 90.708984 41.574219 L 86.929688 41.574219 L 86.929688 45.353516 L 90.708984 45.353516 L 90.708984 41.574219 z M 86.929688 45.353516 L 83.150391 45.353516 L 79.369141 45.353516 L 79.369141 49.134766 L 75.589844 49.134766 L 75.589844 52.914062 L 79.369141 52.914062 L 79.369141 56.693359 L 83.150391 56.693359 L 83.150391 52.914062 L 86.929688 52.914062 L 90.708984 52.914062 L 90.708984 49.134766 L 86.929688 49.134766 L 86.929688 45.353516 z M 75.589844 52.914062 L 71.810547 52.914062 L 68.03125 52.914062 L 68.03125 49.134766 L 64.251953 49.134766 L 60.472656 49.134766 L 60.472656 52.914062 L 64.251953 52.914062 L 64.251953 56.693359 L 60.472656 56.693359 L 60.472656 60.472656 L 64.251953 60.472656 L 64.251953 64.251953 L 68.03125 64.251953 L 68.03125 60.472656 L 68.03125 56.693359 L 71.810547 56.693359 L 75.589844 56.693359 L 75.589844 52.914062 z M 64.251953 64.251953 L 60.472656 64.251953 L 60.472656 68.03125 L 56.693359 68.03125 L 52.914062 68.03125 L 52.914062 71.810547 L 56.693359 71.810547 L 56.693359 75.589844 L 60.472656 75.589844 L 60.472656 71.810547 L 64.251953 71.810547 L 64.251953 68.03125 L 64.251953 64.251953 z M 60.472656 75.589844 L 60.472656 79.369141 L 64.251953 79.369141 L 64.251953 75.589844 L 60.472656 75.589844 z M 64.251953 79.369141 L 64.251953 83.150391 L 68.03125 83.150391 L 71.810547 83.150391 L 71.810547 86.929688 L 75.589844 86.929688 L 79.369141 86.929688 L 83.150391 86.929688 L 86.929688 86.929688 L 86.929688 90.708984 L 90.708984 90.708984 L 90.708984 86.929688 L 94.488281 86.929688 L 94.488281 83.150391 L 94.488281 79.369141 L 90.708984 79.369141 L 90.708984 75.589844 L 90.708984 71.810547 L 86.929688 71.810547 L 86.929688 68.03125 L 83.150391 68.03125 L 83.150391 71.810547 L 83.150391 75.589844 L 86.929688 75.589844 L 86.929688 79.369141 L 86.929688 83.150391 L 83.150391 83.150391 L 83.150391 79.369141 L 83.150391 75.589844 L 79.369141 75.589844 L 79.369141 71.810547 L 75.589844 71.810547 L 75.589844 68.03125 L 75.589844 64.251953 L 75.589844 60.472656 L 71.810547 60.472656 L 71.810547 64.251953 L 71.810547 68.03125 L 71.810547 71.810547 L 71.810547 75.589844 L 71.810547 79.369141 L 68.03125 79.369141 L 64.251953 79.369141 z M 86.929688 68.03125 L 90.708984 68.03125 L 90.708984 64.251953 L 86.929688 64.251953 L 86.929688 68.03125 z M 90.708984 64.251953 L 94.488281 64.251953 L 94.488281 60.472656 L 98.267578 60.472656 L 98.267578 64.251953 L 98.267578 68.03125 L 98.267578 71.810547 L 102.04688 71.810547 L 102.04688 68.03125 L 105.82617 68.03125 L 105.82617 71.810547 L 102.04688 71.810547 L 102.04688 75.589844 L 105.82617 75.589844 L 109.60547 75.589844 L 109.60547 71.810547 L 113.38672 71.810547 L 113.38672 75.589844 L 109.60547 75.589844 L 109.60547 79.369141 L 113.38672 79.369141 L 113.38672 83.150391 L 117.16602 83.150391 L 120.94531 83.150391 L 120.94531 86.929688 L 124.72461 86.929688 L 124.72461 83.150391 L 124.72461 79.369141 L 120.94531 79.369141 L 117.16602 79.369141 L 117.16602 75.589844 L 117.16602 71.810547 L 117.16602 68.03125 L 113.38672 68.03125 L 109.60547 68.03125 L 109.60547 64.251953 L 105.82617 64.251953 L 105.82617 60.472656 L 102.04688 60.472656 L 102.04688 56.693359 L 98.267578 56.693359 L 98.267578 52.914062 L 94.488281 52.914062 L 94.488281 56.693359 L 90.708984 56.693359 L 86.929688 56.693359 L 86.929688 60.472656 L 90.708984 60.472656 L 90.708984 64.251953 z M 102.04688 56.693359 L 105.82617 56.693359 L 109.60547 56.693359 L 109.60547 52.914062 L 109.60547 49.134766 L 105.82617 49.134766 L 102.04688 49.134766 L 102.04688 52.914062 L 102.04688 56.693359 z M 102.04688 49.134766 L 102.04688 45.353516 L 98.267578 45.353516 L 94.488281 45.353516 L 94.488281 49.134766 L 98.267578 49.134766 L 102.04688 49.134766 z M 109.60547 49.134766 L 113.38672 49.134766 L 113.38672 52.914062 L 117.16602 52.914062 L 120.94531 52.914062 L 120.94531 49.134766 L 120.94531 45.353516 L 117.16602 45.353516 L 113.38672 45.353516 L 109.60547 45.353516 L 109.60547 49.134766 z M 109.60547 56.693359 L 109.60547 60.472656 L 113.38672 60.472656 L 113.38672 56.693359 L 109.60547 56.693359 z M 117.16602 68.03125 L 120.94531 68.03125 L 124.72461 68.03125 L 124.72461 64.251953 L 124.72461 60.472656 L 120.94531 60.472656 L 120.94531 64.251953 L 117.16602 64.251953 L 117.16602 68.03125 z M 113.38672 83.150391 L 109.60547 83.150391 L 109.60547 86.929688 L 113.38672 86.929688 L 113.38672 83.150391 z M 109.60547 83.150391 L 109.60547 79.369141 L 105.82617 79.369141 L 102.04688 79.369141 L 98.267578 79.369141 L 98.267578 83.150391 L 102.04688 83.150391 L 102.04688 86.929688 L 98.267578 86.929688 L 98.267578 90.708984 L 94.488281 90.708984 L 90.708984 90.708984 L 90.708984 94.488281 L 86.929688 94.488281 L 83.150391 94.488281 L 79.369141 94.488281 L 79.369141 90.708984 L 75.589844 90.708984 L 71.810547 90.708984 L 68.03125 90.708984 L 68.03125 94.488281 L 68.03125 98.267578 L 71.810547 98.267578 L 71.810547 102.04688 L 68.03125 102.04688 L 68.03125 105.82617 L 64.251953 105.82617 L 64.251953 109.60547 L 60.472656 109.60547 L 56.693359 109.60547 L 56.693359 113.38672 L 52.914062 113.38672 L 52.914062 117.16602 L 52.914062 120.94531 L 56.693359 120.94531 L 56.693359 124.72461 L 60.472656 124.72461 L 64.251953 124.72461 L 68.03125 124.72461 L 68.03125 120.94531 L 68.03125 117.16602 L 68.03125 113.38672 L 71.810547 113.38672 L 71.810547 117.16602 L 75.589844 117.16602 L 75.589844 113.38672 L 75.589844 109.60547 L 75.589844 105.82617 L 75.589844 102.04688 L 75.589844 98.267578 L 79.369141 98.267578 L 83.150391 98.267578 L 83.150391 102.04688 L 83.150391 105.82617 L 86.929688 105.82617 L 86.929688 109.60547 L 83.150391 109.60547 L 83.150391 113.38672 L 86.929688 113.38672 L 86.929688 117.16602 L 90.708984 117.16602 L 90.708984 113.38672 L 90.708984 109.60547 L 94.488281 109.60547 L 94.488281 113.38672 L 94.488281 117.16602 L 98.267578 117.16602 L 98.267578 120.94531 L 98.267578 124.72461 L 102.04688 124.72461 L 102.04688 120.94531 L 105.82617 120.94531 L 109.60547 120.94531 L 113.38672 120.94531 L 113.38672 124.72461 L 117.16602 124.72461 L 117.16602 120.94531 L 117.16602 117.16602 L 120.94531 117.16602 L 120.94531 113.38672 L 117.16602 113.38672 L 117.16602 109.60547 L 113.38672 109.60547 L 113.38672 105.82617 L 109.60547 105.82617 L 109.60547 102.04688 L 113.38672 102.04688 L 117.16602 102.04688 L 117.16602 98.267578 L 113.38672 98.267578 L 113.38672 94.488281 L 109.60547 94.488281 L 109.60547 90.708984 L 105.82617 90.708984 L 105.82617 86.929688 L 105.82617 83.150391 L 109.60547 83.150391 z M 113.38672 94.488281 L 117.16602 94.488281 L 120.94531 94.488281 L 124.72461 94.488281 L 124.72461 90.708984 L 120.94531 90.708984 L 117.16602 90.708984 L 113.38672 90.708984 L 113.38672 94.488281 z M 117.16602 109.60547 L 120.94531 109.60547 L 120.94531 113.38672 L 124.72461 113.38672 L 124.72461 109.60547 L 124.72461 105.82617 L 124.72461 102.04688 L 120.94531 102.04688 L 120.94531 105.82617 L 117.16602 105.82617 L 117.16602 109.60547 z M 120.94531 117.16602 L 120.94531 120.94531 L 124.72461 120.94531 L 124.72461 117.16602 L 120.94531 117.16602 z M 83.150391 109.60547 L 83.150391 105.82617 L 79.369141 105.82617 L 79.369141 109.60547 L 83.150391 109.60547 z M 75.589844 117.16602 L 75.589844 120.94531 L 71.810547 120.94531 L 71.810547 124.72461 L 75.589844 124.72461 L 79.369141 124.72461 L 79.369141 120.94531 L 79.369141 117.16602 L 75.589844 117.16602 z M 52.914062 113.38672 L 52.914062 109.60547 L 52.914062 105.82617 L 49.134766 105.82617 L 49.134766 109.60547 L 49.134766 113.38672 L 52.914062 113.38672 z M 52.914062 105.82617 L 56.693359 105.82617 L 60.472656 105.82617 L 64.251953 105.82617 L 64.251953 102.04688 L 60.472656 102.04688 L 60.472656 98.267578 L 64.251953 98.267578 L 64.251953 94.488281 L 60.472656 94.488281 L 60.472656 90.708984 L 56.693359 90.708984 L 56.693359 94.488281 L 52.914062 94.488281 L 52.914062 90.708984 L 49.134766 90.708984 L 49.134766 94.488281 L 45.353516 94.488281 L 45.353516 98.267578 L 49.134766 98.267578 L 49.134766 102.04688 L 52.914062 102.04688 L 52.914062 98.267578 L 56.693359 98.267578 L 56.693359 102.04688 L 52.914062 102.04688 L 52.914062 105.82617 z M 52.914062 90.708984 L 56.693359 90.708984 L 56.693359 86.929688 L 52.914062 86.929688 L 52.914062 90.708984 z M 52.914062 86.929688 L 52.914062 83.150391 L 52.914062 79.369141 L 56.693359 79.369141 L 56.693359 75.589844 L 52.914062 75.589844 L 49.134766 75.589844 L 49.134766 79.369141 L 45.353516 79.369141 L 45.353516 75.589844 L 41.574219 75.589844 L 37.794922 75.589844 L 37.794922 71.810547 L 41.574219 71.810547 L 41.574219 68.03125 L 37.794922 68.03125 L 37.794922 64.251953 L 34.015625 64.251953 L 34.015625 60.472656 L 37.794922 60.472656 L 37.794922 56.693359 L 34.015625 56.693359 L 34.015625 52.914062 L 34.015625 49.134766 L 30.236328 49.134766 L 30.236328 52.914062 L 26.457031 52.914062 L 26.457031 49.134766 L 22.677734 49.134766 L 18.898438 49.134766 L 18.898438 45.353516 L 15.117188 45.353516 L 15.117188 49.134766 L 15.117188 52.914062 L 15.117188 56.693359 L 18.898438 56.693359 L 18.898438 52.914062 L 22.677734 52.914062 L 22.677734 56.693359 L 26.457031 56.693359 L 26.457031 60.472656 L 26.457031 64.251953 L 26.457031 68.03125 L 30.236328 68.03125 L 34.015625 68.03125 L 34.015625 71.810547 L 34.015625 75.589844 L 34.015625 79.369141 L 34.015625 83.150391 L 37.794922 83.150391 L 37.794922 79.369141 L 41.574219 79.369141 L 41.574219 83.150391 L 37.794922 83.150391 L 37.794922 86.929688 L 41.574219 86.929688 L 41.574219 90.708984 L 45.353516 90.708984 L 45.353516 86.929688 L 45.353516 83.150391 L 49.134766 83.150391 L 49.134766 86.929688 L 52.914062 86.929688 z M 41.574219 90.708984 L 37.794922 90.708984 L 37.794922 86.929688 L 34.015625 86.929688 L 34.015625 83.150391 L 30.236328 83.150391 L 30.236328 86.929688 L 30.236328 90.708984 L 34.015625 90.708984 L 34.015625 94.488281 L 37.794922 94.488281 L 41.574219 94.488281 L 41.574219 90.708984 z M 30.236328 90.708984 L 26.457031 90.708984 L 22.677734 90.708984 L 22.677734 94.488281 L 26.457031 94.488281 L 30.236328 94.488281 L 30.236328 90.708984 z M 26.457031 68.03125 L 22.677734 68.03125 L 18.898438 68.03125 L 18.898438 71.810547 L 18.898438 75.589844 L 18.898438 79.369141 L 15.117188 79.369141 L 15.117188 83.150391 L 15.117188 86.929688 L 15.117188 90.708984 L 15.117188 94.488281 L 18.898438 94.488281 L 18.898438 90.708984 L 18.898438 86.929688 L 22.677734 86.929688 L 22.677734 83.150391 L 26.457031 83.150391 L 26.457031 79.369141 L 30.236328 79.369141 L 30.236328 75.589844 L 26.457031 75.589844 L 22.677734 75.589844 L 22.677734 71.810547 L 26.457031 71.810547 L 26.457031 68.03125 z M 18.898438 68.03125 L 18.898438 64.251953 L 18.898438 60.472656 L 15.117188 60.472656 L 15.117188 64.251953 L 15.117188 68.03125 L 18.898438 68.03125 z M 37.794922 56.693359 L 41.574219 56.693359 L 41.574219 52.914062 L 37.794922 52.914062 L 37.794922 56.693359 z M 41.574219 52.914062 L 45.353516 52.914062 L 45.353516 49.134766 L 41.574219 49.134766 L 41.574219 52.914062 z M 41.574219 49.134766 L 41.574219 45.353516 L 37.794922 45.353516 L 37.794922 49.134766 L 41.574219 49.134766 z M 45.353516 49.134766 L 49.134766 49.134766 L 49.134766 45.353516 L 52.914062 45.353516 L 52.914062 41.574219 L 49.134766 41.574219 L 49.134766 37.794922 L 45.353516 37.794922 L 45.353516 41.574219 L 45.353516 45.353516 L 45.353516 49.134766 z M 52.914062 41.574219 L 56.693359 41.574219 L 56.693359 37.794922 L 52.914062 37.794922 L 52.914062 41.574219 z M 41.574219 56.693359 L 41.574219 60.472656 L 45.353516 60.472656 L 45.353516 56.693359 L 41.574219 56.693359 z M 41.574219 60.472656 L 37.794922 60.472656 L 37.794922 64.251953 L 41.574219 64.251953 L 41.574219 60.472656 z M 45.353516 75.589844 L 49.134766 75.589844 L 49.134766 71.810547 L 49.134766 68.03125 L 45.353516 68.03125 L 45.353516 71.810547 L 45.353516 75.589844 z M 49.134766 68.03125 L 52.914062 68.03125 L 52.914062 64.251953 L 49.134766 64.251953 L 49.134766 68.03125 z M 56.693359 86.929688 L 60.472656 86.929688 L 60.472656 83.150391 L 56.693359 83.150391 L 56.693359 86.929688 z M 68.03125 90.708984 L 68.03125 86.929688 L 64.251953 86.929688 L 64.251953 90.708984 L 68.03125 90.708984 z M 98.267578 79.369141 L 98.267578 75.589844 L 98.267578 71.810547 L 94.488281 71.810547 L 94.488281 75.589844 L 94.488281 79.369141 L 98.267578 79.369141 z M 79.369141 45.353516 L 79.369141 41.574219 L 79.369141 37.794922 L 75.589844 37.794922 L 75.589844 41.574219 L 71.810547 41.574219 L 71.810547 37.794922 L 68.03125 37.794922 L 68.03125 41.574219 L 68.03125 45.353516 L 71.810547 45.353516 L 75.589844 45.353516 L 79.369141 45.353516 z M 86.929688 41.574219 L 86.929688 37.794922 L 83.150391 37.794922 L 83.150391 41.574219 L 86.929688 41.574219 z M 90.708984 15.117188 L 90.708984 18.898438 L 94.488281 18.898438 L 94.488281 15.117188 L 90.708984 15.117188 z M 98.267578 15.117188 L 98.267578 18.898438 L 98.267578 22.677734 L 98.267578 26.457031 L 98.267578 30.236328 L 98.267578 34.015625 L 98.267578 37.794922 L 98.267578 41.574219 L 102.04688 41.574219 L 105.82617 41.574219 L 109.60547 41.574219 L 113.38672 41.574219 L 117.16602 41.574219 L 120.94531 41.574219 L 124.72461 41.574219 L 124.72461 37.794922 L 124.72461 34.015625 L 124.72461 30.236328 L 124.72461 26.457031 L 124.72461 22.677734 L 124.72461 18.898438 L 124.72461 15.117188 L 120.94531 15.117188 L 117.16602 15.117188 L 113.38672 15.117188 L 109.60547 15.117188 L 105.82617 15.117188 L 102.04688 15.117188 L 98.267578 15.117188 z M 18.898438 18.898438 L 22.677734 18.898438 L 26.457031 18.898438 L 30.236328 18.898438 L 34.015625 18.898438 L 37.794922 18.898438 L 37.794922 22.677734 L 37.794922 26.457031 L 37.794922 30.236328 L 37.794922 34.015625 L 37.794922 37.794922 L 34.015625 37.794922 L 30.236328 37.794922 L 26.457031 37.794922 L 22.677734 37.794922 L 18.898438 37.794922 L 18.898438 34.015625 L 18.898438 30.236328 L 18.898438 26.457031 L 18.898438 22.677734 L 18.898438 18.898438 z M 102.04688 18.898438 L 105.82617 18.898438 L 109.60547 18.898438 L 113.38672 18.898438 L 117.16602 18.898438 L 120.94531 18.898438 L 120.94531 22.677734 L 120.94531 26.457031 L 120.94531 30.236328 L 120.94531 34.015625 L 120.94531 37.794922 L 117.16602 37.794922 L 113.38672 37.794922 L 109.60547 37.794922 L 105.82617 37.794922 L 102.04688 37.794922 L 102.04688 34.015625 L 102.04688 30.236328 L 102.04688 26.457031 L 102.04688 22.677734 L 102.04688 18.898438 z M 22.677734 22.677734 L 22.677734 26.457031 L 22.677734 30.236328 L 22.677734 34.015625 L 26.457031 34.015625 L 30.236328 34.015625 L 34.015625 34.015625 L 34.015625 30.236328 L 34.015625 26.457031 L 34.015625 22.677734 L 30.236328 22.677734 L 26.457031 22.677734 L 22.677734 22.677734 z M 105.82617 22.677734 L 105.82617 26.457031 L 105.82617 30.236328 L 105.82617 34.015625 L 109.60547 34.015625 L 113.38672 34.015625 L 117.16602 34.015625 L 117.16602 30.236328 L 117.16602 26.457031 L 117.16602 22.677734 L 113.38672 22.677734 L 109.60547 22.677734 L 105.82617 22.677734 z M 79.369141 60.472656 L 79.369141 64.251953 L 83.150391 64.251953 L 83.150391 60.472656 L 79.369141 60.472656 z M 120.94531 71.810547 L 120.94531 75.589844 L 124.72461 75.589844 L 124.72461 71.810547 L 120.94531 71.810547 z M 75.589844 79.369141 L 79.369141 79.369141 L 79.369141 83.150391 L 75.589844 83.150391 L 75.589844 79.369141 z M 94.488281 94.488281 L 98.267578 94.488281 L 102.04688 94.488281 L 105.82617 94.488281 L 105.82617 98.267578 L 105.82617 102.04688 L 105.82617 105.82617 L 102.04688 105.82617 L 98.267578 105.82617 L 94.488281 105.82617 L 94.488281 102.04688 L 94.488281 98.267578 L 94.488281 94.488281 z M 15.117188 98.267578 L 15.117188 102.04688 L 15.117188 105.82617 L 15.117188 109.60547 L 15.117188 113.38672 L 15.117188 117.16602 L 15.117188 120.94531 L 15.117188 124.72461 L 18.898438 124.72461 L 22.677734 124.72461 L 26.457031 124.72461 L 30.236328 124.72461 L 34.015625 124.72461 L 37.794922 124.72461 L 41.574219 124.72461 L 41.574219 120.94531 L 41.574219 117.16602 L 41.574219 113.38672 L 41.574219 109.60547 L 41.574219 105.82617 L 41.574219 102.04688 L 41.574219 98.267578 L 37.794922 98.267578 L 34.015625 98.267578 L 30.236328 98.267578 L 26.457031 98.267578 L 22.677734 98.267578 L 18.898438 98.267578 L 15.117188 98.267578 z M 98.267578 98.267578 L 98.267578 102.04688 L 102.04688 102.04688 L 102.04688 98.267578 L 98.267578 98.267578 z M 18.898438 102.04688 L 22.677734 102.04688 L 26.457031 102.04688 L 30.236328 102.04688 L 34.015625 102.04688 L 37.794922 102.04688 L 37.794922 105.82617 L 37.794922 109.60547 L 37.794922 113.38672 L 37.794922 117.16602 L 37.794922 120.94531 L 34.015625 120.94531 L 30.236328 120.94531 L 26.457031 120.94531 L 22.677734 120.94531 L 18.898438 120.94531 L 18.898438 117.16602 L 18.898438 113.38672 L 18.898438 109.60547 L 18.898438 105.82617 L 18.898438 102.04688 z M 22.677734 105.82617 L 22.677734 109.60547 L 22.677734 113.38672 L 22.677734 117.16602 L 26.457031 117.16602 L 30.236328 117.16602 L 34.015625 117.16602 L 34.015625 113.38672 L 34.015625 109.60547 L 34.015625 105.82617 L 30.236328 105.82617 L 26.457031 105.82617 L 22.677734 105.82617 z M 98.267578 109.60547 L 102.04688 109.60547 L 105.82617 109.60547 L 109.60547 109.60547 L 109.60547 113.38672 L 105.82617 113.38672 L 102.04688 113.38672 L 98.267578 113.38672 L 98.267578 109.60547 z M 45.353516 120.94531 L 45.353516 124.72461 L 49.134766 124.72461 L 49.134766 120.94531 L 45.353516 120.94531 z M 86.929688 120.94531 L 86.929688 124.72461 L 90.708984 124.72461 L 90.708984 120.94531 L 86.929688 120.94531 z "
     id="rect815" />
</svg>
